<svg id="Layer_1" data-name="Layer 1" xmlns="http://www.w3.org/2000/svg" viewBox="0 0 360 287.99"><defs><style>.cls-1{fill:#231f20;}.cls-2,.cls-3,.cls-4,.cls-7{fill:#fff;}.cls-3{font-size:30px;}.cls-3,.cls-7{font-family:ProximaNova-Black, Proxima Nova;}.cls-4{font-size:14px;font-family:ProximaNova-Light, Proxima Nova;}.cls-5{letter-spacing:-0.04em;}.cls-6{letter-spacing:-0.03em;}.cls-7{font-size:18px;}.cls-8{fill:none;stroke:#fff;stroke-miterlimit:10;}</style></defs><title>KingOfTheRing</title><rect class="cls-1" x="0.18" y="-0.01" width="360" height="288"/><path class="cls-2" d="M156.13,60c-3.37,0-3.66-.24-4.48-3.51-1.17-4.61-2.33-9.22-3.43-13.85a4.79,4.79,0,0,0-1.7-3,3.7,3.7,0,0,1-.83-5.36,4,4,0,0,1,5.36-1.1,3.72,3.72,0,0,1,1.32,5.25c-.6,1.11-.58,1.73.32,2.56,1.48,1.36,2.81,2.89,4.3,4.25,3.52,3.22,8.07,3,11.12-.72,2.84-3.47,5.43-7.15,8.17-10.7.66-.86.48-1.5.11-2.47a4,4,0,0,1,2.54-5.5,3.75,3.75,0,0,1,3.8,1,3.54,3.54,0,0,1,.92,4.27,2.71,2.71,0,0,0,.55,3.2c2.38,3.13,4.68,6.33,7.09,9.45,3.61,4.68,8.18,5,12.42.83,1-1,2-2.11,3.13-3.1s1.6-1.8.66-3.42A3.67,3.67,0,0,1,210,32.74a4,4,0,0,1,4.47,1.87,3.56,3.56,0,0,1-.69,4.74,6.07,6.07,0,0,0-2,3.7c-1.07,4.45-2.2,8.88-3.32,13.32-.81,3.24-1,3.39-4.24,3.4"/><path class="cls-2" d="M180.05,72.84H156.17c-3.07,0-3.48-.43-3.53-3.48v-.55c0-4.28.23-4.53,4.45-4.53q23.06,0,46.12,0c.64,0,1.28,0,1.92,0,1.49.1,2.4.79,2.35,2.41,0,.73,0,1.46,0,2.19,0,3.77-.17,3.94-3.83,3.94Z"/><text class="cls-3" transform="translate(45.48 129.76) scale(1 0.9)">KING OF THE RING</text><text class="cls-4" transform="translate(73.85 191.56) scale(1 0.9)">20 minute strength and cardio warm up<tspan x="0" y="20">6 - 3 minute rounds of b</tspan><tspan class="cls-5" x="144.37" y="20">o</tspan><tspan x="151.86" y="20">xing</tspan><tspan x="0" y="40">10 minute HIIT round</tspan><tspan x="0" y="60">6 - 3 minute rounds of b</tspan><tspan class="cls-5" x="144.37" y="60">o</tspan><tspan x="151.86" y="60">xing</tspan><tspan x="0" y="80">10 minute core and fl</tspan><tspan class="cls-6" x="125.12" y="80">e</tspan><tspan x="132.69" y="80">xibility cooldown</tspan></text><text class="cls-7" transform="translate(149.72 163.5) scale(1 0.9)">90 min</text><line class="cls-8" x1="141.95" y1="158.49" x2="45.44" y2="158.49"/><line class="cls-8" x1="314.91" y1="158.49" x2="218.4" y2="158.49"/><circle class="cls-2" cx="57.67" cy="187.43" r="2.75"/><circle class="cls-2" cx="57.67" cy="205.68" r="2.75"/><circle class="cls-2" cx="57.67" cy="223.93" r="2.75"/><circle class="cls-2" cx="57.67" cy="241.18" r="2.75"/><circle class="cls-2" cx="57.67" cy="259.43" r="2.75"/></svg>