<svg id="Layer_1" data-name="Layer 1" xmlns="http://www.w3.org/2000/svg" viewBox="0 0 360 288"><defs><style>.cls-1{fill:#fe0000;}.cls-2{fill:#fff;}.cls-3{fill:none;stroke:#fff;stroke-miterlimit:10;}</style></defs><title>KingOfTheRing</title><rect class="cls-1" width="360" height="288"/><path class="cls-2" d="M156.13,60c-3.37,0-3.66-.24-4.48-3.51-1.17-4.61-2.33-9.23-3.43-13.86a4.79,4.79,0,0,0-1.7-3,3.71,3.71,0,0,1-.83-5.36,4,4,0,0,1,5.36-1.11,3.72,3.72,0,0,1,1.32,5.25c-.6,1.11-.58,1.73.32,2.57,1.48,1.36,2.81,2.89,4.3,4.25,3.52,3.22,8.07,3,11.12-.73,2.84-3.47,5.43-7.14,8.17-10.69.66-.86.48-1.51.11-2.47a4,4,0,0,1,2.54-5.51,3.79,3.79,0,0,1,3.8,1,3.55,3.55,0,0,1,.92,4.28,2.71,2.71,0,0,0,.55,3.2c2.38,3.13,4.68,6.33,7.09,9.45,3.61,4.67,8.18,5,12.42.83,1-1,2-2.11,3.13-3.1s1.6-1.8.66-3.42A3.67,3.67,0,0,1,210,32.75a4,4,0,0,1,4.47,1.86,3.57,3.57,0,0,1-.69,4.75,6,6,0,0,0-2,3.7c-1.07,4.45-2.2,8.88-3.32,13.31-.81,3.25-1,3.39-4.24,3.4" transform="translate(-0.18)"/><path class="cls-2" d="M180.05,72.85c-8,0-15.92,0-23.88,0-3.07,0-3.48-.43-3.53-3.48v-.54c0-4.28.23-4.54,4.45-4.54h46.12c.64,0,1.28,0,1.92,0,1.49.09,2.4.78,2.35,2.4,0,.74,0,1.47,0,2.2,0,3.76-.17,3.93-3.83,3.94Z" transform="translate(-0.18)"/><path class="cls-2" d="M54.27,123.42l-1.11,1.35v5H47.1v-18h6.06v6.75l5.25-6.75h7.41l-7.56,8.37,7.89,9.63H58.77Z" transform="translate(-0.18)"/><path class="cls-2" d="M67.23,111.76h6.06v18H67.23Z" transform="translate(-0.18)"/><path class="cls-2" d="M82.59,120.1v9.66H76.53v-18h6.24l7,9.07v-9.07h6.06v18H90Z" transform="translate(-0.18)"/><path class="cls-2" d="M109,111.46c4.65,0,7.41,2.11,8.79,4.43l-5.1,2.35a4.22,4.22,0,0,0-3.69-2,4.52,4.52,0,1,0,0,9,6.11,6.11,0,0,0,3.27-.81v-.78h-3.87v-4.48h9.75v7.23a12.47,12.47,0,0,1-9.15,3.65c-6.06,0-11-3.57-11-9.32S102.9,111.46,109,111.46Z" transform="translate(-0.18)"/><path class="cls-2" d="M138.33,111.46c6.18,0,10.95,3.78,10.95,9.31s-4.77,9.32-10.95,9.32-11-3.78-11-9.32S132.15,111.46,138.33,111.46Zm0,4.81a4.51,4.51,0,1,0,4.8,4.5A4.49,4.49,0,0,0,138.33,116.27Z" transform="translate(-0.18)"/><path class="cls-2" d="M151.44,111.76h15.18v4.53H157.5v2.11h8.91v4.53H157.5v6.83h-6.06Z" transform="translate(-0.18)"/><path class="cls-2" d="M181.14,116.51h-5.37v-4.75h16.77v4.75H187.2v13.25h-6.06Z" transform="translate(-0.18)"/><path class="cls-2" d="M207.93,122.88h-7.17v6.88H194.7v-18h6.06v6.37h7.17v-6.37H214v18h-6.06Z" transform="translate(-0.18)"/><path class="cls-2" d="M217.23,111.76h15.18v4.53h-9.12v2.11h8.9v4.53h-8.9v2.3h9.12v4.53H217.23Z" transform="translate(-0.18)"/><path class="cls-2" d="M251,124h-2.19v5.77h-6.06v-18h10.68c4.68,0,7.2,2.81,7.2,6.18a5.79,5.79,0,0,1-3.6,5.45l3.63,6.37h-6.9Zm1.5-7.7h-3.69v3.16h3.69a1.62,1.62,0,1,0,0-3.16Z" transform="translate(-0.18)"/><path class="cls-2" d="M263.09,111.76h6.06v18h-6.06Z" transform="translate(-0.18)"/><path class="cls-2" d="M278.45,120.1v9.66h-6.06v-18h6.24l7,9.07v-9.07h6.06v18h-5.82Z" transform="translate(-0.18)"/><path class="cls-2" d="M304.82,111.46c4.65,0,7.41,2.11,8.79,4.43l-5.1,2.35a4.22,4.22,0,0,0-3.69-2,4.52,4.52,0,1,0,0,9,6.11,6.11,0,0,0,3.27-.81v-.78h-3.87v-4.48H314v7.23a12.47,12.47,0,0,1-9.15,3.65c-6.06,0-11-3.57-11-9.32S298.76,111.46,304.82,111.46Z" transform="translate(-0.18)"/><path class="cls-2" d="M74.64,191c3.18-2.31,5.3-3.95,5.3-5.58,0-1.21-1.1-1.71-2.12-1.71a3.18,3.18,0,0,0-2.57,1.1l-.54-.46a4,4,0,0,1,3.11-1.3c1.37,0,2.94.71,2.94,2.37,0,1.86-2.17,3.55-4.88,5.51H80.8v.66H74.64Z" transform="translate(-0.18)"/><path class="cls-2" d="M86.27,183c2.49,0,3.45,2.34,3.45,4.34s-1,4.35-3.45,4.35-3.46-2.36-3.46-4.35S83.75,183,86.27,183Zm0,.66c-2,0-2.62,1.94-2.62,3.68s.65,3.69,2.62,3.69,2.59-2,2.59-3.69S88.23,183.69,86.27,183.69Z" transform="translate(-0.18)"/><path class="cls-2" d="M103.33,187.31a1.22,1.22,0,0,0-1.36-1.39,2.6,2.6,0,0,0-1.94,1v4.62h-.74v-4.26a1.22,1.22,0,0,0-1.36-1.39A2.65,2.65,0,0,0,96,187v4.6h-.73v-6.09H96v.92a3.08,3.08,0,0,1,2.19-1.07,1.66,1.66,0,0,1,1.77,1.15,2.89,2.89,0,0,1,2.25-1.15,1.63,1.63,0,0,1,1.84,1.85v4.39h-.72Z" transform="translate(-0.18)"/><path class="cls-2" d="M106.12,184a.55.55,0,0,1,.56-.51.51.51,0,1,1,0,1A.55.55,0,0,1,106.12,184Zm.2,1.51h.73v6.09h-.73Z" transform="translate(-0.18)"/><path class="cls-2" d="M113.88,187.45c0-1.18-.66-1.53-1.64-1.53A3,3,0,0,0,110,187v4.6h-.73v-6.09H110v.92a3.58,3.58,0,0,1,2.44-1.07c1.37,0,2.13.6,2.13,2v4.26h-.73Z" transform="translate(-0.18)"/><path class="cls-2" d="M121.44,190.67a3.58,3.58,0,0,1-2.44,1.05c-1.38,0-2.13-.58-2.13-1.95v-4.29h.73v4.13c0,1.19.66,1.52,1.64,1.52a3.05,3.05,0,0,0,2.2-1v-4.64h.73v6.09h-.73Z" transform="translate(-0.18)"/><path class="cls-2" d="M124.57,190.4v-4.34h-1.12v-.58h1.12v-1.66h.75v1.66h1.37v.58h-1.37v4.23c0,.5.22.84.7.84a1.1,1.1,0,0,0,.75-.29l.28.5a1.6,1.6,0,0,1-1.15.38A1.19,1.19,0,0,1,124.57,190.4Z" transform="translate(-0.18)"/><path class="cls-2" d="M131.16,185.33a3.05,3.05,0,0,1,3.19,3.23v.17h-5.66a2.51,2.51,0,0,0,2.65,2.42,3.15,3.15,0,0,0,2.21-.84l.38.43a3.69,3.69,0,0,1-2.65,1,3.2,3.2,0,1,1-.12-6.39Zm-2.47,2.88h4.92a2.34,2.34,0,0,0-2.47-2.31A2.41,2.41,0,0,0,128.69,188.21Z" transform="translate(-0.18)"/><path class="cls-2" d="M139.69,190.27a3,3,0,0,0,2.19.89c1.13,0,1.81-.5,1.81-1.21s-.93-1-1.9-1.23c-1.13-.25-2.38-.52-2.38-1.7,0-.93.89-1.69,2.41-1.69a3.29,3.29,0,0,1,2.43.89l-.41.47a2.58,2.58,0,0,0-2-.81c-1,0-1.69.47-1.69,1.1s.87.88,1.8,1.1c1.17.26,2.47.55,2.47,1.85,0,1-.84,1.79-2.54,1.79a3.45,3.45,0,0,1-2.6-1Z" transform="translate(-0.18)"/><path class="cls-2" d="M146.41,190.4v-4.34h-1.12v-.58h1.12v-1.66h.75v1.66h1.37v.58h-1.37v4.23c0,.5.22.84.7.84a1.1,1.1,0,0,0,.75-.29l.28.5a1.6,1.6,0,0,1-1.15.38A1.19,1.19,0,0,1,146.41,190.4Z" transform="translate(-0.18)"/><path class="cls-2" d="M150.12,185.48h.73v1.05a3,3,0,0,1,2.28-1.18v.72a2.06,2.06,0,0,0-.36,0,2.62,2.62,0,0,0-1.92,1.08v4.44h-.73Z" transform="translate(-0.18)"/><path class="cls-2" d="M157.43,185.33a3.06,3.06,0,0,1,3.2,3.23v.17H155a2.51,2.51,0,0,0,2.65,2.42,3.17,3.17,0,0,0,2.21-.84l.38.43a3.71,3.71,0,0,1-2.65,1,3.2,3.2,0,1,1-.13-6.39ZM155,188.21h4.91a2.33,2.33,0,0,0-2.46-2.31A2.4,2.4,0,0,0,155,188.21Z" transform="translate(-0.18)"/><path class="cls-2" d="M167.07,187.45c0-1.18-.66-1.53-1.64-1.53a3,3,0,0,0-2.2,1.05v4.6h-.73v-6.09h.73v.92a3.56,3.56,0,0,1,2.44-1.07c1.37,0,2.12.6,2.12,2v4.26h-.72Z" transform="translate(-0.18)"/><path class="cls-2" d="M170.49,192.61a2.74,2.74,0,0,0,2.24.86c1.24,0,2.32-.55,2.32-1.95v-1a3,3,0,0,1-2.36,1.13,3.18,3.18,0,0,1,0-6.36,3,3,0,0,1,2.36,1.13v-1h.74v6c0,1.87-1.4,2.54-3.06,2.54a3.46,3.46,0,0,1-2.66-.92Zm4.56-5.58a2.82,2.82,0,0,0-2.23-1.11,2.6,2.6,0,0,0,0,5.18,2.82,2.82,0,0,0,2.23-1.11Z" transform="translate(-0.18)"/><path class="cls-2" d="M178.18,190.4v-4.34h-1.12v-.58h1.12v-1.66h.74v1.66h1.37v.58h-1.37v4.23c0,.5.23.84.7.84a1.15,1.15,0,0,0,.76-.29l.28.5a1.62,1.62,0,0,1-1.15.38A1.19,1.19,0,0,1,178.18,190.4Z" transform="translate(-0.18)"/><path class="cls-2" d="M186.46,187.42c0-1.17-.66-1.5-1.64-1.5a3,3,0,0,0-2.2,1.05v4.6h-.73v-8.41h.73v3.24a3.56,3.56,0,0,1,2.43-1.07c1.38,0,2.13.58,2.13,1.95v4.29h-.72Z" transform="translate(-0.18)"/><path class="cls-2" d="M197.38,190.85a3.14,3.14,0,0,1-2.3.87,2.18,2.18,0,0,1-2.37-2,2.16,2.16,0,0,1,2.37-2,3.11,3.11,0,0,1,2.3.87v-1.23c0-.91-.82-1.4-1.83-1.4a2.75,2.75,0,0,0-2.11.89l-.41-.45a3.47,3.47,0,0,1,2.61-1c1.37,0,2.46.59,2.46,1.95v4.29h-.72Zm0-1.82a2.7,2.7,0,0,0-2-.84c-1.12,0-1.85.64-1.85,1.51s.73,1.5,1.85,1.5a2.69,2.69,0,0,0,2-.83Z" transform="translate(-0.18)"/><path class="cls-2" d="M204.94,187.45c0-1.18-.66-1.53-1.64-1.53a3,3,0,0,0-2.2,1.05v4.6h-.73v-6.09h.73v.92a3.56,3.56,0,0,1,2.44-1.07c1.37,0,2.12.6,2.12,2v4.26h-.72Z" transform="translate(-0.18)"/><path class="cls-2" d="M212.92,190.6a3,3,0,0,1-2.36,1.12,3.2,3.2,0,0,1,0-6.39,3,3,0,0,1,2.36,1.13v-3.3h.74v8.41h-.74Zm0-3.57a2.81,2.81,0,0,0-2.23-1.11,2.62,2.62,0,0,0,0,5.21,2.82,2.82,0,0,0,2.23-1.09Z" transform="translate(-0.18)"/><path class="cls-2" d="M222.45,185.33a2.87,2.87,0,0,1,2.39,1l-.5.41a2.22,2.22,0,0,0-1.85-.85,2.61,2.61,0,0,0,0,5.21,2.26,2.26,0,0,0,1.85-.86l.5.4a2.86,2.86,0,0,1-2.39,1.05,3.2,3.2,0,1,1,0-6.39Z" transform="translate(-0.18)"/><path class="cls-2" d="M230.77,190.85a3.14,3.14,0,0,1-2.3.87,2.18,2.18,0,0,1-2.37-2,2.16,2.16,0,0,1,2.37-2,3.11,3.11,0,0,1,2.3.87v-1.23c0-.91-.82-1.4-1.82-1.4a2.76,2.76,0,0,0-2.12.89l-.41-.45a3.47,3.47,0,0,1,2.61-1c1.37,0,2.46.59,2.46,1.95v4.29h-.72Zm0-1.82a2.7,2.7,0,0,0-2.05-.84c-1.12,0-1.85.64-1.85,1.51s.73,1.5,1.85,1.5a2.69,2.69,0,0,0,2.05-.83Z" transform="translate(-0.18)"/><path class="cls-2" d="M233.76,185.48h.73v1.05a3,3,0,0,1,2.28-1.18v.72a2.06,2.06,0,0,0-.36,0,2.62,2.62,0,0,0-1.92,1.08v4.44h-.73Z" transform="translate(-0.18)"/><path class="cls-2" d="M243.18,190.6a3.2,3.2,0,1,1,0-4.14v-3.3h.75v8.41h-.75Zm0-3.57a2.77,2.77,0,0,0-2.22-1.11,2.62,2.62,0,0,0,0,5.21,2.79,2.79,0,0,0,2.22-1.09Z" transform="translate(-0.18)"/><path class="cls-2" d="M246,184a.56.56,0,1,1,.56.5A.54.54,0,0,1,246,184Zm.19,1.51h.73v6.09h-.73Z" transform="translate(-0.18)"/><path class="cls-2" d="M248.79,188.52a3.26,3.26,0,1,1,3.25,3.2A3.1,3.1,0,0,1,248.79,188.52Zm5.73,0a2.47,2.47,0,1,0-2.48,2.61A2.45,2.45,0,0,0,254.52,188.52Z" transform="translate(-0.18)"/><path class="cls-2" d="M264.72,186.36l-1.91,5.21h-.7l-2.2-6.09h.79l1.79,5.17,1.9-5.17H265l1.91,5.17,1.79-5.17h.79l-2.2,6.09h-.7Z" transform="translate(-0.18)"/><path class="cls-2" d="M275.17,190.85a3.1,3.1,0,0,1-2.29.87,2.05,2.05,0,1,1,0-4.05,3.07,3.07,0,0,1,2.29.87v-1.23c0-.91-.81-1.4-1.82-1.4a2.73,2.73,0,0,0-2.11.89l-.41-.45a3.47,3.47,0,0,1,2.61-1c1.37,0,2.46.59,2.46,1.95v4.29h-.73Zm0-1.82a2.66,2.66,0,0,0-2-.84c-1.12,0-1.85.64-1.85,1.51s.73,1.5,1.85,1.5a2.65,2.65,0,0,0,2-.83Z" transform="translate(-0.18)"/><path class="cls-2" d="M278.17,185.48h.73v1.05a3,3,0,0,1,2.28-1.18v.72a2.11,2.11,0,0,0-.36,0,2.6,2.6,0,0,0-1.92,1.08v4.44h-.73Z" transform="translate(-0.18)"/><path class="cls-2" d="M290.66,187.31a1.22,1.22,0,0,0-1.36-1.39,2.58,2.58,0,0,0-1.93,1v4.62h-.74v-4.26a1.22,1.22,0,0,0-1.36-1.39,2.65,2.65,0,0,0-1.94,1.05v4.6h-.72v-6.09h.72v.92a3.08,3.08,0,0,1,2.19-1.07,1.68,1.68,0,0,1,1.78,1.15,2.88,2.88,0,0,1,2.24-1.15,1.63,1.63,0,0,1,1.85,1.85v4.39h-.73Z" transform="translate(-0.18)"/><path class="cls-2" d="M301.84,190.67a3.55,3.55,0,0,1-2.43,1.05c-1.39,0-2.13-.58-2.13-1.95v-4.29H298v4.13c0,1.19.65,1.52,1.63,1.52a3,3,0,0,0,2.2-1v-4.64h.73v6.09h-.73Z" transform="translate(-0.18)"/><path class="cls-2" d="M304.84,193.89v-8.41h.73v1a3,3,0,0,1,2.35-1.11,3.2,3.2,0,0,1,0,6.39,3,3,0,0,1-2.35-1.14v3.31Zm3-8a2.83,2.83,0,0,0-2.22,1.08v3a2.82,2.82,0,0,0,2.22,1.11,2.62,2.62,0,0,0,0-5.21Z" transform="translate(-0.18)"/><path class="cls-2" d="M78.24,201a3.13,3.13,0,0,1,2.52,1.08l-.48.53a2.38,2.38,0,0,0-2-.95c-2,0-2.76,1.9-2.76,3.69,0,.13,0,.27,0,.39a3.56,3.56,0,0,1,2.73-1.4c1.68,0,3,.87,3,2.66a2.85,2.85,0,0,1-3.13,2.69c-2.53,0-3.44-2.09-3.44-4.35S75.66,201,78.24,201Zm-.16,4a3.11,3.11,0,0,0-2.55,1.43,2.6,2.6,0,0,0,2.54,2.61,2.15,2.15,0,0,0,2.35-2C80.42,205.67,79.43,205,78.08,205Z" transform="translate(-0.18)"/><path class="cls-2" d="M86.07,206.21h3.37v.61H86.07Z" transform="translate(-0.18)"/><path class="cls-2" d="M94.47,207.89a3.25,3.25,0,0,0,2.62,1.17c1.45,0,2.36-.68,2.36-1.79s-1.11-1.7-2.51-1.7h-.87v-.68c.14,0,.49,0,.87,0,1.23,0,2.37-.48,2.37-1.6s-1-1.63-2.25-1.63a3.29,3.29,0,0,0-2.5,1.07l-.51-.45A4.08,4.08,0,0,1,97.11,201c1.62,0,3,.8,3,2.22a2.15,2.15,0,0,1-2,2,2.25,2.25,0,0,1,2.14,2.09c0,1.39-1.16,2.41-3.15,2.41a3.81,3.81,0,0,1-3.18-1.4Z" transform="translate(-0.18)"/><path class="cls-2" d="M113.91,205.31a1.22,1.22,0,0,0-1.36-1.39,2.58,2.58,0,0,0-1.93,1v4.62h-.74v-4.26a1.22,1.22,0,0,0-1.36-1.39,2.65,2.65,0,0,0-1.94,1.05v4.6h-.72v-6.09h.72v.92a3.08,3.08,0,0,1,2.19-1.07,1.68,1.68,0,0,1,1.78,1.15,2.88,2.88,0,0,1,2.24-1.15,1.63,1.63,0,0,1,1.85,1.85v4.39h-.73Z" transform="translate(-0.18)"/><path class="cls-2" d="M116.71,202a.56.56,0,1,1,.56.5A.54.54,0,0,1,116.71,202Zm.19,1.51h.73v6.09h-.73Z" transform="translate(-0.18)"/><path class="cls-2" d="M124.46,205.45c0-1.18-.65-1.53-1.64-1.53a3,3,0,0,0-2.2,1.05v4.6h-.72v-6.09h.72v.92a3.6,3.6,0,0,1,2.44-1.07c1.38,0,2.13.6,2.13,2v4.26h-.73Z" transform="translate(-0.18)"/><path class="cls-2" d="M132,208.67a3.55,3.55,0,0,1-2.43,1.05c-1.39,0-2.13-.58-2.13-1.95v-4.29h.73v4.13c0,1.19.65,1.52,1.63,1.52a3,3,0,0,0,2.2-1v-4.64h.73v6.09H132Z" transform="translate(-0.18)"/><path class="cls-2" d="M135.16,208.4v-4.34H134v-.58h1.12v-1.66h.74v1.66h1.37v.58H135.9v4.23c0,.5.22.84.7.84a1.15,1.15,0,0,0,.76-.29l.28.5a1.62,1.62,0,0,1-1.15.38A1.19,1.19,0,0,1,135.16,208.4Z" transform="translate(-0.18)"/><path class="cls-2" d="M141.74,203.33a3,3,0,0,1,3.19,3.23v.17h-5.66a2.51,2.51,0,0,0,2.65,2.42,3.13,3.13,0,0,0,2.21-.84l.38.43a3.67,3.67,0,0,1-2.64,1,3.2,3.2,0,1,1-.13-6.39Zm-2.47,2.88h4.92a2.34,2.34,0,0,0-2.47-2.31A2.41,2.41,0,0,0,139.27,206.21Z" transform="translate(-0.18)"/><path class="cls-2" d="M150.43,203.48h.73v1.05a3,3,0,0,1,2.28-1.18v.72a2.06,2.06,0,0,0-.36,0,2.62,2.62,0,0,0-1.92,1.08v4.44h-.73Z" transform="translate(-0.18)"/><path class="cls-2" d="M154.48,206.52a3.26,3.26,0,1,1,3.25,3.2A3.1,3.1,0,0,1,154.48,206.52Zm5.73,0a2.48,2.48,0,1,0-2.48,2.61A2.46,2.46,0,0,0,160.21,206.52Z" transform="translate(-0.18)"/><path class="cls-2" d="M167.43,208.67a3.58,3.58,0,0,1-2.44,1.05c-1.38,0-2.13-.58-2.13-1.95v-4.29h.73v4.13c0,1.19.66,1.52,1.64,1.52a3.05,3.05,0,0,0,2.2-1v-4.64h.73v6.09h-.73Z" transform="translate(-0.18)"/><path class="cls-2" d="M175,205.45c0-1.18-.66-1.53-1.64-1.53a3,3,0,0,0-2.2,1.05v4.6h-.73v-6.09h.73v.92a3.58,3.58,0,0,1,2.44-1.07c1.37,0,2.13.6,2.13,2v4.26H175Z" transform="translate(-0.18)"/><path class="cls-2" d="M183,208.6a3,3,0,0,1-2.35,1.12,3.2,3.2,0,0,1,0-6.39,3,3,0,0,1,2.35,1.13v-3.3h.74v8.41H183Zm0-3.57a2.78,2.78,0,0,0-2.23-1.11,2.62,2.62,0,0,0,0,5.21A2.79,2.79,0,0,0,183,208Z" transform="translate(-0.18)"/><path class="cls-2" d="M185.82,208.27a3,3,0,0,0,2.19.89c1.13,0,1.81-.5,1.81-1.21s-.93-1-1.9-1.23c-1.13-.25-2.38-.52-2.38-1.7,0-.93.89-1.69,2.41-1.69a3.29,3.29,0,0,1,2.43.89l-.41.47a2.58,2.58,0,0,0-2-.81c-1,0-1.69.47-1.69,1.1s.87.88,1.8,1.1c1.17.26,2.47.55,2.47,1.85,0,1-.84,1.79-2.53,1.79a3.46,3.46,0,0,1-2.61-1Z" transform="translate(-0.18)"/><path class="cls-2" d="M195.64,206.52a3.26,3.26,0,1,1,3.25,3.2A3.1,3.1,0,0,1,195.64,206.52Zm5.73,0a2.48,2.48,0,1,0-2.48,2.61A2.46,2.46,0,0,0,201.37,206.52Z" transform="translate(-0.18)"/><path class="cls-2" d="M204.26,204.06h-1.12v-.58h1.12v-.55a1.73,1.73,0,0,1,1.84-1.9,2.09,2.09,0,0,1,.91.19l-.23.52a1.22,1.22,0,0,0-.61-.14c-.77,0-1.18.48-1.18,1.33v.55h1.37v.58H205v5.51h-.73Z" transform="translate(-0.18)"/><path class="cls-2" d="M211.36,201.16h.73v3.3a3,3,0,0,1,2.35-1.13,3.2,3.2,0,1,1-2.35,5.27v1h-.73Zm3,8a2.62,2.62,0,0,0,0-5.21,2.84,2.84,0,0,0-2.23,1.11v3A2.82,2.82,0,0,0,214.32,209.13Z" transform="translate(-0.18)"/><path class="cls-2" d="M219,206.52a3.26,3.26,0,1,1,3.25,3.2A3.1,3.1,0,0,1,219,206.52Zm5.73,0a2.47,2.47,0,1,0-2.48,2.61A2.45,2.45,0,0,0,224.69,206.52Z" transform="translate(-0.18)"/><path class="cls-2" d="M229.07,206.88l-2.25,2.69H226l2.67-3.13-2.52-3H227l2.1,2.51,2.09-2.51H232l-2.52,3,2.67,3.13h-.87Z" transform="translate(-0.18)"/><path class="cls-2" d="M233.35,202a.55.55,0,0,1,.57-.51.51.51,0,1,1,0,1A.55.55,0,0,1,233.35,202Zm.2,1.51h.73v6.09h-.73Z" transform="translate(-0.18)"/><path class="cls-2" d="M241.11,205.45c0-1.18-.65-1.53-1.64-1.53a3,3,0,0,0-2.19,1.05v4.6h-.73v-6.09h.73v.92a3.56,3.56,0,0,1,2.43-1.07c1.37,0,2.13.6,2.13,2v4.26h-.73Z" transform="translate(-0.18)"/><path class="cls-2" d="M244.54,210.61a2.73,2.73,0,0,0,2.24.86c1.23,0,2.31-.55,2.31-1.95v-1a3,3,0,0,1-2.35,1.13,3.18,3.18,0,0,1,0-6.36,3,3,0,0,1,2.35,1.13v-1h.74v6c0,1.87-1.4,2.54-3.05,2.54a3.46,3.46,0,0,1-2.66-.92Zm4.55-5.58a2.8,2.8,0,0,0-2.22-1.11,2.6,2.6,0,0,0,0,5.18,2.8,2.8,0,0,0,2.22-1.11Z" transform="translate(-0.18)"/><path class="cls-2" d="M76.21,220.14l-1.5,1.44-.49-.47,2-2H77v8.41h-.79Z" transform="translate(-0.18)"/><path class="cls-2" d="M82.44,219c2.49,0,3.44,2.34,3.44,4.34s-.95,4.35-3.44,4.35S79,225.36,79,223.37,79.91,219,82.44,219Zm0,.66c-2,0-2.62,1.94-2.62,3.68s.64,3.69,2.62,3.69,2.59-2,2.59-3.69S84.4,219.69,82.44,219.69Z" transform="translate(-0.18)"/><path class="cls-2" d="M99.49,223.31a1.22,1.22,0,0,0-1.36-1.39,2.58,2.58,0,0,0-1.93,1v4.62h-.74v-4.26a1.22,1.22,0,0,0-1.36-1.39A2.65,2.65,0,0,0,92.16,223v4.6h-.72v-6.09h.72v.92a3.08,3.08,0,0,1,2.19-1.07,1.68,1.68,0,0,1,1.78,1.15,2.88,2.88,0,0,1,2.24-1.15,1.63,1.63,0,0,1,1.85,1.85v4.39h-.73Z" transform="translate(-0.18)"/><path class="cls-2" d="M102.29,220a.56.56,0,1,1,.56.5A.54.54,0,0,1,102.29,220Zm.19,1.51h.73v6.09h-.73Z" transform="translate(-0.18)"/><path class="cls-2" d="M110,223.45c0-1.18-.65-1.53-1.64-1.53a3,3,0,0,0-2.19,1.05v4.6h-.73v-6.09h.73v.92a3.56,3.56,0,0,1,2.43-1.07c1.38,0,2.13.6,2.13,2v4.26H110Z" transform="translate(-0.18)"/><path class="cls-2" d="M117.6,226.67a3.55,3.55,0,0,1-2.43,1.05c-1.39,0-2.13-.58-2.13-1.95v-4.29h.73v4.13c0,1.19.65,1.52,1.63,1.52a3,3,0,0,0,2.2-1v-4.64h.73v6.09h-.73Z" transform="translate(-0.18)"/><path class="cls-2" d="M120.74,226.4v-4.34h-1.12v-.58h1.12v-1.66h.74v1.66h1.37v.58h-1.37v4.23c0,.5.22.84.7.84a1.15,1.15,0,0,0,.76-.29l.28.5a1.62,1.62,0,0,1-1.15.38A1.19,1.19,0,0,1,120.74,226.4Z" transform="translate(-0.18)"/><path class="cls-2" d="M127.32,221.33a3,3,0,0,1,3.19,3.23v.17h-5.66a2.51,2.51,0,0,0,2.65,2.42,3.13,3.13,0,0,0,2.21-.84l.38.43a3.67,3.67,0,0,1-2.64,1,3.2,3.2,0,1,1-.13-6.39Zm-2.47,2.88h4.92a2.34,2.34,0,0,0-2.47-2.31A2.41,2.41,0,0,0,124.85,224.21Z" transform="translate(-0.18)"/><path class="cls-2" d="M142.76,223.57h-5.92v4H136v-8.41h.8v3.76h5.92v-3.76h.82v8.41h-.82Z" transform="translate(-0.18)"/><path class="cls-2" d="M145.88,219.16h.8v8.41h-.8Z" transform="translate(-0.18)"/><path class="cls-2" d="M149,219.16h.8v8.41H149Z" transform="translate(-0.18)"/><path class="cls-2" d="M154.51,219.82h-3.06v-.66h6.92v.66h-3.05v7.75h-.81Z" transform="translate(-0.18)"/><path class="cls-2" d="M163.62,221.48h.73v1.05a3,3,0,0,1,2.28-1.18v.72a2.11,2.11,0,0,0-.36,0,2.62,2.62,0,0,0-1.92,1.08v4.44h-.73Z" transform="translate(-0.18)"/><path class="cls-2" d="M167.67,224.52a3.26,3.26,0,1,1,3.25,3.2A3.1,3.1,0,0,1,167.67,224.52Zm5.72,0a2.47,2.47,0,1,0-2.47,2.61A2.45,2.45,0,0,0,173.39,224.52Z" transform="translate(-0.18)"/><path class="cls-2" d="M180.62,226.67a3.58,3.58,0,0,1-2.44,1.05c-1.39,0-2.13-.58-2.13-1.95v-4.29h.73v4.13c0,1.19.66,1.52,1.64,1.52a3.05,3.05,0,0,0,2.2-1v-4.64h.73v6.09h-.73Z" transform="translate(-0.18)"/><path class="cls-2" d="M188.18,223.45c0-1.18-.66-1.53-1.64-1.53a3,3,0,0,0-2.2,1.05v4.6h-.73v-6.09h.73v.92a3.58,3.58,0,0,1,2.44-1.07c1.37,0,2.13.6,2.13,2v4.26h-.73Z" transform="translate(-0.18)"/><path class="cls-2" d="M196.16,226.6a3,3,0,0,1-2.36,1.12,3.2,3.2,0,0,1,0-6.39,3,3,0,0,1,2.36,1.13v-3.3h.74v8.41h-.74Zm0-3.57a2.79,2.79,0,0,0-2.23-1.11,2.62,2.62,0,0,0,0,5.21,2.81,2.81,0,0,0,2.23-1.09Z" transform="translate(-0.18)"/><path class="cls-2" d="M78.24,237a3.13,3.13,0,0,1,2.52,1.08l-.48.53a2.38,2.38,0,0,0-2-.95c-2,0-2.76,1.9-2.76,3.69,0,.13,0,.27,0,.39a3.56,3.56,0,0,1,2.73-1.4c1.68,0,3,.87,3,2.66a2.85,2.85,0,0,1-3.13,2.69c-2.53,0-3.44-2.09-3.44-4.35S75.66,237,78.24,237Zm-.16,4a3.11,3.11,0,0,0-2.55,1.43,2.6,2.6,0,0,0,2.54,2.61,2.15,2.15,0,0,0,2.35-2C80.42,241.67,79.43,241,78.08,241Z" transform="translate(-0.18)"/><path class="cls-2" d="M86.07,242.21h3.37v.61H86.07Z" transform="translate(-0.18)"/><path class="cls-2" d="M94.47,243.89a3.25,3.25,0,0,0,2.62,1.17c1.45,0,2.36-.68,2.36-1.79s-1.11-1.7-2.51-1.7h-.87v-.68c.14,0,.49,0,.87,0,1.23,0,2.37-.48,2.37-1.6s-1-1.63-2.25-1.63a3.29,3.29,0,0,0-2.5,1.07l-.51-.45A4.08,4.08,0,0,1,97.11,237c1.62,0,3,.8,3,2.22a2.15,2.15,0,0,1-2,2,2.25,2.25,0,0,1,2.14,2.09c0,1.39-1.16,2.41-3.15,2.41a3.81,3.81,0,0,1-3.18-1.4Z" transform="translate(-0.18)"/><path class="cls-2" d="M113.91,241.31a1.22,1.22,0,0,0-1.36-1.39,2.58,2.58,0,0,0-1.93,1v4.62h-.74v-4.26a1.22,1.22,0,0,0-1.36-1.39,2.65,2.65,0,0,0-1.94,1.05v4.6h-.72v-6.09h.72v.92a3.08,3.08,0,0,1,2.19-1.07,1.68,1.68,0,0,1,1.78,1.15,2.88,2.88,0,0,1,2.24-1.15,1.63,1.63,0,0,1,1.85,1.85v4.39h-.73Z" transform="translate(-0.18)"/><path class="cls-2" d="M116.71,238a.56.56,0,1,1,.56.5A.54.54,0,0,1,116.71,238Zm.19,1.51h.73v6.09h-.73Z" transform="translate(-0.18)"/><path class="cls-2" d="M124.46,241.45c0-1.18-.65-1.53-1.64-1.53a3,3,0,0,0-2.2,1.05v4.6h-.72v-6.09h.72v.92a3.6,3.6,0,0,1,2.44-1.07c1.38,0,2.13.6,2.13,2v4.26h-.73Z" transform="translate(-0.18)"/><path class="cls-2" d="M132,244.67a3.55,3.55,0,0,1-2.43,1.05c-1.39,0-2.13-.58-2.13-1.95v-4.29h.73v4.13c0,1.19.65,1.52,1.63,1.52a3,3,0,0,0,2.2-1v-4.64h.73v6.09H132Z" transform="translate(-0.18)"/><path class="cls-2" d="M135.16,244.4v-4.34H134v-.58h1.12v-1.66h.74v1.66h1.37v.58H135.9v4.23c0,.5.22.84.7.84a1.15,1.15,0,0,0,.76-.29l.28.5a1.62,1.62,0,0,1-1.15.38A1.19,1.19,0,0,1,135.16,244.4Z" transform="translate(-0.18)"/><path class="cls-2" d="M141.74,239.33a3,3,0,0,1,3.19,3.23v.17h-5.66a2.51,2.51,0,0,0,2.65,2.42,3.13,3.13,0,0,0,2.21-.84l.38.43a3.67,3.67,0,0,1-2.64,1,3.2,3.2,0,1,1-.13-6.39Zm-2.47,2.88h4.92a2.34,2.34,0,0,0-2.47-2.31A2.41,2.41,0,0,0,139.27,242.21Z" transform="translate(-0.18)"/><path class="cls-2" d="M150.43,239.48h.73v1.05a3,3,0,0,1,2.28-1.18v.72a2.06,2.06,0,0,0-.36,0,2.62,2.62,0,0,0-1.92,1.08v4.44h-.73Z" transform="translate(-0.18)"/><path class="cls-2" d="M154.48,242.52a3.26,3.26,0,1,1,3.25,3.2A3.1,3.1,0,0,1,154.48,242.52Zm5.73,0a2.48,2.48,0,1,0-2.48,2.61A2.46,2.46,0,0,0,160.21,242.52Z" transform="translate(-0.18)"/><path class="cls-2" d="M167.43,244.67a3.58,3.58,0,0,1-2.44,1.05c-1.38,0-2.13-.58-2.13-1.95v-4.29h.73v4.13c0,1.19.66,1.52,1.64,1.52a3.05,3.05,0,0,0,2.2-1v-4.64h.73v6.09h-.73Z" transform="translate(-0.18)"/><path class="cls-2" d="M175,241.45c0-1.18-.66-1.53-1.64-1.53a3,3,0,0,0-2.2,1.05v4.6h-.73v-6.09h.73v.92a3.58,3.58,0,0,1,2.44-1.07c1.37,0,2.13.6,2.13,2v4.26H175Z" transform="translate(-0.18)"/><path class="cls-2" d="M183,244.6a3,3,0,0,1-2.35,1.12,3.2,3.2,0,0,1,0-6.39,3,3,0,0,1,2.35,1.13v-3.3h.74v8.41H183Zm0-3.57a2.78,2.78,0,0,0-2.23-1.11,2.62,2.62,0,0,0,0,5.21A2.79,2.79,0,0,0,183,244Z" transform="translate(-0.18)"/><path class="cls-2" d="M185.82,244.27a3,3,0,0,0,2.19.89c1.13,0,1.81-.5,1.81-1.21s-.93-1-1.9-1.23c-1.13-.25-2.38-.52-2.38-1.7,0-.93.89-1.69,2.41-1.69a3.29,3.29,0,0,1,2.43.89l-.41.47a2.58,2.58,0,0,0-2-.81c-1,0-1.69.47-1.69,1.1s.87.88,1.8,1.1c1.17.26,2.47.55,2.47,1.85,0,1-.84,1.79-2.53,1.79a3.46,3.46,0,0,1-2.61-1Z" transform="translate(-0.18)"/><path class="cls-2" d="M195.64,242.52a3.26,3.26,0,1,1,3.25,3.2A3.1,3.1,0,0,1,195.64,242.52Zm5.73,0a2.48,2.48,0,1,0-2.48,2.61A2.46,2.46,0,0,0,201.37,242.52Z" transform="translate(-0.18)"/><path class="cls-2" d="M204.26,240.06h-1.12v-.58h1.12v-.55a1.73,1.73,0,0,1,1.84-1.9,2.09,2.09,0,0,1,.91.19l-.23.52a1.22,1.22,0,0,0-.61-.14c-.77,0-1.18.48-1.18,1.33v.55h1.37v.58H205v5.51h-.73Z" transform="translate(-0.18)"/><path class="cls-2" d="M211.36,237.16h.73v3.3a3,3,0,0,1,2.35-1.13,3.2,3.2,0,1,1-2.35,5.27v1h-.73Zm3,8a2.62,2.62,0,0,0,0-5.21,2.84,2.84,0,0,0-2.23,1.11v3A2.82,2.82,0,0,0,214.32,245.13Z" transform="translate(-0.18)"/><path class="cls-2" d="M219,242.52a3.26,3.26,0,1,1,3.25,3.2A3.1,3.1,0,0,1,219,242.52Zm5.73,0a2.47,2.47,0,1,0-2.48,2.61A2.45,2.45,0,0,0,224.69,242.52Z" transform="translate(-0.18)"/><path class="cls-2" d="M229.07,242.88l-2.25,2.69H226l2.67-3.13-2.52-3H227l2.1,2.51,2.09-2.51H232l-2.52,3,2.67,3.13h-.87Z" transform="translate(-0.18)"/><path class="cls-2" d="M233.35,238a.55.55,0,0,1,.57-.51.51.51,0,1,1,0,1A.55.55,0,0,1,233.35,238Zm.2,1.51h.73v6.09h-.73Z" transform="translate(-0.18)"/><path class="cls-2" d="M241.11,241.45c0-1.18-.65-1.53-1.64-1.53a3,3,0,0,0-2.19,1.05v4.6h-.73v-6.09h.73v.92a3.56,3.56,0,0,1,2.43-1.07c1.37,0,2.13.6,2.13,2v4.26h-.73Z" transform="translate(-0.18)"/><path class="cls-2" d="M244.54,246.61a2.73,2.73,0,0,0,2.24.86c1.23,0,2.31-.55,2.31-1.95v-1a3,3,0,0,1-2.35,1.13,3.18,3.18,0,0,1,0-6.36,3,3,0,0,1,2.35,1.13v-1h.74v6c0,1.87-1.4,2.54-3.05,2.54a3.46,3.46,0,0,1-2.66-.92Zm4.55-5.58a2.8,2.8,0,0,0-2.22-1.11,2.6,2.6,0,0,0,0,5.18,2.8,2.8,0,0,0,2.22-1.11Z" transform="translate(-0.18)"/><path class="cls-2" d="M76.21,256.14l-1.5,1.44-.49-.47,2-2H77v8.41h-.79Z" transform="translate(-0.18)"/><path class="cls-2" d="M82.44,255c2.49,0,3.44,2.33,3.44,4.33s-.95,4.35-3.44,4.35S79,261.36,79,259.37,79.91,255,82.44,255Zm0,.65c-2,0-2.62,1.94-2.62,3.68s.64,3.69,2.62,3.69,2.59-2,2.59-3.69S84.4,255.69,82.44,255.69Z" transform="translate(-0.18)"/><path class="cls-2" d="M99.49,259.31a1.22,1.22,0,0,0-1.36-1.39,2.55,2.55,0,0,0-1.93,1v4.61h-.74v-4.26a1.22,1.22,0,0,0-1.36-1.39A2.65,2.65,0,0,0,92.16,259v4.6h-.72v-6.09h.72v.92a3.08,3.08,0,0,1,2.19-1.07,1.68,1.68,0,0,1,1.78,1.15,2.88,2.88,0,0,1,2.24-1.15,1.63,1.63,0,0,1,1.85,1.85v4.39h-.73Z" transform="translate(-0.18)"/><path class="cls-2" d="M102.29,256a.56.56,0,0,1,1.12,0,.56.56,0,0,1-1.12,0Zm.19,1.51h.73v6.09h-.73Z" transform="translate(-0.18)"/><path class="cls-2" d="M110,259.45c0-1.18-.65-1.53-1.64-1.53a3,3,0,0,0-2.19,1.05v4.6h-.73v-6.09h.73v.92a3.56,3.56,0,0,1,2.43-1.07c1.38,0,2.13.6,2.13,2v4.26H110Z" transform="translate(-0.18)"/><path class="cls-2" d="M117.6,262.67a3.55,3.55,0,0,1-2.43,1.05c-1.39,0-2.13-.58-2.13-2v-4.29h.73v4.13c0,1.19.65,1.52,1.63,1.52a3,3,0,0,0,2.2-1v-4.64h.73v6.09h-.73Z" transform="translate(-0.18)"/><path class="cls-2" d="M120.74,262.4v-4.34h-1.12v-.58h1.12v-1.66h.74v1.66h1.37v.58h-1.37v4.23c0,.5.22.84.7.84a1.15,1.15,0,0,0,.76-.29l.28.5a1.62,1.62,0,0,1-1.15.38A1.19,1.19,0,0,1,120.74,262.4Z" transform="translate(-0.18)"/><path class="cls-2" d="M127.32,257.33a3,3,0,0,1,3.19,3.23v.17h-5.66a2.51,2.51,0,0,0,2.65,2.42,3.13,3.13,0,0,0,2.21-.84l.38.43a3.67,3.67,0,0,1-2.64,1,3.2,3.2,0,1,1-.13-6.39Zm-2.47,2.88h4.92a2.34,2.34,0,0,0-2.47-2.31A2.41,2.41,0,0,0,124.85,260.21Z" transform="translate(-0.18)"/><path class="cls-2" d="M138.91,257.33a2.94,2.94,0,0,1,2.4,1l-.51.41a2.21,2.21,0,0,0-1.85-.85,2.61,2.61,0,0,0,0,5.21,2.24,2.24,0,0,0,1.85-.86l.51.4a2.89,2.89,0,0,1-2.4,1.05,3.2,3.2,0,1,1,0-6.39Z" transform="translate(-0.18)"/><path class="cls-2" d="M142.54,260.52a3.26,3.26,0,1,1,3.25,3.2A3.1,3.1,0,0,1,142.54,260.52Zm5.72,0a2.47,2.47,0,1,0-2.47,2.61A2.45,2.45,0,0,0,148.26,260.52Z" transform="translate(-0.18)"/><path class="cls-2" d="M150.92,257.48h.73v1a3,3,0,0,1,2.28-1.18v.72a2.06,2.06,0,0,0-.36,0,2.62,2.62,0,0,0-1.92,1.08v4.44h-.73Z" transform="translate(-0.18)"/><path class="cls-2" d="M158.23,257.33a3,3,0,0,1,3.19,3.23v.17h-5.65a2.51,2.51,0,0,0,2.64,2.42,3.17,3.17,0,0,0,2.22-.84l.37.43a3.67,3.67,0,0,1-2.64,1,3.2,3.2,0,1,1-.13-6.39Zm-2.46,2.88h4.91a2.33,2.33,0,0,0-2.46-2.31A2.4,2.4,0,0,0,155.77,260.21Z" transform="translate(-0.18)"/><path class="cls-2" d="M171.22,262.85a3.1,3.1,0,0,1-2.29.87,2.05,2.05,0,1,1,0-4.05,3.07,3.07,0,0,1,2.29.87v-1.23c0-.91-.81-1.4-1.82-1.4a2.73,2.73,0,0,0-2.11.89l-.41-.45a3.47,3.47,0,0,1,2.61-1c1.37,0,2.46.59,2.46,1.95v4.29h-.73Zm0-1.82a2.66,2.66,0,0,0-2-.84c-1.12,0-1.85.64-1.85,1.51s.73,1.5,1.85,1.5a2.65,2.65,0,0,0,2-.83Z" transform="translate(-0.18)"/><path class="cls-2" d="M178.78,259.45c0-1.18-.65-1.53-1.64-1.53A3,3,0,0,0,175,259v4.6h-.73v-6.09H175v.92a3.56,3.56,0,0,1,2.43-1.07c1.38,0,2.13.6,2.13,2v4.26h-.73Z" transform="translate(-0.18)"/><path class="cls-2" d="M186.76,262.6a3.2,3.2,0,1,1,0-4.14v-3.3h.75v8.41h-.75Zm0-3.57a2.77,2.77,0,0,0-2.22-1.11,2.62,2.62,0,0,0,0,5.21,2.79,2.79,0,0,0,2.22-1.09Z" transform="translate(-0.18)"/><path class="cls-2" d="M193.64,258.06h-1.13v-.58h1.13v-.55a1.71,1.71,0,0,1,1.83-1.89,2,2,0,0,1,.91.18l-.22.52a1.24,1.24,0,0,0-.62-.14c-.77,0-1.18.48-1.18,1.33v.55h1.38v.58h-1.38v5.51h-.72Zm3.47-2.9h.73v8.41h-.73Z" transform="translate(-0.18)"/><path class="cls-2" d="M203,257.33a3.05,3.05,0,0,1,3.19,3.23v.17h-5.66a2.51,2.51,0,0,0,2.65,2.42,3.15,3.15,0,0,0,2.21-.84l.38.43a3.69,3.69,0,0,1-2.65,1,3.2,3.2,0,1,1-.12-6.39Zm-2.47,2.88h4.92A2.34,2.34,0,0,0,203,257.9,2.41,2.41,0,0,0,200.51,260.21Z" transform="translate(-0.18)"/><path class="cls-2" d="M209.91,260.88l-2.26,2.69h-.87l2.68-3.13-2.52-3h.86l2.11,2.51,2.08-2.51h.87l-2.52,3,2.67,3.13h-.86Z" transform="translate(-0.18)"/><path class="cls-2" d="M214.19,256a.54.54,0,0,1,.56-.51.54.54,0,0,1,.56.51.53.53,0,0,1-.56.5A.54.54,0,0,1,214.19,256Zm.19,1.51h.73v6.09h-.73Z" transform="translate(-0.18)"/><path class="cls-2" d="M217.38,255.16h.73v3.3a3,3,0,0,1,2.35-1.13,3.2,3.2,0,1,1-2.35,5.27v1h-.73Zm3,8a2.62,2.62,0,0,0,0-5.21,2.83,2.83,0,0,0-2.22,1.11v3A2.82,2.82,0,0,0,220.33,263.13Z" transform="translate(-0.18)"/><path class="cls-2" d="M225.18,256a.54.54,0,0,1,.56-.51.54.54,0,0,1,.56.51.53.53,0,0,1-.56.5A.54.54,0,0,1,225.18,256Zm.19,1.51h.73v6.09h-.73Z" transform="translate(-0.18)"/><path class="cls-2" d="M228.37,255.16h.73v8.41h-.73Z" transform="translate(-0.18)"/><path class="cls-2" d="M231.17,256a.55.55,0,0,1,.56-.51.54.54,0,0,1,.56.51.53.53,0,0,1-.56.5A.54.54,0,0,1,231.17,256Zm.2,1.51h.72v6.09h-.72Z" transform="translate(-0.18)"/><path class="cls-2" d="M234.5,262.4v-4.34h-1.12v-.58h1.12v-1.66h.75v1.66h1.37v.58h-1.37v4.23c0,.5.22.84.7.84a1.1,1.1,0,0,0,.75-.29l.28.5a1.6,1.6,0,0,1-1.15.38A1.19,1.19,0,0,1,234.5,262.4Z" transform="translate(-0.18)"/><path class="cls-2" d="M238.48,265.45c.45,0,.75-.17,1-.75l.53-1.08-2.86-6.14H238l2.46,5.32,2.44-5.32h.83l-3.51,7.42a1.78,1.78,0,0,1-1.73,1.14,3.22,3.22,0,0,1-.72-.09l.13-.61A1.67,1.67,0,0,0,238.48,265.45Z" transform="translate(-0.18)"/><path class="cls-2" d="M251.47,257.33a2.94,2.94,0,0,1,2.4,1l-.51.41a2.22,2.22,0,0,0-1.85-.85,2.61,2.61,0,0,0,0,5.21,2.26,2.26,0,0,0,1.85-.86l.51.4a2.89,2.89,0,0,1-2.4,1.05,3.2,3.2,0,1,1,0-6.39Z" transform="translate(-0.18)"/><path class="cls-2" d="M255.09,260.52a3.26,3.26,0,1,1,3.25,3.2A3.1,3.1,0,0,1,255.09,260.52Zm5.73,0a2.47,2.47,0,1,0-2.48,2.61A2.45,2.45,0,0,0,260.82,260.52Z" transform="translate(-0.18)"/><path class="cls-2" d="M263.09,260.52a3.26,3.26,0,1,1,3.25,3.2A3.1,3.1,0,0,1,263.09,260.52Zm5.73,0a2.48,2.48,0,1,0-2.48,2.61A2.45,2.45,0,0,0,268.82,260.52Z" transform="translate(-0.18)"/><path class="cls-2" d="M271.48,255.16h.72v8.41h-.72Z" transform="translate(-0.18)"/><path class="cls-2" d="M279.46,262.6a3,3,0,0,1-2.36,1.12,3.2,3.2,0,0,1,0-6.39,3,3,0,0,1,2.36,1.13v-3.3h.74v8.41h-.74Zm0-3.57a2.79,2.79,0,0,0-2.23-1.11,2.62,2.62,0,0,0,0,5.21,2.81,2.81,0,0,0,2.23-1.09Z" transform="translate(-0.18)"/><path class="cls-2" d="M282.07,260.52a3.26,3.26,0,1,1,3.25,3.2A3.1,3.1,0,0,1,282.07,260.52Zm5.73,0a2.47,2.47,0,1,0-2.48,2.61A2.45,2.45,0,0,0,287.8,260.52Z" transform="translate(-0.18)"/><path class="cls-2" d="M294.37,258.36l-1.91,5.21h-.7l-2.2-6.09h.79l1.79,5.17,1.91-5.17h.63l1.9,5.17,1.79-5.17h.79l-2.2,6.09h-.7Z" transform="translate(-0.18)"/><path class="cls-2" d="M305.09,259.45c0-1.18-.66-1.53-1.64-1.53a3,3,0,0,0-2.2,1.05v4.6h-.72v-6.09h.72v.92a3.58,3.58,0,0,1,2.44-1.07c1.37,0,2.13.6,2.13,2v4.26h-.73Z" transform="translate(-0.18)"/><path class="cls-2" d="M152.13,160.36a3.77,3.77,0,0,0,2.22.58c1.36,0,2.62-.77,2.62-2.09v0a3.72,3.72,0,0,1-2.79,1.1c-2.16,0-4.25-1.21-4.25-3.51s2.15-3.89,5-3.89c4,0,5.73,2.41,5.73,5.57,0,3.61-2.58,5.59-6.3,5.59a7.49,7.49,0,0,1-3.75-.94Zm3-5.1c-.93,0-1.45.47-1.45,1,0,.77.86,1,1.67,1a3.16,3.16,0,0,0,1.69-.44A1.72,1.72,0,0,0,155.08,155.26Z" transform="translate(-0.18)"/><path class="cls-2" d="M166.62,152.53c3.59,0,5.33,2.64,5.33,5.58s-1.74,5.59-5.33,5.59-5.33-2.66-5.33-5.59S163,152.53,166.62,152.53Zm0,2.89c-1.15,0-1.67.86-1.67,2.69s.52,2.7,1.67,2.7,1.68-.87,1.68-2.7S167.77,155.42,166.62,155.42Z" transform="translate(-0.18)"/><path class="cls-2" d="M188.87,158.93c0-.47-.27-.87-1-.87a1.75,1.75,0,0,0-1.33.61v4.83h-3.24v-4.57c0-.47-.25-.87-1-.87a1.78,1.78,0,0,0-1.32.61v4.83h-3.24v-7.82H181v.89a4.09,4.09,0,0,1,2.88-1.09,2.41,2.41,0,0,1,2.51,1.38,3.88,3.88,0,0,1,3-1.38c1.6,0,2.68.73,2.68,2.35v5.67h-3.24Z" transform="translate(-0.18)"/><path class="cls-2" d="M193.71,153.47a1.83,1.83,0,1,1,1.82,1.64A1.73,1.73,0,0,1,193.71,153.47Zm.2,2.21h3.24v7.82h-3.24Z" transform="translate(-0.18)"/><path class="cls-2" d="M204.84,159.18c0-.81-.49-1.12-1.26-1.12a1.8,1.8,0,0,0-1.39.61v4.83H199v-7.82h3.24v.89a4,4,0,0,1,3-1.09c2,0,2.9,1.1,2.9,2.47v5.55h-3.24Z" transform="translate(-0.18)"/><line class="cls-3" x1="141.77" y1="158.5" x2="45.26" y2="158.5"/><line class="cls-3" x1="314.74" y1="158.5" x2="218.23" y2="158.5"/><circle class="cls-2" cx="57.49" cy="187.44" r="2.75"/><circle class="cls-2" cx="57.49" cy="205.69" r="2.75"/><circle class="cls-2" cx="57.49" cy="223.94" r="2.75"/><circle class="cls-2" cx="57.49" cy="241.19" r="2.75"/><circle class="cls-2" cx="57.49" cy="259.44" r="2.75"/></svg>