<svg id="Layer_1" data-name="Layer 1" xmlns="http://www.w3.org/2000/svg" viewBox="0 0 360 288"><defs><style>.cls-1{font-size:30px;}.cls-1,.cls-6{fill:#fe0000;}.cls-1,.cls-4{font-family:ProximaNova-Black, Proxima Nova;}.cls-2{font-size:14px;font-family:ProximaNova-Light, Proxima Nova;}.cls-2,.cls-4{fill:#595a5c;}.cls-3{letter-spacing:-0.04em;}.cls-4{font-size:18px;}.cls-5{fill:none;stroke:#fe0000;stroke-miterlimit:10;}.cls-7{fill:#fff;}</style></defs><title>Lightweight</title><text class="cls-1" transform="translate(77.34 129.76) scale(1 0.9)">LIGHTWEIGHT</text><text class="cls-2" transform="translate(73.46 207.85) scale(1 0.9)">5 minute cardio warm-up<tspan x="0" y="20">5 - 3 minute rounds of b</tspan><tspan class="cls-3" x="144.34" y="20">o</tspan><tspan x="151.83" y="20">xing</tspan><tspan x="0" y="40">5 minute cooldown</tspan></text><text class="cls-4" transform="translate(149.54 163.5) scale(1 0.9)">30 min</text><line class="cls-5" x1="141.77" y1="158.5" x2="45.26" y2="158.5"/><line class="cls-5" x1="314.74" y1="158.5" x2="218.23" y2="158.5"/><path class="cls-6" d="M211.79,25l1.54,1.73c1-.7,2-1.4,2.95-2.06a10.57,10.57,0,0,1,2.6-1.59,2.92,2.92,0,0,1,2.44.28,3,3,0,0,1,.59,2.58,27.59,27.59,0,0,1-2.18,4.3c2,3.44,1.87,5.27-.74,8.17,1.51,3,1.37,3.92-1.21,6.24a15.45,15.45,0,0,1-2.8,2A25.07,25.07,0,0,1,211.92,48c.76,3-1.42,4.38-3.31,5.85,1.07,2.3.4,3.56-2.19,4.72a4.6,4.6,0,0,0-1.94,1.74c-1.44,2.46-5.26,4-8.83,3.34l-2.08-.43c-.11,1.25-.23,2.37-.3,3.5-.18,2.77-1.44,5.08-4.08,5.71-3.06.72-6.31.66-9.46,1a15.23,15.23,0,0,0-4.41.79,24.77,24.77,0,0,0-5.75,3.44c-4.62,3.85-9.8,4.64-15.37,3.08a96.32,96.32,0,0,1-11-3.85c-2.55-1-3.36-2.75-2.88-4.6.53-2,2.32-3.1,5-3a10.34,10.34,0,0,1,2.68.26c3,.94,5.21-.23,7.37-2.1,4.4-3.83,8.85-7.6,13.28-11.39.29-.25.56-.53.83-.81,2.52-2.59,2.53-2.64.91-5.94-3.38-6.89-.93-14,6.2-16.78a72.21,72.21,0,0,1,13-3.42c5.77-1,10.5-4,15.12-7.25,1.83-1.29,3.54-2.76,5.35-4.07,1-.73,2.15-1.68,3.47-.64s1.13,2.5.51,3.85S212.59,23.55,211.79,25ZM158.55,79.25a12.45,12.45,0,0,0,8.78-2.59c1.73-1.21,3.57-2.27,5.26-3.53a2.86,2.86,0,0,0,1.08-1.93c.11-4-3.11-8.53-7.06-9.85a2.68,2.68,0,0,0-2.13.59c-2.83,2.42-5.55,5-8.33,7.42a8.64,8.64,0,0,1-8.69,2.19,4.73,4.73,0,0,0-2.47-.12,13.27,13.27,0,0,0-2.66,1.34c.56.77.95,1.87,1.71,2.24A37,37,0,0,0,158.55,79.25ZM220,25.38,219.6,25l-2,1.33c-6.79,4.7-13.7,9-22.26,9.84a70.31,70.31,0,0,0-12,2.6c-3.05.85-4.72,3.16-5.66,6.26-1.32,4.36,1.16,7.85,2.27,11.64.12.41,1.16.63,1.8.72a1.9,1.9,0,0,0,.56-1.36,10.18,10.18,0,0,0-1.05-2.54c-.44-.83-1.25-1.54-1.45-2.41a7.7,7.7,0,0,1,4.56-8.82A44.77,44.77,0,0,1,193,39.76c7.09-1.13,14-2.58,20.12-6.63C216.15,31.15,218.73,28.84,220,25.38ZM175.64,50.64c-.4-.66-.75-1.15-1-1.69a8.36,8.36,0,0,1-1.08-2.39c-.58-4.15,1.05-7.24,5-8.78a63.38,63.38,0,0,1,9.71-3c7.51-1.63,14.57-4.14,20.32-9.48a10.78,10.78,0,0,0,3.6-6.26,9.49,9.49,0,0,0-2.25,1.43c-.71.56-1.39,1.14-2.1,1.68-6.5,5-13.54,8.73-21.86,9.78a44.14,44.14,0,0,0-8,2.12,9.29,9.29,0,0,0-6.87,8.16c-.39,2.77.62,5,1.62,7.37C173.23,50.84,174,51.21,175.64,50.64Zm7.12,20.81v0c.71,0,1.42,0,2.12,0,4.61-.28,6.24-2,6.46-6.6.07-1.46-.08-2.77-1.47-3.43a21,21,0,0,0-4.79-1.79c-3.7-.76-7.25-.43-10,2.53a2,2,0,0,0-.26,1.7c.5,1.31,1.27,2.51,1.82,3.8.47,1.12.44,2.81,1.24,3.33,1,.66,2.6.38,3.94.49C182.12,71.47,182.44,71.45,182.76,71.45ZM198.48,42l.47.64a42.63,42.63,0,0,0,13.79-3,20.62,20.62,0,0,0,5-3.13,5,5,0,0,0,1.19-2.64,1.81,1.81,0,0,0-.62-1.45c-.17-.15-.95.17-1.3.45a41.19,41.19,0,0,1-16.77,7.74C199.59,40.79,199.07,41.53,198.48,42Zm1.92,5.65c4.19-.77,8.31-1.32,12.3-2.34,1.62-.42,3-1.79,4.43-2.89,1.07-.85,1.06-1.81-.33-2.5-5.21,3.22-11.13,4-17,4.89Zm-3.09-2.37a39.37,39.37,0,0,1-4.09.79c-3.13.26-6.27.47-9.41.56-1.58,0-2,.69-1.65,2.3,1.43,0,2.84.07,4.23,0,3.2-.19,6.41-.3,9.57-.74C198.08,47.88,198.35,46.92,197.31,45.28Zm-15,5.79-.22.54c1,.62,2,1.68,3.07,1.76a82.61,82.61,0,0,0,9,0,5.87,5.87,0,0,0,2.53-.77c.37-.2.75-1.11.59-1.38a1.93,1.93,0,0,0-1.47-.78c-3.91.1-7.82.3-11.72.47C183.48,51,182.88,51,182.27,51.07Zm17.51,1.36a36.71,36.71,0,0,0,6.47-.11A7.54,7.54,0,0,0,209.64,50c.54-.51.56-1.67-.67-1.56-3.28.29-6.54.75-9.85,1.15Zm-28.16,8c1.61-1.14,3.14-2.17,4.61-3.29.48-.36,1.18-1.05,1.09-1.42a4.27,4.27,0,0,0-1.4-2.52,2.78,2.78,0,0,0-2.53.55c-1.55,1.48-2.86,3.22-4.34,4.95Zm17.69-4.8v-.06c-1.28,0-2.57-.06-3.84,0-.36,0-1,.5-1,.78a1.33,1.33,0,0,0,.76,1,52.62,52.62,0,0,0,6.2,1.21,3.85,3.85,0,0,0,2.2-.9,1.41,1.41,0,0,0,.44-1.29,1.53,1.53,0,0,0-1.14-.79C191.75,55.51,190.53,55.58,189.31,55.58Zm-4.5-11.25.07.48c3.27-.32,6.56-.51,9.79-1,.83-.13,1.49-1.27,2.23-2l-.37-.52A32.44,32.44,0,0,0,184.81,44.33Zm11.46,11.32c2.26,1.84,9.55,1.54,10.76-.44C204.88,54,197.6,54.29,196.27,55.65Zm-2.65,5c3.18,1.77,7.15,1.16,9-1.67C199.37,59.17,196,56.86,193.62,60.69Zm9.19-28.08,8.74-4.75C210.11,27,205.94,29.27,202.81,32.61Z"/><circle class="cls-7" cx="58.1" cy="203.76" r="2.75"/><circle class="cls-7" cx="58.1" cy="222.01" r="2.75"/><circle class="cls-7" cx="58.1" cy="240.26" r="2.75"/></svg>