<?xml version="1.0" encoding="utf-8"?>
<!-- Generator: Adobe Illustrator 22.0.1, SVG Export Plug-In . SVG Version: 6.00 Build 0)  -->
<svg version="1.1" id="Layer_1" xmlns="http://www.w3.org/2000/svg" xmlns:xlink="http://www.w3.org/1999/xlink" x="0px" y="0px"
	 viewBox="0 0 360 288" style="enable-background:new 0 0 360 288;" xml:space="preserve">
<style type="text/css">
	.st0{fill:#fe0000;}
	.st1{fill:#FFFFFF;}
	.st2{fill:none;stroke:#FFFFFF;stroke-miterlimit:10;}
</style>
<rect class="st0" width="360" height="288"/>
<g>
	<path class="st1" d="M79,111.8H85V125h7.6v4.8H79V111.8z"/>
	<path class="st1" d="M95,111.8h6.1v18H95V111.8z"/>
	<path class="st1" d="M114.3,111.5c4.6,0,7.4,2.1,8.8,4.4l-5.1,2.3c-0.7-1.1-2-2-3.7-2c-2.9,0-4.9,2-4.9,4.5s1.9,4.5,4.9,4.5
		c1.3,0,2.5-0.3,3.3-0.8v-0.8h-3.9v-4.5h9.7v7.2c-2.2,2.2-5.2,3.6-9.1,3.6c-6.1,0-11-3.6-11-9.3C103.3,115,108.2,111.5,114.3,111.5z
		"/>
	<path class="st1" d="M139.3,122.9h-7.2v6.9h-6.1v-18h6.1v6.4h7.2v-6.4h6.1v18h-6.1V122.9z"/>
	<path class="st1" d="M152.9,116.5h-5.4v-4.8h16.8v4.8H159v13.3h-6.1V116.5z"/>
	<path class="st1" d="M179.2,119.6l-2.6,10.2h-6.4l-5.7-18h6.8l2.6,11l3-11h4.6l3,11l2.5-11h6.8l-5.7,18h-6.4L179.2,119.6z"/>
	<path class="st1" d="M195.1,111.8h15.2v4.5h-9.1v2.1h8.9v4.5h-8.9v2.3h9.1v4.5h-15.2V111.8z"/>
	<path class="st1" d="M213,111.8h6.1v18H213V111.8z"/>
	<path class="st1" d="M232.2,111.5c4.6,0,7.4,2.1,8.8,4.4l-5.1,2.3c-0.7-1.1-2-2-3.7-2c-2.9,0-4.9,2-4.9,4.5s2,4.5,4.9,4.5
		c1.3,0,2.5-0.3,3.3-0.8v-0.8h-3.9v-4.5h9.8v7.2c-2.2,2.2-5.2,3.6-9.1,3.6c-6.1,0-11-3.6-11-9.3C221.2,115,226.2,111.5,232.2,111.5z
		"/>
	<path class="st1" d="M257.3,122.9h-7.2v6.9h-6.1v-18h6.1v6.4h7.2v-6.4h6.1v18h-6.1V122.9z"/>
	<path class="st1" d="M270.9,116.5h-5.4v-4.8h16.8v4.8H277v13.3h-6.1V116.5z"/>
</g>
<g>
	<path class="st1" d="M75,206.1c0.6,0.8,1.4,1.2,2.6,1.2c1.3,0,2.3-0.9,2.3-2c0-1.3-1-2.1-2.3-2.1c-0.9,0-1.6,0.3-2.3,0.8l-0.6-0.2
		v-4.4h5.4v0.7h-4.6v3.3c0.5-0.4,1.3-0.8,2.2-0.8c1.6,0,3,0.9,3,2.7c0,1.7-1.4,2.7-3.2,2.7c-1.6,0-2.5-0.5-3.2-1.4L75,206.1z"/>
	<path class="st1" d="M94.4,203.6c0-0.9-0.4-1.4-1.4-1.4c-0.7,0-1.6,0.5-1.9,1v4.6h-0.7v-4.3c0-0.9-0.4-1.4-1.4-1.4
		c-0.7,0-1.5,0.5-1.9,1v4.6h-0.7v-6.1h0.7v0.9c0.3-0.4,1.2-1.1,2.2-1.1c1.1,0,1.6,0.6,1.8,1.1c0.4-0.6,1.3-1.1,2.2-1.1
		c1.2,0,1.8,0.6,1.8,1.9v4.4h-0.7V203.6z"/>
	<path class="st1" d="M97.2,200.3c0-0.3,0.3-0.5,0.6-0.5c0.3,0,0.6,0.2,0.6,0.5s-0.3,0.5-0.6,0.5C97.5,200.8,97.2,200.5,97.2,200.3z
		 M97.4,201.8h0.7v6.1h-0.7V201.8z"/>
	<path class="st1" d="M105,203.7c0-1.2-0.7-1.5-1.6-1.5c-0.9,0-1.8,0.5-2.2,1v4.6h-0.7v-6.1h0.7v0.9c0.5-0.5,1.5-1.1,2.4-1.1
		c1.4,0,2.1,0.6,2.1,2v4.3H105V203.7z"/>
	<path class="st1" d="M112.5,207c-0.6,0.6-1.5,1-2.4,1c-1.4,0-2.1-0.6-2.1-2v-4.3h0.7v4.1c0,1.2,0.7,1.5,1.6,1.5
		c0.9,0,1.8-0.5,2.2-1v-4.6h0.7v6.1h-0.7V207z"/>
	<path class="st1" d="M115.7,206.7v-4.3h-1.1v-0.6h1.1v-1.7h0.7v1.7h1.4v0.6h-1.4v4.2c0,0.5,0.2,0.8,0.7,0.8c0.3,0,0.6-0.1,0.8-0.3
		l0.3,0.5c-0.3,0.2-0.6,0.4-1.1,0.4C116.1,208,115.7,207.5,115.7,206.7z"/>
	<path class="st1" d="M122.3,201.6c2.1,0,3.2,1.5,3.2,3.2v0.2h-5.7c0.1,1.3,1.1,2.4,2.6,2.4c0.9,0,1.6-0.3,2.2-0.8l0.4,0.4
		c-0.7,0.6-1.5,1-2.6,1c-2,0-3.4-1.3-3.4-3.2C119,203,120.4,201.6,122.3,201.6z M119.8,204.5h4.9c0-1-0.8-2.3-2.5-2.3
		C120.6,202.2,119.8,203.4,119.8,204.5z"/>
	<path class="st1" d="M133.8,201.6c1.2,0,1.8,0.4,2.4,1l-0.5,0.4c-0.5-0.6-1.1-0.8-1.8-0.8c-1.6,0-2.5,1.1-2.5,2.6
		c0,1.5,1,2.6,2.5,2.6c0.7,0,1.4-0.3,1.8-0.9l0.5,0.4c-0.5,0.6-1.2,1-2.4,1c-2,0-3.3-1.4-3.3-3.2C130.6,203,131.9,201.6,133.8,201.6
		z"/>
	<path class="st1" d="M142.2,207.1c-0.6,0.6-1.4,0.9-2.3,0.9c-1.2,0-2.4-0.7-2.4-2c0-1.3,1.2-2,2.4-2c0.9,0,1.7,0.3,2.3,0.9v-1.2
		c0-0.9-0.8-1.4-1.8-1.4c-0.8,0-1.5,0.3-2.1,0.9l-0.4-0.5c0.7-0.7,1.5-1,2.6-1c1.4,0,2.5,0.6,2.5,2v4.3h-0.7V207.1z M142.2,205.3
		c-0.5-0.6-1.2-0.8-2-0.8c-1.1,0-1.8,0.6-1.8,1.5c0,0.9,0.7,1.5,1.8,1.5c0.8,0,1.6-0.3,2-0.8V205.3z"/>
	<path class="st1" d="M145.2,201.8h0.7v1c0.6-0.7,1.3-1.2,2.3-1.2v0.7c-0.1,0-0.2,0-0.4,0c-0.7,0-1.6,0.6-1.9,1.1v4.4h-0.7V201.8z"
		/>
	<path class="st1" d="M154.6,206.9c-0.5,0.6-1.3,1.1-2.4,1.1c-1.8,0-3-1.2-3-3.2c0-1.9,1.2-3.2,3-3.2c1,0,1.8,0.4,2.4,1.1v-3.3h0.7
		v8.4h-0.7V206.9z M154.6,203.3c-0.4-0.6-1.3-1.1-2.2-1.1c-1.5,0-2.4,1.1-2.4,2.6s0.9,2.6,2.4,2.6c1,0,1.8-0.5,2.2-1.1V203.3z"/>
	<path class="st1" d="M157.4,200.3c0-0.3,0.3-0.5,0.6-0.5c0.3,0,0.6,0.2,0.6,0.5s-0.3,0.5-0.6,0.5
		C157.7,200.8,157.4,200.5,157.4,200.3z M157.6,201.8h0.7v6.1h-0.7V201.8z"/>
	<path class="st1" d="M160.2,204.8c0-1.8,1.3-3.2,3.2-3.2c2,0,3.3,1.4,3.3,3.2c0,1.8-1.3,3.2-3.3,3.2
		C161.5,208,160.2,206.6,160.2,204.8z M165.9,204.8c0-1.3-0.9-2.6-2.5-2.6c-1.6,0-2.5,1.2-2.5,2.6c0,1.4,0.9,2.6,2.5,2.6
		C165,207.4,165.9,206.2,165.9,204.8z"/>
	<path class="st1" d="M176.1,202.6l-1.9,5.2h-0.7l-2.2-6.1h0.8l1.8,5.2l1.9-5.2h0.6l1.9,5.2l1.8-5.2h0.8l-2.2,6.1H178L176.1,202.6z"
		/>
	<path class="st1" d="M186.6,207.1c-0.6,0.6-1.4,0.9-2.3,0.9c-1.2,0-2.4-0.7-2.4-2c0-1.3,1.2-2,2.4-2c0.9,0,1.7,0.3,2.3,0.9v-1.2
		c0-0.9-0.8-1.4-1.8-1.4c-0.8,0-1.5,0.3-2.1,0.9l-0.4-0.5c0.7-0.7,1.5-1,2.6-1c1.4,0,2.5,0.6,2.5,2v4.3h-0.7V207.1z M186.6,205.3
		c-0.5-0.6-1.2-0.8-2-0.8c-1.1,0-1.8,0.6-1.8,1.5c0,0.9,0.7,1.5,1.8,1.5c0.8,0,1.6-0.3,2-0.8V205.3z"/>
	<path class="st1" d="M189.6,201.8h0.7v1c0.6-0.7,1.3-1.2,2.3-1.2v0.7c-0.1,0-0.2,0-0.4,0c-0.7,0-1.6,0.6-1.9,1.1v4.4h-0.7V201.8z"
		/>
	<path class="st1" d="M202.1,203.6c0-0.9-0.4-1.4-1.4-1.4c-0.7,0-1.6,0.5-1.9,1v4.6H198v-4.3c0-0.9-0.4-1.4-1.4-1.4
		c-0.7,0-1.5,0.5-1.9,1v4.6H194v-6.1h0.7v0.9c0.3-0.4,1.2-1.1,2.2-1.1c1.1,0,1.6,0.6,1.8,1.1c0.4-0.6,1.3-1.1,2.2-1.1
		c1.2,0,1.8,0.6,1.8,1.9v4.4h-0.7V203.6z"/>
	<path class="st1" d="M204.3,204.5h3.4v0.6h-3.4V204.5z"/>
	<path class="st1" d="M213.8,207c-0.6,0.6-1.5,1-2.4,1c-1.4,0-2.1-0.6-2.1-2v-4.3h0.7v4.1c0,1.2,0.7,1.5,1.6,1.5
		c0.9,0,1.8-0.5,2.2-1v-4.6h0.7v6.1h-0.7V207z"/>
	<path class="st1" d="M216.8,210.2v-8.4h0.7v1c0.5-0.6,1.3-1.1,2.4-1.1c1.8,0,3,1.2,3,3.2c0,1.9-1.2,3.2-3,3.2c-1,0-1.8-0.4-2.4-1.1
		v3.3H216.8z M219.8,202.2c-0.9,0-1.8,0.5-2.2,1.1v3c0.4,0.6,1.3,1.1,2.2,1.1c1.5,0,2.4-1.1,2.4-2.6S221.3,202.2,219.8,202.2z"/>
	<path class="st1" d="M75,224.1c0.6,0.8,1.4,1.2,2.6,1.2c1.3,0,2.3-0.9,2.3-2c0-1.3-1-2.1-2.3-2.1c-0.9,0-1.6,0.3-2.3,0.8l-0.6-0.2
		v-4.4h5.4v0.7h-4.6v3.3c0.5-0.4,1.3-0.8,2.2-0.8c1.6,0,3,0.9,3,2.7c0,1.7-1.4,2.7-3.2,2.7c-1.6,0-2.5-0.5-3.2-1.4L75,224.1z"/>
	<path class="st1" d="M85.7,222.5H89v0.6h-3.4V222.5z"/>
	<path class="st1" d="M94.1,224.2c0.5,0.7,1.4,1.2,2.6,1.2c1.4,0,2.4-0.7,2.4-1.8c0-1.2-1.1-1.7-2.5-1.7c-0.4,0-0.7,0-0.9,0v-0.7
		c0.1,0,0.5,0,0.9,0c1.2,0,2.4-0.5,2.4-1.6c0-1-1-1.6-2.2-1.6c-1.1,0-1.8,0.4-2.5,1.1l-0.5-0.5c0.7-0.7,1.7-1.3,3.1-1.3
		c1.6,0,3,0.8,3,2.2c0,1.3-1.2,1.8-2,2c0.8,0.1,2.1,0.7,2.1,2.1c0,1.4-1.2,2.4-3.2,2.4c-1.5,0-2.6-0.6-3.2-1.4L94.1,224.2z"/>
	<path class="st1" d="M113.5,221.6c0-0.9-0.4-1.4-1.4-1.4c-0.7,0-1.6,0.5-1.9,1v4.6h-0.7v-4.3c0-0.9-0.4-1.4-1.4-1.4
		c-0.7,0-1.5,0.5-1.9,1v4.6h-0.7v-6.1h0.7v0.9c0.3-0.4,1.2-1.1,2.2-1.1c1.1,0,1.6,0.6,1.8,1.1c0.4-0.6,1.3-1.1,2.2-1.1
		c1.2,0,1.8,0.6,1.8,1.9v4.4h-0.7V221.6z"/>
	<path class="st1" d="M116.3,218.3c0-0.3,0.3-0.5,0.6-0.5c0.3,0,0.6,0.2,0.6,0.5s-0.3,0.5-0.6,0.5
		C116.6,218.8,116.3,218.5,116.3,218.3z M116.5,219.8h0.7v6.1h-0.7V219.8z"/>
	<path class="st1" d="M124,221.7c0-1.2-0.7-1.5-1.6-1.5c-0.9,0-1.8,0.5-2.2,1v4.6h-0.7v-6.1h0.7v0.9c0.5-0.5,1.5-1.1,2.4-1.1
		c1.4,0,2.1,0.6,2.1,2v4.3H124V221.7z"/>
	<path class="st1" d="M131.6,225c-0.6,0.6-1.5,1-2.4,1c-1.4,0-2.1-0.6-2.1-2v-4.3h0.7v4.1c0,1.2,0.7,1.5,1.6,1.5
		c0.9,0,1.8-0.5,2.2-1v-4.6h0.7v6.1h-0.7V225z"/>
	<path class="st1" d="M134.7,224.7v-4.3h-1.1v-0.6h1.1v-1.7h0.7v1.7h1.4v0.6h-1.4v4.2c0,0.5,0.2,0.8,0.7,0.8c0.3,0,0.6-0.1,0.8-0.3
		l0.3,0.5c-0.3,0.2-0.6,0.4-1.1,0.4C135.2,226,134.7,225.5,134.7,224.7z"/>
	<path class="st1" d="M141.3,219.6c2.1,0,3.2,1.5,3.2,3.2v0.2h-5.7c0.1,1.3,1.1,2.4,2.6,2.4c0.9,0,1.6-0.3,2.2-0.8l0.4,0.4
		c-0.7,0.6-1.5,1-2.6,1c-2,0-3.4-1.3-3.4-3.2C138.1,221,139.4,219.6,141.3,219.6z M138.9,222.5h4.9c0-1-0.8-2.3-2.5-2.3
		C139.7,220.2,138.9,221.4,138.9,222.5z"/>
	<path class="st1" d="M150,219.8h0.7v1c0.6-0.7,1.3-1.2,2.3-1.2v0.7c-0.1,0-0.2,0-0.4,0c-0.7,0-1.6,0.6-1.9,1.1v4.4H150V219.8z"/>
	<path class="st1" d="M154.1,222.8c0-1.8,1.3-3.2,3.2-3.2c2,0,3.3,1.4,3.3,3.2c0,1.8-1.3,3.2-3.3,3.2
		C155.3,226,154.1,224.6,154.1,222.8z M159.8,222.8c0-1.3-0.9-2.6-2.5-2.6c-1.6,0-2.5,1.2-2.5,2.6c0,1.4,0.9,2.6,2.5,2.6
		C158.9,225.4,159.8,224.2,159.8,222.8z"/>
	<path class="st1" d="M167,225c-0.6,0.6-1.5,1-2.4,1c-1.4,0-2.1-0.6-2.1-2v-4.3h0.7v4.1c0,1.2,0.7,1.5,1.6,1.5c0.9,0,1.8-0.5,2.2-1
		v-4.6h0.7v6.1H167V225z"/>
	<path class="st1" d="M174.6,221.7c0-1.2-0.7-1.5-1.6-1.5c-0.9,0-1.8,0.5-2.2,1v4.6H170v-6.1h0.7v0.9c0.5-0.5,1.5-1.1,2.4-1.1
		c1.4,0,2.1,0.6,2.1,2v4.3h-0.7V221.7z"/>
	<path class="st1" d="M182.6,224.9c-0.5,0.6-1.3,1.1-2.4,1.1c-1.8,0-3-1.2-3-3.2c0-1.9,1.2-3.2,3-3.2c1,0,1.8,0.4,2.4,1.1v-3.3h0.7
		v8.4h-0.7V224.9z M182.6,221.3c-0.4-0.6-1.3-1.1-2.2-1.1c-1.5,0-2.4,1.1-2.4,2.6s0.9,2.6,2.4,2.6c1,0,1.8-0.5,2.2-1.1V221.3z"/>
	<path class="st1" d="M185.4,224.6c0.4,0.5,1.2,0.9,2.2,0.9c1.1,0,1.8-0.5,1.8-1.2c0-0.8-0.9-1-1.9-1.2c-1.1-0.3-2.4-0.5-2.4-1.7
		c0-0.9,0.9-1.7,2.4-1.7c1.2,0,1.9,0.4,2.4,0.9l-0.4,0.5c-0.4-0.5-1.1-0.8-2-0.8c-1.1,0-1.7,0.5-1.7,1.1c0,0.7,0.9,0.9,1.8,1.1
		c1.2,0.3,2.5,0.6,2.5,1.9c0,1-0.8,1.8-2.5,1.8c-1.1,0-1.9-0.3-2.6-1L185.4,224.6z"/>
	<path class="st1" d="M195.2,222.8c0-1.8,1.3-3.2,3.2-3.2c2,0,3.3,1.4,3.3,3.2c0,1.8-1.3,3.2-3.3,3.2
		C196.5,226,195.2,224.6,195.2,222.8z M200.9,222.8c0-1.3-0.9-2.6-2.5-2.6c-1.6,0-2.5,1.2-2.5,2.6c0,1.4,0.9,2.6,2.5,2.6
		C200.1,225.4,200.9,224.2,200.9,222.8z"/>
	<path class="st1" d="M203.8,220.3h-1.1v-0.6h1.1v-0.6c0-1.2,0.7-1.9,1.8-1.9c0.3,0,0.6,0.1,0.9,0.2l-0.2,0.5
		c-0.2-0.1-0.4-0.1-0.6-0.1c-0.8,0-1.2,0.5-1.2,1.3v0.6h1.4v0.6h-1.4v5.5h-0.7V220.3z"/>
	<path class="st1" d="M210.9,217.4h0.7v3.3c0.5-0.7,1.4-1.1,2.4-1.1c1.8,0,3,1.3,3,3.2c0,2-1.2,3.2-3,3.2c-1,0-1.9-0.5-2.4-1.1v1
		h-0.7V217.4z M213.9,225.4c1.5,0,2.4-1.1,2.4-2.6s-0.9-2.6-2.4-2.6c-0.9,0-1.8,0.5-2.2,1.1v3C212.1,224.9,213,225.4,213.9,225.4z"
		/>
	<path class="st1" d="M218.5,222.8c0-1.8,1.3-3.2,3.2-3.2c2,0,3.3,1.4,3.3,3.2c0,1.8-1.3,3.2-3.3,3.2
		C219.8,226,218.5,224.6,218.5,222.8z M224.3,222.8c0-1.3-0.9-2.6-2.5-2.6c-1.6,0-2.5,1.2-2.5,2.6c0,1.4,0.9,2.6,2.5,2.6
		C223.4,225.4,224.3,224.2,224.3,222.8z"/>
	<path class="st1" d="M228.7,223.2l-2.3,2.7h-0.9l2.7-3.1l-2.5-3h0.9l2.1,2.5l2.1-2.5h0.9l-2.5,3l2.7,3.1h-0.9L228.7,223.2z"/>
	<path class="st1" d="M232.9,218.3c0-0.3,0.3-0.5,0.6-0.5c0.3,0,0.6,0.2,0.6,0.5s-0.3,0.5-0.6,0.5
		C233.2,218.8,232.9,218.5,232.9,218.3z M233.1,219.8h0.7v6.1h-0.7V219.8z"/>
	<path class="st1" d="M240.7,221.7c0-1.2-0.7-1.5-1.6-1.5c-0.9,0-1.8,0.5-2.2,1v4.6h-0.7v-6.1h0.7v0.9c0.5-0.5,1.5-1.1,2.4-1.1
		c1.4,0,2.1,0.6,2.1,2v4.3h-0.7V221.7z"/>
	<path class="st1" d="M244.1,226.9c0.6,0.6,1.2,0.9,2.2,0.9c1.2,0,2.3-0.6,2.3-2v-1c-0.5,0.6-1.3,1.1-2.4,1.1c-1.8,0-3-1.2-3-3.2
		c0-1.9,1.2-3.2,3-3.2c1,0,1.8,0.4,2.4,1.1v-1h0.7v6c0,1.9-1.4,2.5-3.1,2.5c-1.1,0-1.9-0.2-2.7-0.9L244.1,226.9z M248.7,221.3
		c-0.4-0.6-1.3-1.1-2.2-1.1c-1.5,0-2.4,1.1-2.4,2.6s0.9,2.6,2.4,2.6c0.9,0,1.8-0.5,2.2-1.1V221.3z"/>
	<path class="st1" d="M75,242.1c0.6,0.8,1.4,1.2,2.6,1.2c1.3,0,2.3-0.9,2.3-2c0-1.3-1-2.1-2.3-2.1c-0.9,0-1.6,0.3-2.3,0.8l-0.6-0.2
		v-4.4h5.4v0.7h-4.6v3.3c0.5-0.4,1.3-0.8,2.2-0.8c1.6,0,3,0.9,3,2.7c0,1.7-1.4,2.7-3.2,2.7c-1.6,0-2.5-0.5-3.2-1.4L75,242.1z"/>
	<path class="st1" d="M94.4,239.6c0-0.9-0.4-1.4-1.4-1.4c-0.7,0-1.6,0.5-1.9,1v4.6h-0.7v-4.3c0-0.9-0.4-1.4-1.4-1.4
		c-0.7,0-1.5,0.5-1.9,1v4.6h-0.7v-6.1h0.7v0.9c0.3-0.4,1.2-1.1,2.2-1.1c1.1,0,1.6,0.6,1.8,1.1c0.4-0.6,1.3-1.1,2.2-1.1
		c1.2,0,1.8,0.6,1.8,1.9v4.4h-0.7V239.6z"/>
	<path class="st1" d="M97.2,236.3c0-0.3,0.3-0.5,0.6-0.5c0.3,0,0.6,0.2,0.6,0.5s-0.3,0.5-0.6,0.5C97.5,236.8,97.2,236.5,97.2,236.3z
		 M97.4,237.8h0.7v6.1h-0.7V237.8z"/>
	<path class="st1" d="M105,239.7c0-1.2-0.7-1.5-1.6-1.5c-0.9,0-1.8,0.5-2.2,1v4.6h-0.7v-6.1h0.7v0.9c0.5-0.5,1.5-1.1,2.4-1.1
		c1.4,0,2.1,0.6,2.1,2v4.3H105V239.7z"/>
	<path class="st1" d="M112.5,243c-0.6,0.6-1.5,1-2.4,1c-1.4,0-2.1-0.6-2.1-2v-4.3h0.7v4.1c0,1.2,0.7,1.5,1.6,1.5
		c0.9,0,1.8-0.5,2.2-1v-4.6h0.7v6.1h-0.7V243z"/>
	<path class="st1" d="M115.7,242.7v-4.3h-1.1v-0.6h1.1v-1.7h0.7v1.7h1.4v0.6h-1.4v4.2c0,0.5,0.2,0.8,0.7,0.8c0.3,0,0.6-0.1,0.8-0.3
		l0.3,0.5c-0.3,0.2-0.6,0.4-1.1,0.4C116.1,244,115.7,243.5,115.7,242.7z"/>
	<path class="st1" d="M122.3,237.6c2.1,0,3.2,1.5,3.2,3.2v0.2h-5.7c0.1,1.3,1.1,2.4,2.6,2.4c0.9,0,1.6-0.3,2.2-0.8l0.4,0.4
		c-0.7,0.6-1.5,1-2.6,1c-2,0-3.4-1.3-3.4-3.2C119,239,120.4,237.6,122.3,237.6z M119.8,240.5h4.9c0-1-0.8-2.3-2.5-2.3
		C120.6,238.2,119.8,239.4,119.8,240.5z"/>
	<path class="st1" d="M133.8,237.6c1.2,0,1.8,0.4,2.4,1l-0.5,0.4c-0.5-0.6-1.1-0.8-1.8-0.8c-1.6,0-2.5,1.1-2.5,2.6
		c0,1.5,1,2.6,2.5,2.6c0.7,0,1.4-0.3,1.8-0.9l0.5,0.4c-0.5,0.6-1.2,1-2.4,1c-2,0-3.3-1.4-3.3-3.2C130.6,239,131.9,237.6,133.8,237.6
		z"/>
	<path class="st1" d="M137.5,240.8c0-1.8,1.3-3.2,3.2-3.2c2,0,3.3,1.4,3.3,3.2c0,1.8-1.3,3.2-3.3,3.2
		C138.7,244,137.5,242.6,137.5,240.8z M143.2,240.8c0-1.3-0.9-2.6-2.5-2.6c-1.6,0-2.5,1.2-2.5,2.6c0,1.4,0.9,2.6,2.5,2.6
		C142.3,243.4,143.2,242.2,143.2,240.8z"/>
	<path class="st1" d="M145.5,240.8c0-1.8,1.3-3.2,3.2-3.2c2,0,3.3,1.4,3.3,3.2c0,1.8-1.3,3.2-3.3,3.2
		C146.7,244,145.5,242.6,145.5,240.8z M151.2,240.8c0-1.3-0.9-2.6-2.5-2.6c-1.6,0-2.5,1.2-2.5,2.6c0,1.4,0.9,2.6,2.5,2.6
		C150.3,243.4,151.2,242.2,151.2,240.8z"/>
	<path class="st1" d="M153.9,235.4h0.7v8.4h-0.7V235.4z"/>
	<path class="st1" d="M161.8,242.9c-0.5,0.6-1.3,1.1-2.4,1.1c-1.8,0-3-1.2-3-3.2c0-1.9,1.2-3.2,3-3.2c1,0,1.8,0.4,2.4,1.1v-3.3h0.7
		v8.4h-0.7V242.9z M161.8,239.3c-0.4-0.6-1.3-1.1-2.2-1.1c-1.5,0-2.4,1.1-2.4,2.6s0.9,2.6,2.4,2.6c1,0,1.8-0.5,2.2-1.1V239.3z"/>
	<path class="st1" d="M164.4,240.8c0-1.8,1.3-3.2,3.2-3.2c2,0,3.3,1.4,3.3,3.2c0,1.8-1.3,3.2-3.3,3.2
		C165.7,244,164.4,242.6,164.4,240.8z M170.2,240.8c0-1.3-0.9-2.6-2.5-2.6c-1.6,0-2.5,1.2-2.5,2.6c0,1.4,0.9,2.6,2.5,2.6
		C169.3,243.4,170.2,242.2,170.2,240.8z"/>
	<path class="st1" d="M176.7,238.6l-1.9,5.2h-0.7l-2.2-6.1h0.8l1.8,5.2l1.9-5.2h0.6l1.9,5.2l1.8-5.2h0.8l-2.2,6.1h-0.7L176.7,238.6z
		"/>
	<path class="st1" d="M187.5,239.7c0-1.2-0.7-1.5-1.6-1.5c-0.9,0-1.8,0.5-2.2,1v4.6h-0.7v-6.1h0.7v0.9c0.5-0.5,1.5-1.1,2.4-1.1
		c1.4,0,2.1,0.6,2.1,2v4.3h-0.7V239.7z"/>
</g>
<g>
	<path class="st1" d="M151.5,159.9c0.9,0.7,2.3,1.1,3.3,1.1c1.2,0,1.7-0.4,1.7-0.8c0-0.4-0.3-0.7-1.9-0.7c-0.5,0-1.6,0-1.7,0v-2.8
		c0.2,0,1.3,0,1.7,0c1.2,0,1.7-0.3,1.7-0.6c0-0.5-0.7-0.8-1.8-0.8c-1,0-2.2,0.4-3,1l-1.7-2c1.1-1.1,2.7-1.8,5-1.8c3.3,0,5,1.2,5,3
		c0,1.2-1.1,2.2-2.6,2.4c1.3,0.1,2.8,1,2.8,2.5c0,1.9-2.1,3.2-5.2,3.2c-2.4,0-4.2-0.7-5.2-1.7L151.5,159.9z"/>
	<path class="st1" d="M166.3,152.5c3.6,0,5.3,2.6,5.3,5.6s-1.7,5.6-5.3,5.6s-5.3-2.7-5.3-5.6S162.7,152.5,166.3,152.5z M166.3,155.4
		c-1.2,0-1.7,0.9-1.7,2.7c0,1.8,0.5,2.7,1.7,2.7s1.7-0.9,1.7-2.7C168,156.3,167.5,155.4,166.3,155.4z"/>
	<path class="st1" d="M188.5,158.9c0-0.5-0.3-0.9-1-0.9c-0.7,0-1.1,0.4-1.3,0.6v4.8H183v-4.6c0-0.5-0.3-0.9-1-0.9
		c-0.7,0-1.1,0.4-1.3,0.6v4.8h-3.2v-7.8h3.2v0.9c0.4-0.4,1.5-1.1,2.9-1.1c1.2,0,2.1,0.4,2.5,1.4c0.5-0.7,1.6-1.4,3-1.4
		c1.6,0,2.7,0.7,2.7,2.3v5.7h-3.2V158.9z"/>
	<path class="st1" d="M193.4,153.5c0-0.9,0.8-1.6,1.8-1.6c1,0,1.8,0.7,1.8,1.6c0,0.9-0.8,1.6-1.8,1.6
		C194.2,155.1,193.4,154.4,193.4,153.5z M193.6,155.7h3.2v7.8h-3.2V155.7z"/>
	<path class="st1" d="M204.5,159.2c0-0.8-0.5-1.1-1.3-1.1c-0.7,0-1.1,0.3-1.4,0.6v4.8h-3.2v-7.8h3.2v0.9c0.5-0.5,1.5-1.1,3-1.1
		c2,0,2.9,1.1,2.9,2.5v5.6h-3.2V159.2z"/>
</g>
<line class="st2" x1="141.8" y1="158.5" x2="45.3" y2="158.5"/>
<line class="st2" x1="314.7" y1="158.5" x2="218.2" y2="158.5"/>
<g>
	<path class="st1" d="M211.8,25c0.5,0.5,0.9,1,1.5,1.7c1-0.7,2-1.4,3-2.1c0.8-0.6,1.7-1.3,2.6-1.6c0.7-0.2,2-0.2,2.4,0.3
		c0.5,0.6,0.8,1.8,0.6,2.6c-0.5,1.5-1.4,2.9-2.2,4.3c2,3.4,1.9,5.3-0.7,8.2c1.5,3,1.4,3.9-1.2,6.2c-0.9,0.8-1.8,1.5-2.8,2
		c-0.9,0.5-2,0.8-3.1,1.3c0.8,3-1.4,4.4-3.3,5.9c1.1,2.3,0.4,3.6-2.2,4.7c-0.8,0.3-1.5,1-1.9,1.7c-1.4,2.5-5.3,4-8.8,3.3
		c-0.6-0.1-1.2-0.3-2.1-0.4c-0.1,1.2-0.2,2.4-0.3,3.5c-0.2,2.8-1.4,5.1-4.1,5.7c-3.1,0.7-6.3,0.7-9.5,1c-1.5,0.2-3.1,0.2-4.4,0.8
		c-2,0.9-4.1,2-5.8,3.4c-4.6,3.8-9.8,4.6-15.4,3.1c-3.8-1-7.4-2.4-11-3.9c-2.5-1.1-3.4-2.8-2.9-4.6c0.5-2,2.3-3.1,5-3
		c0.9,0,1.8,0,2.7,0.3c3,0.9,5.2-0.2,7.4-2.1c4.4-3.8,8.9-7.6,13.3-11.4c0.3-0.2,0.6-0.5,0.8-0.8c2.5-2.6,2.5-2.6,0.9-5.9
		c-3.4-6.9-0.9-14,6.2-16.8c4.2-1.6,8.6-2.6,13-3.4c5.8-1,10.5-4,15.1-7.3c1.8-1.3,3.5-2.8,5.3-4.1c1-0.7,2.1-1.7,3.5-0.6
		c1.4,1.1,1.1,2.5,0.5,3.8C213.4,22.3,212.6,23.5,211.8,25z M158.5,79.2c3.8,0.1,5.9-0.5,8.8-2.6c1.7-1.2,3.6-2.3,5.3-3.5
		c0.5-0.4,1.1-1.3,1.1-1.9c0.1-4-3.1-8.5-7.1-9.9c-0.6-0.2-1.6,0.1-2.1,0.6c-2.8,2.4-5.5,4.9-8.3,7.4c-2.5,2.2-5.3,3.2-8.7,2.2
		c-0.8-0.2-1.7-0.3-2.5-0.1c-0.9,0.2-1.8,0.9-2.7,1.3c0.6,0.8,1,1.9,1.7,2.2C148.7,77.3,153.6,79,158.5,79.2z M220,25.4
		c-0.1-0.1-0.2-0.3-0.4-0.4c-0.7,0.4-1.3,0.9-2,1.3c-6.8,4.7-13.7,9-22.3,9.8c-4.1,0.4-8.1,1.5-12,2.6c-3.1,0.9-4.7,3.2-5.7,6.3
		c-1.3,4.4,1.2,7.8,2.3,11.6c0.1,0.4,1.2,0.6,1.8,0.7c0.1,0,0.7-0.9,0.6-1.4c-0.2-0.9-0.6-1.7-1.1-2.5c-0.4-0.8-1.2-1.5-1.4-2.4
		c-0.8-3.6,1.1-7.5,4.6-8.8c2.8-1,5.7-2,8.7-2.5c7.1-1.1,14-2.6,20.1-6.6C216.1,31.1,218.7,28.8,220,25.4z M175.6,50.6
		c-0.4-0.7-0.8-1.2-1-1.7c-0.4-0.8-1-1.6-1.1-2.4c-0.6-4.2,1-7.2,5-8.8c3.1-1.2,6.4-2.3,9.7-3c7.5-1.6,14.6-4.1,20.3-9.5
		c1.8-1.7,3.2-3.7,3.6-6.3c-0.9,0.4-1.6,0.9-2.3,1.4c-0.7,0.6-1.4,1.1-2.1,1.7c-6.5,5-13.5,8.7-21.9,9.8c-2.7,0.3-5.4,1.3-8,2.1
		c-3.9,1.3-6.3,3.9-6.9,8.2c-0.4,2.8,0.6,5,1.6,7.4C173.2,50.8,174,51.2,175.6,50.6z M182.8,71.5C182.8,71.4,182.8,71.4,182.8,71.5
		c0.7,0,1.4,0,2.1,0c4.6-0.3,6.2-2,6.5-6.6c0.1-1.5-0.1-2.8-1.5-3.4c-1.5-0.7-3.1-1.4-4.8-1.8c-3.7-0.8-7.2-0.4-10,2.5
		c-0.3,0.4-0.4,1.2-0.3,1.7c0.5,1.3,1.3,2.5,1.8,3.8c0.5,1.1,0.4,2.8,1.2,3.3c1,0.7,2.6,0.4,3.9,0.5
		C182.1,71.5,182.4,71.5,182.8,71.5z M198.5,42c0.2,0.2,0.3,0.4,0.5,0.6c4.7-0.3,9.4-1.2,13.8-3c1.8-0.7,3.5-1.9,5-3.1
		c0.7-0.5,1-1.7,1.2-2.6c0.1-0.4-0.3-1.1-0.6-1.4c-0.2-0.2-0.9,0.2-1.3,0.5c-5,4-10.6,6.3-16.8,7.7C199.6,40.8,199.1,41.5,198.5,42z
		 M200.4,47.6c4.2-0.8,8.3-1.3,12.3-2.3c1.6-0.4,3-1.8,4.4-2.9c1.1-0.8,1.1-1.8-0.3-2.5c-5.2,3.2-11.1,4-17,4.9
		C200,45.7,200.1,46.4,200.4,47.6z M197.3,45.3c-1.5,0.3-2.8,0.7-4.1,0.8c-3.1,0.3-6.3,0.5-9.4,0.6c-1.6,0-2,0.7-1.7,2.3
		c1.4,0,2.8,0.1,4.2,0c3.2-0.2,6.4-0.3,9.6-0.7C198.1,47.9,198.3,46.9,197.3,45.3z M182.3,51.1c-0.1,0.2-0.2,0.4-0.2,0.5
		c1,0.6,2,1.7,3.1,1.8c3,0.2,6,0.1,9,0c0.9,0,1.8-0.4,2.5-0.8c0.4-0.2,0.7-1.1,0.6-1.4c-0.2-0.4-1-0.8-1.5-0.8
		c-3.9,0.1-7.8,0.3-11.7,0.5C183.5,51,182.9,51,182.3,51.1z M199.8,52.4c2.2,0,4.4,0.3,6.5-0.1c1.2-0.2,2.4-1.3,3.4-2.3
		c0.5-0.5,0.6-1.7-0.7-1.6c-3.3,0.3-6.5,0.8-9.9,1.2C199.3,50.6,199.5,51.4,199.8,52.4z M171.6,60.4c1.6-1.1,3.1-2.2,4.6-3.3
		c0.5-0.4,1.2-1.1,1.1-1.4c-0.2-0.9-0.7-2.1-1.4-2.5c-0.6-0.3-2,0-2.5,0.5c-1.6,1.5-2.9,3.2-4.3,4.9
		C169.9,59.2,170.8,59.8,171.6,60.4z M189.3,55.6C189.3,55.6,189.3,55.5,189.3,55.6c-1.3-0.1-2.6-0.1-3.8,0c-0.4,0-1,0.5-1,0.8
		c0,0.4,0.4,1,0.8,1.1c2.1,0.5,4.1,1,6.2,1.2c0.7,0.1,1.5-0.5,2.2-0.9c0.3-0.2,0.6-0.9,0.4-1.3c-0.1-0.4-0.7-0.8-1.1-0.8
		C191.8,55.5,190.5,55.6,189.3,55.6z M184.8,44.3c0,0.2,0.1,0.3,0.1,0.5c3.3-0.3,6.6-0.5,9.8-1c0.8-0.1,1.5-1.3,2.2-2
		c-0.1-0.2-0.2-0.3-0.4-0.5C192.5,41.7,188.5,42.5,184.8,44.3z M196.3,55.6c2.3,1.8,9.6,1.5,10.8-0.4
		C204.9,54,197.6,54.3,196.3,55.6z M193.6,60.7c3.2,1.8,7.1,1.2,9-1.7C199.4,59.2,196,56.9,193.6,60.7z M202.8,32.6
		c2.8-1.5,5.7-3.1,8.7-4.8C210.1,27,205.9,29.3,202.8,32.6z"/>
</g>
<circle class="st1" cx="58.1" cy="203.8" r="2.8"/>
<circle class="st1" cx="58.1" cy="222" r="2.8"/>
<circle class="st1" cx="58.1" cy="240.3" r="2.8"/>
</svg>
