<svg id="Layer_1" data-name="Layer 1" xmlns="http://www.w3.org/2000/svg" viewBox="0 0 360 287.99"><defs><style>.cls-1{fill:#fe0000;}.cls-2{font-size:30px;}.cls-2,.cls-3,.cls-7,.cls-9{fill:#fff;}.cls-2,.cls-7{font-family:ProximaNova-Black, Proxima Nova;}.cls-3{font-size:14px;font-family:ProximaNova-Light, Proxima Nova;}.cls-4{letter-spacing:-0.04em;}.cls-5{letter-spacing:-0.03em;}.cls-6{letter-spacing:0em;}.cls-7{font-size:18px;}.cls-8{fill:none;stroke:#fff;stroke-miterlimit:10;}</style></defs><title>Prizefighter</title><rect class="cls-1" width="360" height="287.99"/><text class="cls-2" transform="translate(73.68 130.86) scale(1 0.9)">PRIZEFIGHTER</text><text class="cls-3" transform="translate(73.67 211.51) scale(1 0.9)">15 minute strength &amp; cardio warmup<tspan x="0" y="20">8 - 3 minute rounds of b</tspan><tspan class="cls-4" x="144.19" y="20">o</tspan><tspan x="151.68" y="20">xing</tspan><tspan x="0" y="40">12 minute core and fl</tspan><tspan class="cls-5" x="124.75" y="40">e</tspan><tspan class="cls-6" x="132.33" y="40">xibility cooldown</tspan></text><text class="cls-7" transform="translate(149.54 164.6) scale(1 0.9)">60 min</text><line class="cls-8" x1="141.77" y1="159.59" x2="45.26" y2="159.59"/><line class="cls-8" x1="314.74" y1="159.59" x2="218.23" y2="159.59"/><path class="cls-9" d="M180.35,41l14.29-21.42,11.21,3.15L190,46.62a31.56,31.56,0,0,0-19.25,0c-5.32-8-10.53-15.86-15.87-23.88l11.19-3.18Z"/><path class="cls-9" d="M197.64,64.52A17.32,17.32,0,1,1,180.52,47,17.4,17.4,0,0,1,197.64,64.52Z"/><circle class="cls-9" cx="56.67" cy="208.04" r="2.75"/><circle class="cls-9" cx="56.67" cy="226.29" r="2.75"/><circle class="cls-9" cx="56.67" cy="244.54" r="2.75"/></svg>