<?xml version="1.0" encoding="utf-8"?>
<!-- Generator: Adobe Illustrator 22.0.1, SVG Export Plug-In . SVG Version: 6.00 Build 0)  -->
<svg version="1.1" id="Layer_1" xmlns="http://www.w3.org/2000/svg" xmlns:xlink="http://www.w3.org/1999/xlink" x="0px" y="0px"
	 viewBox="0 0 360 288" style="enable-background:new 0 0 360 288;" xml:space="preserve">
<style type="text/css">
	.st0{fill:#fe0000;}
	.st1{fill:#FFFFFF;}
	.st2{fill:none;stroke:#FFFFFF;stroke-miterlimit:10;}
	.st3{fill:none;stroke:#fe0000;stroke-width:0.7414;stroke-miterlimit:10;}
</style>
<rect x="0" class="st0" width="360" height="288"/>
<g>
	<path class="st1" d="M75.3,112.9H86c4.7,0,7.2,2.8,7.2,6.2c0,3.3-2.5,6-7.2,6h-4.6v5.8h-6.1V112.9z M85.2,117.4h-3.8v3.2h3.8
		c1,0,1.8-0.6,1.8-1.6C87,118,86.2,117.4,85.2,117.4z"/>
	<path class="st1" d="M103.4,125.1h-2.2v5.8h-6.1v-18h10.7c4.7,0,7.2,2.8,7.2,6.2c0,3.1-2,4.8-3.6,5.5l3.6,6.4h-6.9L103.4,125.1z
		 M104.9,117.4h-3.7v3.2h3.7c1,0,2-0.6,2-1.6C106.9,118,105.9,117.4,104.9,117.4z"/>
	<path class="st1" d="M115.5,112.9h6.1v18h-6.1V112.9z"/>
	<path class="st1" d="M124.3,126.5l7.6-8.9h-7.6v-4.8h15.6v4.3l-7.6,9h7.9v4.8h-15.8V126.5z"/>
	<path class="st1" d="M142.8,112.9H158v4.5h-9.1v2.1h8.9v4.5h-8.9v2.3h9.1v4.5h-15.2V112.9z"/>
	<path class="st1" d="M160.7,112.9h15.2v4.5h-9.1v2.1h8.9v4.5h-8.9v6.8h-6.1V112.9z"/>
	<path class="st1" d="M178.4,112.9h6.1v18h-6.1V112.9z"/>
	<path class="st1" d="M197.7,112.6c4.6,0,7.4,2.1,8.8,4.4l-5.1,2.3c-0.7-1.1-2-2-3.7-2c-2.9,0-4.9,2-4.9,4.5s2,4.5,4.9,4.5
		c1.3,0,2.5-0.3,3.3-0.8v-0.8h-3.9v-4.5h9.8v7.2c-2.2,2.2-5.2,3.6-9.1,3.6c-6.1,0-11-3.6-11-9.3
		C186.7,116.1,191.6,112.6,197.7,112.6z"/>
	<path class="st1" d="M222.7,124h-7.2v6.9h-6.1v-18h6.1v6.4h7.2v-6.4h6.1v18h-6.1V124z"/>
	<path class="st1" d="M236.3,117.6H231v-4.8h16.8v4.8h-5.3v13.3h-6.1V117.6z"/>
	<path class="st1" d="M249.9,112.9h15.2v4.5H256v2.1h8.9v4.5H256v2.3h9.1v4.5h-15.2V112.9z"/>
	<path class="st1" d="M276,125.1h-2.2v5.8h-6.1v-18h10.7c4.7,0,7.2,2.8,7.2,6.2c0,3.1-2,4.8-3.6,5.5l3.6,6.4h-6.9L276,125.1z
		 M277.5,117.4h-3.7v3.2h3.7c1,0,2-0.6,2-1.6C279.5,118,278.5,117.4,277.5,117.4z"/>
</g>
<g>
	<path class="st1" d="M76,204.1l-1.5,1.4l-0.5-0.5l2.1-2h0.7v8.4H76V204.1z"/>
	<path class="st1" d="M79.6,209.8c0.6,0.8,1.4,1.2,2.6,1.2c1.3,0,2.3-0.9,2.3-2c0-1.3-1-2.1-2.3-2.1c-0.9,0-1.6,0.3-2.3,0.8
		l-0.6-0.2v-4.4h5.4v0.7h-4.6v3.3c0.5-0.4,1.3-0.8,2.2-0.8c1.6,0,3,0.9,3,2.7c0,1.7-1.4,2.7-3.2,2.7c-1.6,0-2.5-0.5-3.2-1.4
		L79.6,209.8z"/>
	<path class="st1" d="M98.9,207.3c0-0.9-0.4-1.4-1.4-1.4c-0.7,0-1.6,0.5-1.9,1v4.6h-0.7v-4.3c0-0.9-0.4-1.4-1.4-1.4
		c-0.7,0-1.5,0.5-1.9,1v4.6h-0.7v-6.1h0.7v0.9c0.3-0.4,1.2-1.1,2.2-1.1c1.1,0,1.6,0.6,1.8,1.1c0.4-0.6,1.3-1.1,2.2-1.1
		c1.2,0,1.8,0.6,1.8,1.9v4.4h-0.7V207.3z"/>
	<path class="st1" d="M101.7,203.9c0-0.3,0.3-0.5,0.6-0.5c0.3,0,0.6,0.2,0.6,0.5s-0.3,0.5-0.6,0.5
		C102,204.4,101.7,204.2,101.7,203.9z M101.9,205.4h0.7v6.1h-0.7V205.4z"/>
	<path class="st1" d="M109.5,207.4c0-1.2-0.7-1.5-1.6-1.5c-0.9,0-1.8,0.5-2.2,1v4.6h-0.7v-6.1h0.7v0.9c0.5-0.5,1.5-1.1,2.4-1.1
		c1.4,0,2.1,0.6,2.1,2v4.3h-0.7V207.4z"/>
	<path class="st1" d="M117.1,210.6c-0.6,0.6-1.5,1-2.4,1c-1.4,0-2.1-0.6-2.1-2v-4.3h0.7v4.1c0,1.2,0.7,1.5,1.6,1.5
		c0.9,0,1.8-0.5,2.2-1v-4.6h0.7v6.1h-0.7V210.6z"/>
	<path class="st1" d="M120.2,210.3V206h-1.1v-0.6h1.1v-1.7h0.7v1.7h1.4v0.6h-1.4v4.2c0,0.5,0.2,0.8,0.7,0.8c0.3,0,0.6-0.1,0.8-0.3
		l0.3,0.5c-0.3,0.2-0.6,0.4-1.1,0.4C120.6,211.7,120.2,211.2,120.2,210.3z"/>
	<path class="st1" d="M126.8,205.3c2.1,0,3.2,1.5,3.2,3.2v0.2h-5.7c0.1,1.3,1.1,2.4,2.6,2.4c0.9,0,1.6-0.3,2.2-0.8l0.4,0.4
		c-0.7,0.6-1.5,1-2.6,1c-2,0-3.4-1.3-3.4-3.2C123.5,206.7,124.9,205.3,126.8,205.3z M124.3,208.2h4.9c0-1-0.8-2.3-2.5-2.3
		C125.2,205.8,124.4,207.1,124.3,208.2z"/>
	<path class="st1" d="M135.3,210.2c0.4,0.5,1.2,0.9,2.2,0.9c1.1,0,1.8-0.5,1.8-1.2c0-0.8-0.9-1-1.9-1.2c-1.1-0.3-2.4-0.5-2.4-1.7
		c0-0.9,0.9-1.7,2.4-1.7c1.2,0,1.9,0.4,2.4,0.9l-0.4,0.5c-0.4-0.5-1.1-0.8-2-0.8c-1.1,0-1.7,0.5-1.7,1.1c0,0.7,0.9,0.9,1.8,1.1
		c1.2,0.3,2.5,0.6,2.5,1.9c0,1-0.8,1.8-2.5,1.8c-1.1,0-1.9-0.3-2.6-1L135.3,210.2z"/>
	<path class="st1" d="M142,210.3V206h-1.1v-0.6h1.1v-1.7h0.7v1.7h1.4v0.6h-1.4v4.2c0,0.5,0.2,0.8,0.7,0.8c0.3,0,0.6-0.1,0.8-0.3
		l0.3,0.5c-0.3,0.2-0.6,0.4-1.1,0.4C142.5,211.7,142,211.2,142,210.3z"/>
	<path class="st1" d="M145.7,205.4h0.7v1c0.6-0.7,1.3-1.2,2.3-1.2v0.7c-0.1,0-0.2,0-0.4,0c-0.7,0-1.6,0.6-1.9,1.1v4.4h-0.7V205.4z"
		/>
	<path class="st1" d="M153.1,205.3c2.1,0,3.2,1.5,3.2,3.2v0.2h-5.7c0.1,1.3,1,2.4,2.6,2.4c0.9,0,1.6-0.3,2.2-0.8l0.4,0.4
		c-0.7,0.6-1.5,1-2.6,1c-2,0-3.4-1.3-3.4-3.2C149.8,206.7,151.2,205.3,153.1,205.3z M150.6,208.2h4.9c0-1-0.8-2.3-2.5-2.3
		C151.4,205.8,150.6,207.1,150.6,208.2z"/>
	<path class="st1" d="M162.7,207.4c0-1.2-0.7-1.5-1.6-1.5c-0.9,0-1.8,0.5-2.2,1v4.6h-0.7v-6.1h0.7v0.9c0.5-0.5,1.5-1.1,2.4-1.1
		c1.4,0,2.1,0.6,2.1,2v4.3h-0.7V207.4z"/>
	<path class="st1" d="M166.1,212.6c0.6,0.6,1.2,0.9,2.2,0.9c1.2,0,2.3-0.6,2.3-2v-1c-0.5,0.6-1.3,1.1-2.4,1.1c-1.8,0-3-1.2-3-3.2
		c0-1.9,1.2-3.2,3-3.2c1,0,1.8,0.4,2.4,1.1v-1h0.7v6c0,1.9-1.4,2.5-3.1,2.5c-1.1,0-1.9-0.2-2.7-0.9L166.1,212.6z M170.7,207
		c-0.4-0.6-1.3-1.1-2.2-1.1c-1.5,0-2.4,1.1-2.4,2.6s0.9,2.6,2.4,2.6c0.9,0,1.8-0.5,2.2-1.1V207z"/>
	<path class="st1" d="M173.8,210.3V206h-1.1v-0.6h1.1v-1.7h0.7v1.7h1.4v0.6h-1.4v4.2c0,0.5,0.2,0.8,0.7,0.8c0.3,0,0.6-0.1,0.8-0.3
		l0.3,0.5c-0.3,0.2-0.6,0.4-1.1,0.4C174.2,211.7,173.8,211.2,173.8,210.3z"/>
	<path class="st1" d="M182.1,207.4c0-1.2-0.7-1.5-1.6-1.5c-0.9,0-1.8,0.5-2.2,1v4.6h-0.7v-8.4h0.7v3.2c0.5-0.5,1.5-1.1,2.4-1.1
		c1.4,0,2.1,0.6,2.1,2v4.3h-0.7V207.4z"/>
	<path class="st1" d="M194.9,211.5c-0.3-0.3-0.7-0.6-1.2-1c-0.7,0.7-1.6,1.2-2.8,1.2c-1.5,0-2.8-0.8-2.8-2.3c0-1.3,1-2,2.1-2.6
		c-0.4-0.7-0.8-1.3-0.8-1.9c0-1.1,1-1.9,2.2-1.9c1.1,0,2,0.6,2,1.6c0,1.3-1.2,1.8-2.4,2.4c0.4,0.5,0.9,1,1.2,1.3
		c0.4,0.4,0.8,0.8,1.3,1.2c0.6-0.8,0.9-1.6,1.1-2l0.7,0.3c-0.3,0.7-0.7,1.5-1.2,2.2c0.5,0.5,1.1,1,1.8,1.5H194.9z M193.2,210.1
		c-0.6-0.5-1.1-1-1.4-1.3c-0.4-0.4-0.9-0.9-1.2-1.4c-0.9,0.5-1.6,1-1.6,2c0,1.1,1,1.8,2.1,1.8C191.9,211.1,192.7,210.6,193.2,210.1z
		 M190.9,206.5c1.1-0.5,2-1,2-1.9c0-0.7-0.5-1.1-1.2-1.1c-0.8,0-1.5,0.6-1.5,1.4C190.3,205.4,190.5,206,190.9,206.5z"/>
	<path class="st1" d="M204.2,205.3c1.2,0,1.8,0.4,2.4,1l-0.5,0.4c-0.5-0.6-1.1-0.8-1.8-0.8c-1.6,0-2.5,1.1-2.5,2.6
		c0,1.5,1,2.6,2.5,2.6c0.7,0,1.4-0.3,1.8-0.9l0.5,0.4c-0.5,0.6-1.2,1-2.4,1c-2,0-3.3-1.4-3.3-3.2
		C200.9,206.7,202.2,205.3,204.2,205.3z"/>
	<path class="st1" d="M212.5,210.8c-0.6,0.6-1.4,0.9-2.3,0.9c-1.2,0-2.4-0.7-2.4-2c0-1.3,1.2-2,2.4-2c0.9,0,1.7,0.3,2.3,0.9v-1.2
		c0-0.9-0.8-1.4-1.8-1.4c-0.8,0-1.5,0.3-2.1,0.9l-0.4-0.5c0.7-0.7,1.5-1,2.6-1c1.4,0,2.5,0.6,2.5,2v4.3h-0.7V210.8z M212.5,209
		c-0.5-0.6-1.2-0.8-2-0.8c-1.1,0-1.8,0.6-1.8,1.5c0,0.9,0.7,1.5,1.8,1.5c0.8,0,1.6-0.3,2-0.8V209z"/>
	<path class="st1" d="M215.5,205.4h0.7v1c0.6-0.7,1.3-1.2,2.3-1.2v0.7c-0.1,0-0.2,0-0.4,0c-0.7,0-1.6,0.6-1.9,1.1v4.4h-0.7V205.4z"
		/>
	<path class="st1" d="M224.9,210.5c-0.5,0.6-1.3,1.1-2.4,1.1c-1.8,0-3-1.2-3-3.2c0-1.9,1.2-3.2,3-3.2c1,0,1.8,0.4,2.4,1.1v-3.3h0.7
		v8.4h-0.7V210.5z M224.9,207c-0.4-0.6-1.3-1.1-2.2-1.1c-1.5,0-2.4,1.1-2.4,2.6s0.9,2.6,2.4,2.6c1,0,1.8-0.5,2.2-1.1V207z"/>
	<path class="st1" d="M227.7,203.9c0-0.3,0.3-0.5,0.6-0.5c0.3,0,0.6,0.2,0.6,0.5s-0.3,0.5-0.6,0.5
		C228,204.4,227.7,204.2,227.7,203.9z M227.9,205.4h0.7v6.1h-0.7V205.4z"/>
	<path class="st1" d="M230.5,208.5c0-1.8,1.3-3.2,3.2-3.2c2,0,3.3,1.4,3.3,3.2c0,1.8-1.3,3.2-3.3,3.2
		C231.8,211.7,230.5,210.2,230.5,208.5z M236.2,208.5c0-1.3-0.9-2.6-2.5-2.6c-1.6,0-2.5,1.2-2.5,2.6c0,1.4,0.9,2.6,2.5,2.6
		C235.4,211.1,236.2,209.8,236.2,208.5z"/>
	<path class="st1" d="M246.4,206.3l-1.9,5.2h-0.7l-2.2-6.1h0.8l1.8,5.2l1.9-5.2h0.6l1.9,5.2l1.8-5.2h0.8l-2.2,6.1h-0.7L246.4,206.3z
		"/>
	<path class="st1" d="M256.9,210.8c-0.6,0.6-1.4,0.9-2.3,0.9c-1.2,0-2.4-0.7-2.4-2c0-1.3,1.2-2,2.4-2c0.9,0,1.7,0.3,2.3,0.9v-1.2
		c0-0.9-0.8-1.4-1.8-1.4c-0.8,0-1.5,0.3-2.1,0.9l-0.4-0.5c0.7-0.7,1.5-1,2.6-1c1.4,0,2.5,0.6,2.5,2v4.3h-0.7V210.8z M256.9,209
		c-0.5-0.6-1.2-0.8-2-0.8c-1.1,0-1.8,0.6-1.8,1.5c0,0.9,0.7,1.5,1.8,1.5c0.8,0,1.6-0.3,2-0.8V209z"/>
	<path class="st1" d="M259.9,205.4h0.7v1c0.6-0.7,1.3-1.2,2.3-1.2v0.7c-0.1,0-0.2,0-0.4,0c-0.7,0-1.6,0.6-1.9,1.1v4.4h-0.7V205.4z"
		/>
	<path class="st1" d="M272.4,207.3c0-0.9-0.4-1.4-1.4-1.4c-0.7,0-1.6,0.5-1.9,1v4.6h-0.7v-4.3c0-0.9-0.4-1.4-1.4-1.4
		c-0.7,0-1.5,0.5-1.9,1v4.6h-0.7v-6.1h0.7v0.9c0.3-0.4,1.2-1.1,2.2-1.1c1.1,0,1.6,0.6,1.8,1.1c0.4-0.6,1.3-1.1,2.2-1.1
		c1.2,0,1.8,0.6,1.8,1.9v4.4h-0.7V207.3z"/>
	<path class="st1" d="M279.9,210.6c-0.6,0.6-1.5,1-2.4,1c-1.4,0-2.1-0.6-2.1-2v-4.3h0.7v4.1c0,1.2,0.7,1.5,1.6,1.5
		c0.9,0,1.8-0.5,2.2-1v-4.6h0.7v6.1h-0.7V210.6z"/>
	<path class="st1" d="M282.9,213.8v-8.4h0.7v1c0.5-0.6,1.3-1.1,2.4-1.1c1.8,0,3,1.2,3,3.2c0,1.9-1.2,3.2-3,3.2c-1,0-1.8-0.4-2.4-1.1
		v3.3H282.9z M285.9,205.9c-0.9,0-1.8,0.5-2.2,1.1v3c0.4,0.6,1.3,1.1,2.2,1.1c1.5,0,2.4-1.1,2.4-2.6S287.4,205.9,285.9,205.9z"/>
	<path class="st1" d="M76.8,225.2c-1.1-0.3-2.2-0.9-2.2-2c0-1.5,1.5-2.2,3-2.2c1.5,0,3,0.7,3,2.2c0,1.1-1.1,1.8-2.2,2
		c1.2,0.3,2.3,1.1,2.3,2.2c0,1.4-1.4,2.3-3.2,2.3c-1.8,0-3.2-0.9-3.2-2.3C74.5,226.2,75.6,225.5,76.8,225.2z M77.7,225.5
		c-0.6,0.1-2.4,0.6-2.4,1.9c0,1,1.1,1.7,2.4,1.7c1.2,0,2.4-0.6,2.4-1.7C80,226.1,78.2,225.6,77.7,225.5z M77.7,221.6
		c-1.2,0-2.2,0.6-2.2,1.6c0,1.2,1.7,1.6,2.2,1.7c0.6-0.1,2.2-0.5,2.2-1.7C79.9,222.2,78.9,221.6,77.7,221.6z"/>
	<path class="st1" d="M85.7,226.2h3.4v0.6h-3.4V226.2z"/>
	<path class="st1" d="M94.1,227.8c0.5,0.7,1.4,1.2,2.6,1.2c1.4,0,2.4-0.7,2.4-1.8c0-1.2-1.1-1.7-2.5-1.7c-0.4,0-0.7,0-0.9,0v-0.7
		c0.1,0,0.5,0,0.9,0c1.2,0,2.4-0.5,2.4-1.6c0-1-1-1.6-2.2-1.6c-1.1,0-1.8,0.4-2.5,1.1l-0.5-0.5c0.7-0.7,1.7-1.3,3.1-1.3
		c1.6,0,3,0.8,3,2.2c0,1.3-1.2,1.8-2,2c0.8,0.1,2.1,0.7,2.1,2.1c0,1.4-1.2,2.4-3.2,2.4c-1.5,0-2.6-0.6-3.2-1.4L94.1,227.8z"/>
	<path class="st1" d="M113.5,225.3c0-0.9-0.4-1.4-1.4-1.4c-0.7,0-1.6,0.5-1.9,1v4.6h-0.7v-4.3c0-0.9-0.4-1.4-1.4-1.4
		c-0.7,0-1.5,0.5-1.9,1v4.6h-0.7v-6.1h0.7v0.9c0.3-0.4,1.2-1.1,2.2-1.1c1.1,0,1.6,0.6,1.8,1.1c0.4-0.6,1.3-1.1,2.2-1.1
		c1.2,0,1.8,0.6,1.8,1.9v4.4h-0.7V225.3z"/>
	<path class="st1" d="M116.3,221.9c0-0.3,0.3-0.5,0.6-0.5c0.3,0,0.6,0.2,0.6,0.5s-0.3,0.5-0.6,0.5
		C116.6,222.4,116.3,222.2,116.3,221.9z M116.5,223.4h0.7v6.1h-0.7V223.4z"/>
	<path class="st1" d="M124.1,225.4c0-1.2-0.7-1.5-1.6-1.5c-0.9,0-1.8,0.5-2.2,1v4.6h-0.7v-6.1h0.7v0.9c0.5-0.5,1.5-1.1,2.4-1.1
		c1.4,0,2.1,0.6,2.1,2v4.3h-0.7V225.4z"/>
	<path class="st1" d="M131.7,228.6c-0.6,0.6-1.5,1-2.4,1c-1.4,0-2.1-0.6-2.1-2v-4.3h0.7v4.1c0,1.2,0.7,1.5,1.6,1.5
		c0.9,0,1.8-0.5,2.2-1v-4.6h0.7v6.1h-0.7V228.6z"/>
	<path class="st1" d="M134.8,228.3V224h-1.1v-0.6h1.1v-1.7h0.7v1.7h1.4v0.6h-1.4v4.2c0,0.5,0.2,0.8,0.7,0.8c0.3,0,0.6-0.1,0.8-0.3
		l0.3,0.5c-0.3,0.2-0.6,0.4-1.1,0.4C135.2,229.7,134.8,229.2,134.8,228.3z"/>
	<path class="st1" d="M141.4,223.3c2.1,0,3.2,1.5,3.2,3.2v0.2h-5.7c0.1,1.3,1.1,2.4,2.6,2.4c0.9,0,1.6-0.3,2.2-0.8l0.4,0.4
		c-0.7,0.6-1.5,1-2.6,1c-2,0-3.4-1.3-3.4-3.2C138.1,224.7,139.5,223.3,141.4,223.3z M138.9,226.2h4.9c0-1-0.8-2.3-2.5-2.3
		C139.8,223.8,139,225.1,138.9,226.2z"/>
	<path class="st1" d="M150.1,223.4h0.7v1c0.6-0.7,1.3-1.2,2.3-1.2v0.7c-0.1,0-0.2,0-0.4,0c-0.7,0-1.6,0.6-1.9,1.1v4.4h-0.7V223.4z"
		/>
	<path class="st1" d="M154.1,226.5c0-1.8,1.3-3.2,3.2-3.2c2,0,3.3,1.4,3.3,3.2c0,1.8-1.3,3.2-3.3,3.2
		C155.4,229.7,154.1,228.2,154.1,226.5z M159.8,226.5c0-1.3-0.9-2.6-2.5-2.6c-1.6,0-2.5,1.2-2.5,2.6c0,1.4,0.9,2.6,2.5,2.6
		C159,229.1,159.8,227.8,159.8,226.5z"/>
	<path class="st1" d="M167.1,228.6c-0.6,0.6-1.5,1-2.4,1c-1.4,0-2.1-0.6-2.1-2v-4.3h0.7v4.1c0,1.2,0.7,1.5,1.6,1.5
		c0.9,0,1.8-0.5,2.2-1v-4.6h0.7v6.1h-0.7V228.6z"/>
	<path class="st1" d="M174.6,225.4c0-1.2-0.7-1.5-1.6-1.5c-0.9,0-1.8,0.5-2.2,1v4.6h-0.7v-6.1h0.7v0.9c0.5-0.5,1.5-1.1,2.4-1.1
		c1.4,0,2.1,0.6,2.1,2v4.3h-0.7V225.4z"/>
	<path class="st1" d="M182.6,228.5c-0.5,0.6-1.3,1.1-2.4,1.1c-1.8,0-3-1.2-3-3.2c0-1.9,1.2-3.2,3-3.2c1,0,1.8,0.4,2.4,1.1v-3.3h0.7
		v8.4h-0.7V228.5z M182.6,225c-0.4-0.6-1.3-1.1-2.2-1.1c-1.5,0-2.4,1.1-2.4,2.6s0.9,2.6,2.4,2.6c1,0,1.8-0.5,2.2-1.1V225z"/>
	<path class="st1" d="M185.5,228.2c0.4,0.5,1.2,0.9,2.2,0.9c1.1,0,1.8-0.5,1.8-1.2c0-0.8-0.9-1-1.9-1.2c-1.1-0.3-2.4-0.5-2.4-1.7
		c0-0.9,0.9-1.7,2.4-1.7c1.2,0,1.9,0.4,2.4,0.9l-0.4,0.5c-0.4-0.5-1.1-0.8-2-0.8c-1.1,0-1.7,0.5-1.7,1.1c0,0.7,0.9,0.9,1.8,1.1
		c1.2,0.3,2.5,0.6,2.5,1.9c0,1-0.8,1.8-2.5,1.8c-1.1,0-1.9-0.3-2.6-1L185.5,228.2z"/>
	<path class="st1" d="M195.3,226.5c0-1.8,1.3-3.2,3.2-3.2c2,0,3.3,1.4,3.3,3.2c0,1.8-1.3,3.2-3.3,3.2
		C196.6,229.7,195.3,228.2,195.3,226.5z M201,226.5c0-1.3-0.9-2.6-2.5-2.6c-1.6,0-2.5,1.2-2.5,2.6c0,1.4,0.9,2.6,2.5,2.6
		C200.1,229.1,201,227.8,201,226.5z"/>
	<path class="st1" d="M203.9,224h-1.1v-0.6h1.1v-0.6c0-1.2,0.7-1.9,1.8-1.9c0.3,0,0.6,0.1,0.9,0.2l-0.2,0.5
		c-0.2-0.1-0.4-0.1-0.6-0.1c-0.8,0-1.2,0.5-1.2,1.3v0.6h1.4v0.6h-1.4v5.5h-0.7V224z"/>
	<path class="st1" d="M211,221.1h0.7v3.3c0.5-0.7,1.4-1.1,2.4-1.1c1.8,0,3,1.3,3,3.2c0,2-1.2,3.2-3,3.2c-1,0-1.9-0.5-2.4-1.1v1H211
		V221.1z M214,229.1c1.5,0,2.4-1.1,2.4-2.6s-0.9-2.6-2.4-2.6c-0.9,0-1.8,0.5-2.2,1.1v3C212.1,228.6,213,229.1,214,229.1z"/>
	<path class="st1" d="M218.6,226.5c0-1.8,1.3-3.2,3.2-3.2c2,0,3.3,1.4,3.3,3.2c0,1.8-1.3,3.2-3.3,3.2
		C219.9,229.7,218.6,228.2,218.6,226.5z M224.3,226.5c0-1.3-0.9-2.6-2.5-2.6c-1.6,0-2.5,1.2-2.5,2.6c0,1.4,0.9,2.6,2.5,2.6
		C223.4,229.1,224.3,227.8,224.3,226.5z"/>
	<path class="st1" d="M228.7,226.8l-2.3,2.7h-0.9l2.7-3.1l-2.5-3h0.9l2.1,2.5l2.1-2.5h0.9l-2.5,3l2.7,3.1H231L228.7,226.8z"/>
	<path class="st1" d="M233,221.9c0-0.3,0.3-0.5,0.6-0.5c0.3,0,0.6,0.2,0.6,0.5s-0.3,0.5-0.6,0.5C233.3,222.4,233,222.2,233,221.9z
		 M233.2,223.4h0.7v6.1h-0.7V223.4z"/>
	<path class="st1" d="M240.8,225.4c0-1.2-0.7-1.5-1.6-1.5c-0.9,0-1.8,0.5-2.2,1v4.6h-0.7v-6.1h0.7v0.9c0.5-0.5,1.5-1.1,2.4-1.1
		c1.4,0,2.1,0.6,2.1,2v4.3h-0.7V225.4z"/>
	<path class="st1" d="M244.2,230.6c0.6,0.6,1.2,0.9,2.2,0.9c1.2,0,2.3-0.6,2.3-2v-1c-0.5,0.6-1.3,1.1-2.4,1.1c-1.8,0-3-1.2-3-3.2
		c0-1.9,1.2-3.2,3-3.2c1,0,1.8,0.4,2.4,1.1v-1h0.7v6c0,1.9-1.4,2.5-3.1,2.5c-1.1,0-1.9-0.2-2.7-0.9L244.2,230.6z M248.7,225
		c-0.4-0.6-1.3-1.1-2.2-1.1c-1.5,0-2.4,1.1-2.4,2.6s0.9,2.6,2.4,2.6c0.9,0,1.8-0.5,2.2-1.1V225z"/>
	<path class="st1" d="M76,240.1l-1.5,1.4l-0.5-0.5l2.1-2h0.7v8.4H76V240.1z"/>
	<path class="st1" d="M78.8,246.9c3.2-2.3,5.3-3.9,5.3-5.6c0-1.2-1.1-1.7-2.1-1.7c-1.2,0-2.1,0.5-2.6,1.1l-0.5-0.5
		c0.7-0.8,1.8-1.3,3.1-1.3c1.4,0,2.9,0.7,2.9,2.4c0,1.9-2.2,3.5-4.9,5.5h4.9v0.7h-6.2V246.9z"/>
	<path class="st1" d="M98.9,243.3c0-0.9-0.4-1.4-1.4-1.4c-0.7,0-1.6,0.5-1.9,1v4.6h-0.7v-4.3c0-0.9-0.4-1.4-1.4-1.4
		c-0.7,0-1.5,0.5-1.9,1v4.6h-0.7v-6.1h0.7v0.9c0.3-0.4,1.2-1.1,2.2-1.1c1.1,0,1.6,0.6,1.8,1.1c0.4-0.6,1.3-1.1,2.2-1.1
		c1.2,0,1.8,0.6,1.8,1.9v4.4h-0.7V243.3z"/>
	<path class="st1" d="M101.7,239.9c0-0.3,0.3-0.5,0.6-0.5c0.3,0,0.6,0.2,0.6,0.5s-0.3,0.5-0.6,0.5
		C102,240.4,101.7,240.2,101.7,239.9z M101.9,241.4h0.7v6.1h-0.7V241.4z"/>
	<path class="st1" d="M109.5,243.4c0-1.2-0.7-1.5-1.6-1.5c-0.9,0-1.8,0.5-2.2,1v4.6h-0.7v-6.1h0.7v0.9c0.5-0.5,1.5-1.1,2.4-1.1
		c1.4,0,2.1,0.6,2.1,2v4.3h-0.7V243.4z"/>
	<path class="st1" d="M117.1,246.6c-0.6,0.6-1.5,1-2.4,1c-1.4,0-2.1-0.6-2.1-2v-4.3h0.7v4.1c0,1.2,0.7,1.5,1.6,1.5
		c0.9,0,1.8-0.5,2.2-1v-4.6h0.7v6.1h-0.7V246.6z"/>
	<path class="st1" d="M120.2,246.3V242h-1.1v-0.6h1.1v-1.7h0.7v1.7h1.4v0.6h-1.4v4.2c0,0.5,0.2,0.8,0.7,0.8c0.3,0,0.6-0.1,0.8-0.3
		l0.3,0.5c-0.3,0.2-0.6,0.4-1.1,0.4C120.6,247.7,120.2,247.2,120.2,246.3z"/>
	<path class="st1" d="M126.8,241.3c2.1,0,3.2,1.5,3.2,3.2v0.2h-5.7c0.1,1.3,1.1,2.4,2.6,2.4c0.9,0,1.6-0.3,2.2-0.8l0.4,0.4
		c-0.7,0.6-1.5,1-2.6,1c-2,0-3.4-1.3-3.4-3.2C123.5,242.7,124.9,241.3,126.8,241.3z M124.3,244.2h4.9c0-1-0.8-2.3-2.5-2.3
		C125.2,241.8,124.4,243.1,124.3,244.2z"/>
	<path class="st1" d="M138.4,241.3c1.2,0,1.8,0.4,2.4,1l-0.5,0.4c-0.5-0.6-1.1-0.8-1.8-0.8c-1.6,0-2.5,1.1-2.5,2.6
		c0,1.5,1,2.6,2.5,2.6c0.7,0,1.4-0.3,1.8-0.9l0.5,0.4c-0.5,0.6-1.2,1-2.4,1c-2,0-3.3-1.4-3.3-3.2
		C135.1,242.7,136.4,241.3,138.4,241.3z"/>
	<path class="st1" d="M142,244.5c0-1.8,1.3-3.2,3.2-3.2c2,0,3.3,1.4,3.3,3.2c0,1.8-1.3,3.2-3.3,3.2C143.3,247.7,142,246.2,142,244.5
		z M147.7,244.5c0-1.3-0.9-2.6-2.5-2.6c-1.6,0-2.5,1.2-2.5,2.6c0,1.4,0.9,2.6,2.5,2.6C146.8,247.1,147.7,245.8,147.7,244.5z"/>
	<path class="st1" d="M150.4,241.4h0.7v1c0.6-0.7,1.3-1.2,2.3-1.2v0.7c-0.1,0-0.2,0-0.4,0c-0.7,0-1.6,0.6-1.9,1.1v4.4h-0.7V241.4z"
		/>
	<path class="st1" d="M157.7,241.3c2.1,0,3.2,1.5,3.2,3.2v0.2h-5.7c0.1,1.3,1.1,2.4,2.6,2.4c0.9,0,1.6-0.3,2.2-0.8l0.4,0.4
		c-0.7,0.6-1.5,1-2.6,1c-2,0-3.4-1.3-3.4-3.2C154.4,242.7,155.8,241.3,157.7,241.3z M155.2,244.2h4.9c0-1-0.8-2.3-2.5-2.3
		C156.1,241.8,155.3,243.1,155.2,244.2z"/>
	<path class="st1" d="M170.7,246.8c-0.6,0.6-1.4,0.9-2.3,0.9c-1.2,0-2.4-0.7-2.4-2c0-1.3,1.2-2,2.4-2c0.9,0,1.7,0.3,2.3,0.9v-1.2
		c0-0.9-0.8-1.4-1.8-1.4c-0.8,0-1.5,0.3-2.1,0.9l-0.4-0.5c0.7-0.7,1.5-1,2.6-1c1.4,0,2.5,0.6,2.5,2v4.3h-0.7V246.8z M170.7,245
		c-0.5-0.6-1.2-0.8-2-0.8c-1.1,0-1.8,0.6-1.8,1.5c0,0.9,0.7,1.5,1.8,1.5c0.8,0,1.6-0.3,2-0.8V245z"/>
	<path class="st1" d="M178.2,243.4c0-1.2-0.7-1.5-1.6-1.5c-0.9,0-1.8,0.5-2.2,1v4.6h-0.7v-6.1h0.7v0.9c0.5-0.5,1.5-1.1,2.4-1.1
		c1.4,0,2.1,0.6,2.1,2v4.3h-0.7V243.4z"/>
	<path class="st1" d="M186.2,246.5c-0.5,0.6-1.3,1.1-2.4,1.1c-1.8,0-3-1.2-3-3.2c0-1.9,1.2-3.2,3-3.2c1,0,1.8,0.4,2.4,1.1v-3.3h0.7
		v8.4h-0.7V246.5z M186.2,243c-0.4-0.6-1.3-1.1-2.2-1.1c-1.5,0-2.4,1.1-2.4,2.6s0.9,2.6,2.4,2.6c1,0,1.8-0.5,2.2-1.1V243z"/>
	<path class="st1" d="M193.1,242H192v-0.6h1.1v-0.6c0-1.2,0.7-1.9,1.8-1.9c0.3,0,0.6,0.1,0.9,0.2l-0.2,0.5c-0.2-0.1-0.4-0.1-0.6-0.1
		c-0.8,0-1.2,0.5-1.2,1.3v0.6h1.4v0.6h-1.4v5.5h-0.7V242z M196.6,239.1h0.7v8.4h-0.7V239.1z"/>
	<path class="st1" d="M202.4,241.3c2.1,0,3.2,1.5,3.2,3.2v0.2H200c0.1,1.3,1.1,2.4,2.6,2.4c0.9,0,1.6-0.3,2.2-0.8l0.4,0.4
		c-0.7,0.6-1.5,1-2.6,1c-2,0-3.4-1.3-3.4-3.2C199.2,242.7,200.6,241.3,202.4,241.3z M200,244.2h4.9c0-1-0.8-2.3-2.5-2.3
		C200.8,241.8,200,243.1,200,244.2z"/>
	<path class="st1" d="M209.4,244.8l-2.3,2.7h-0.9l2.7-3.1l-2.5-3h0.9l2.1,2.5l2.1-2.5h0.9l-2.5,3l2.7,3.1h-0.9L209.4,244.8z"/>
	<path class="st1" d="M213.6,239.9c0-0.3,0.3-0.5,0.6-0.5c0.3,0,0.6,0.2,0.6,0.5s-0.3,0.5-0.6,0.5
		C213.9,240.4,213.6,240.2,213.6,239.9z M213.8,241.4h0.7v6.1h-0.7V241.4z"/>
	<path class="st1" d="M216.8,239.1h0.7v3.3c0.5-0.7,1.4-1.1,2.4-1.1c1.8,0,3,1.3,3,3.2c0,2-1.2,3.2-3,3.2c-1,0-1.9-0.5-2.4-1.1v1
		h-0.7V239.1z M219.8,247.1c1.5,0,2.4-1.1,2.4-2.6s-0.9-2.6-2.4-2.6c-0.9,0-1.8,0.5-2.2,1.1v3C218,246.6,218.9,247.1,219.8,247.1z"
		/>
	<path class="st1" d="M224.6,239.9c0-0.3,0.3-0.5,0.6-0.5c0.3,0,0.6,0.2,0.6,0.5s-0.3,0.5-0.6,0.5
		C224.9,240.4,224.6,240.2,224.6,239.9z M224.8,241.4h0.7v6.1h-0.7V241.4z"/>
	<path class="st1" d="M227.8,239.1h0.7v8.4h-0.7V239.1z"/>
	<path class="st1" d="M230.6,239.9c0-0.3,0.3-0.5,0.6-0.5c0.3,0,0.6,0.2,0.6,0.5s-0.3,0.5-0.6,0.5
		C230.9,240.4,230.6,240.2,230.6,239.9z M230.8,241.4h0.7v6.1h-0.7V241.4z"/>
	<path class="st1" d="M234,246.3V242h-1.1v-0.6h1.1v-1.7h0.7v1.7h1.4v0.6h-1.4v4.2c0,0.5,0.2,0.8,0.7,0.8c0.3,0,0.6-0.1,0.8-0.3
		l0.3,0.5c-0.3,0.2-0.6,0.4-1.1,0.4C234.4,247.7,234,247.2,234,246.3z"/>
	<path class="st1" d="M237.9,249.4c0.4,0,0.8-0.2,1-0.7l0.5-1.1l-2.9-6.1h0.8l2.5,5.3l2.4-5.3h0.8l-3.5,7.4
		c-0.4,0.8-0.9,1.1-1.7,1.1c-0.2,0-0.5,0-0.7-0.1l0.1-0.6C237.5,249.4,237.8,249.4,237.9,249.4z"/>
	<path class="st1" d="M250.9,241.3c1.2,0,1.8,0.4,2.4,1l-0.5,0.4c-0.5-0.6-1.1-0.8-1.8-0.8c-1.6,0-2.5,1.1-2.5,2.6
		c0,1.5,1,2.6,2.5,2.6c0.7,0,1.4-0.3,1.8-0.9l0.5,0.4c-0.5,0.6-1.2,1-2.4,1c-2,0-3.3-1.4-3.3-3.2
		C247.6,242.7,248.9,241.3,250.9,241.3z"/>
	<path class="st1" d="M254.6,244.5c0-1.8,1.3-3.2,3.2-3.2c2,0,3.3,1.4,3.3,3.2c0,1.8-1.3,3.2-3.3,3.2
		C255.8,247.7,254.6,246.2,254.6,244.5z M260.3,244.5c0-1.3-0.9-2.6-2.5-2.6c-1.6,0-2.5,1.2-2.5,2.6c0,1.4,0.9,2.6,2.5,2.6
		C259.4,247.1,260.3,245.8,260.3,244.5z"/>
	<path class="st1" d="M262.5,244.5c0-1.8,1.3-3.2,3.2-3.2c2,0,3.3,1.4,3.3,3.2c0,1.8-1.3,3.2-3.3,3.2
		C263.8,247.7,262.5,246.2,262.5,244.5z M268.3,244.5c0-1.3-0.9-2.6-2.5-2.6c-1.6,0-2.5,1.2-2.5,2.6c0,1.4,0.9,2.6,2.5,2.6
		C267.4,247.1,268.3,245.8,268.3,244.5z"/>
	<path class="st1" d="M270.9,239.1h0.7v8.4h-0.7V239.1z"/>
	<path class="st1" d="M278.9,246.5c-0.5,0.6-1.3,1.1-2.4,1.1c-1.8,0-3-1.2-3-3.2c0-1.9,1.2-3.2,3-3.2c1,0,1.8,0.4,2.4,1.1v-3.3h0.7
		v8.4h-0.7V246.5z M278.9,243c-0.4-0.6-1.3-1.1-2.2-1.1c-1.5,0-2.4,1.1-2.4,2.6s0.9,2.6,2.4,2.6c1,0,1.8-0.5,2.2-1.1V243z"/>
	<path class="st1" d="M281.5,244.5c0-1.8,1.3-3.2,3.2-3.2c2,0,3.3,1.4,3.3,3.2c0,1.8-1.3,3.2-3.3,3.2
		C282.8,247.7,281.5,246.2,281.5,244.5z M287.3,244.5c0-1.3-0.9-2.6-2.5-2.6c-1.6,0-2.5,1.2-2.5,2.6c0,1.4,0.9,2.6,2.5,2.6
		C286.4,247.1,287.3,245.8,287.3,244.5z"/>
	<path class="st1" d="M293.8,242.3l-1.9,5.2h-0.7l-2.2-6.1h0.8l1.8,5.2l1.9-5.2h0.6l1.9,5.2l1.8-5.2h0.8l-2.2,6.1h-0.7L293.8,242.3z
		"/>
	<path class="st1" d="M304.6,243.4c0-1.2-0.7-1.5-1.6-1.5c-0.9,0-1.8,0.5-2.2,1v4.6H300v-6.1h0.7v0.9c0.5-0.5,1.5-1.1,2.4-1.1
		c1.4,0,2.1,0.6,2.1,2v4.3h-0.7V243.4z"/>
</g>
<g>
	<path class="st1" d="M156.2,153.6c1.4,0,2.8,0.4,3.7,0.9l-1.5,2.4c-0.7-0.4-1.3-0.6-2.2-0.6c-1.4,0-2.6,0.8-2.6,2.1v0
		c0.6-0.7,1.7-1.1,2.8-1.1c2.2,0,4.2,1.2,4.2,3.5c0,2.3-2.1,3.9-5,3.9c-3.9,0-5.7-2.4-5.7-5.6C149.9,155.6,152.4,153.6,156.2,153.6z
		 M155.2,160c-0.6,0-1.2,0.1-1.7,0.4c0.1,0.7,0.6,1.6,1.9,1.6c0.9,0,1.5-0.5,1.5-1C156.9,160.3,156,160,155.2,160z"/>
	<path class="st1" d="M166.4,153.6c3.6,0,5.3,2.6,5.3,5.6s-1.7,5.6-5.3,5.6s-5.3-2.7-5.3-5.6S162.9,153.6,166.4,153.6z M166.4,156.5
		c-1.2,0-1.7,0.9-1.7,2.7c0,1.8,0.5,2.7,1.7,2.7s1.7-0.9,1.7-2.7C168.1,157.4,167.6,156.5,166.4,156.5z"/>
	<path class="st1" d="M188.7,160c0-0.5-0.3-0.9-1-0.9c-0.7,0-1.1,0.4-1.3,0.6v4.8h-3.2V160c0-0.5-0.3-0.9-1-0.9
		c-0.7,0-1.1,0.4-1.3,0.6v4.8h-3.2v-7.8h3.2v0.9c0.4-0.4,1.5-1.1,2.9-1.1c1.2,0,2.1,0.4,2.5,1.4c0.5-0.7,1.6-1.4,3-1.4
		c1.6,0,2.7,0.7,2.7,2.3v5.7h-3.2V160z"/>
	<path class="st1" d="M193.5,154.6c0-0.9,0.8-1.6,1.8-1.6c1,0,1.8,0.7,1.8,1.6c0,0.9-0.8,1.6-1.8,1.6
		C194.3,156.2,193.5,155.5,193.5,154.6z M193.7,156.8h3.2v7.8h-3.2V156.8z"/>
	<path class="st1" d="M204.7,160.3c0-0.8-0.5-1.1-1.3-1.1c-0.7,0-1.1,0.3-1.4,0.6v4.8h-3.2v-7.8h3.2v0.9c0.5-0.5,1.5-1.1,3-1.1
		c2,0,2.9,1.1,2.9,2.5v5.6h-3.2V160.3z"/>
</g>
<line class="st2" x1="141.8" y1="159.6" x2="45.3" y2="159.6"/>
<line class="st2" x1="314.7" y1="159.6" x2="218.2" y2="159.6"/>
<g>
	<path class="st1" d="M180.3,41c4.9-7.3,9.5-14.3,14.3-21.4c3.8,1.1,7.4,2.1,11.2,3.2c-5.3,8-10.5,15.8-15.9,23.9
		c-6.4-1.9-12.7-2-19.2,0c-5.3-8-10.5-15.9-15.9-23.9c3.7-1.1,7.3-2.1,11.2-3.2C170.8,26.7,175.5,33.7,180.3,41z"/>
	<path class="st1" d="M197.6,64.5c-0.1,9.6-7.9,17.4-17.4,17.3c-9.7-0.1-17.3-7.9-17.2-17.7c0.1-9.6,7.8-17.2,17.5-17.1
		C190,47,197.7,54.9,197.6,64.5z"/>
</g>
<circle class="st1" cx="56.7" cy="208" r="2.8"/>
<circle class="st1" cx="56.7" cy="226.3" r="2.8"/>
<circle class="st1" cx="56.7" cy="244.5" r="2.8"/>
<path class="st3" d="M193.2,64.5c0,7.1-5.9,12.9-12.9,12.8c-7.2-0.1-12.8-5.8-12.8-13.1c0.1-7.1,5.8-12.8,13-12.7
	C187.6,51.5,193.2,57.3,193.2,64.5z"/>
</svg>
