<?xml version="1.0" encoding="utf-8"?>
<!-- Generator: Adobe Illustrator 22.1.0, SVG Export Plug-In . SVG Version: 6.00 Build 0)  -->
<svg version="1.1" id="Layer_1" xmlns="http://www.w3.org/2000/svg" xmlns:xlink="http://www.w3.org/1999/xlink" x="0px" y="0px"
	 viewBox="0 0 72 72" style="enable-background:new 0 0 72 72;" xml:space="preserve">
<style type="text/css">
	.st0{fill:#FFB703;}
</style>
<g>
	<path class="st0" d="M23.1,19.4c0.5-1.7,0.9-3.4,1.6-5c1.5-3.6,4.3-5.5,7.9-6.4c2.9-0.7,5.8-0.6,8.7-0.5c2.1,0.1,4.3,0.2,6.4,0.7
		c4.2,0.9,6.9,3.7,8.2,7.8c0.5,1.6,0.7,3.2,0.8,4.9c0.4,6-0.9,11.8-2.6,17.6c-0.6,2-1.3,4-1.9,6c-0.2,0.6-0.5,0.7-1,0.6
		c-0.3-0.1-0.6-0.1-1-0.1c-6.9,0-13.7,0-20.6,0c-0.6,0-1.3,0.2-1.7-0.1c-0.4-0.3-0.4-1-0.6-1.6c-0.2-0.7-0.6-1.1-1.3-1.5
		c-3.4-1.7-6.3-4.2-8.3-7.4c-1.8-2.9-2.6-6.1-2.4-9.5c0.2-2,0.7-4,2.1-5.6C19.1,17.4,21.2,17.1,23.1,19.4z"/>
	<path class="st0" d="M39.9,61.6c-3.6,0-7.2,0-10.7,0c-1.3,0-2.2-0.9-2.2-2.2c0-3.8,0-7.7,0-11.5c0-1.3,1-2.3,2.2-2.3
		c7.2,0,14.5,0,21.7,0c1.2,0,2.2,1,2.2,2.4c0,3.8,0,7.6,0,11.4c0,1.3-1,2.2-2.3,2.2C47.1,61.6,43.5,61.6,39.9,61.6z"/>
	<path class="st0" d="M29.6,64.7c0-0.8,0-1.5,0-2.3c0.3,0,0.6,0,1,0c6.2,0,12.4,0,18.6,0c1.2,0,1.2,0,1.2,1.3c0,0.3,0,0.7,0,1.1
		C43.4,64.7,36.6,64.7,29.6,64.7z"/>
</g>
</svg>
