<?xml version="1.0" encoding="utf-8"?>
<!-- Generator: Adobe Illustrator 22.1.0, SVG Export Plug-In . SVG Version: 6.00 Build 0)  -->
<svg version="1.1" id="Layer_1" xmlns="http://www.w3.org/2000/svg" xmlns:xlink="http://www.w3.org/1999/xlink" x="0px" y="0px"
	 viewBox="0 0 504 504" style="enable-background:new 0 0 504 504;" xml:space="preserve">
<style type="text/css">
	.st0{fill:white;}
</style>
<g>
	<path class="st0" d="M86.8,326.2c-23.3,0-25.3-1.6-31-24.3C47.7,269.9,39.6,238,32,206c-2-8.3-4.6-14.8-11.8-20.5
		c-13.1-10.5-14.5-24.6-5.8-37.1c8.2-11.8,24.8-15.2,37.1-7.7c12.6,7.7,17,21.8,9.1,36.3c-4.2,7.7-4,12,2.2,17.7
		c10.3,9.4,19.5,20,29.8,29.4c24.4,22.3,55.9,20.7,77-5c19.7-24,37.6-49.4,56.6-74c4.6-5.9,3.3-10.4,0.7-17.1
		c-6.6-17.2,1.5-33.3,17.6-38.1c10.1-3,18.8,0,26.3,6.9c9.1,8.3,11,19.5,6.3,29.6c-4.4,9.5-1.5,15.2,3.8,22.1
		c16.5,21.7,32.4,43.9,49.1,65.4c25,32.4,56.7,34.3,86,5.7c7.3-7.1,14.1-14.6,21.6-21.4c7.6-7,11.1-12.5,4.6-23.7
		c-8.8-15.1,1.2-33.1,17.6-36.9c12.8-3,24.7,2,30.9,12.9c6.5,11.3,5.7,24.2-4.8,32.8c-8.7,7.1-11.7,15.6-14.1,25.6
		c-7.4,30.8-15.2,61.5-22.9,92.2c-5.6,22.5-6.7,23.5-29.3,23.5"/>
	<path class="st0" d="M252.3,415.2c-55.1,0-110.2,0.1-165.3,0c-21.2,0-24.1-3-24.4-24.1c0-1.3,0-2.5,0-3.8
		c-0.1-29.6,1.6-31.4,30.8-31.4c106.4,0,212.8,0,319.2,0c4.4,0,8.9-0.1,13.3,0.2c10.3,0.7,16.6,5.4,16.3,16.7
		c-0.1,5.1,0,10.1,0,15.2c-0.1,26.1-1.2,27.2-26.5,27.2C361.3,415.2,306.8,415.2,252.3,415.2z"/>
</g>
</svg>
