<svg id="Layer_1" data-name="Layer 1" xmlns="http://www.w3.org/2000/svg" viewBox="0 0 231.3 73.84"><defs><style>.cls-1{fill:#fff;}.cls-2{fill:#bcbec0;}.cls-3{fill:#be1e2d;}</style></defs><title>LevelRedBoxing_Full_RED</title><path class="cls-1" d="M86.13,186.32v6.47H67.84V168.43h9.43v17.89Z" transform="translate(-67.84 -148.95)"/><path class="cls-1" d="M89.18,192.79V168.4h18.26v6.26h-9v2.65h8.4v6.27h-8.4v2.88h9.36v6.33Z" transform="translate(-67.84 -148.95)"/><path class="cls-1" d="M128.74,192.82H116.2l-6.87-24.69h9.85l3.53,19.18,3.71-19.18h9.21Z" transform="translate(-67.84 -148.95)"/><path class="cls-1" d="M139.8,192.79V168.4h18.26v6.26H149v2.65h8.4v6.27H149v2.88h9.36v6.33Z" transform="translate(-67.84 -148.95)"/><path class="cls-1" d="M180.81,186.32v6.47H162.52V168.43H172v17.89Z" transform="translate(-67.84 -148.95)"/><polygon class="cls-2" points="154.48 42.21 154.48 44.92 170.63 44.92 170.63 0 154.48 0 154.48 2.87 163.75 2.87 163.75 42.21 154.48 42.21"/><polygon class="cls-2" points="133.2 2.71 133.2 0 117.05 0 117.05 44.92 133.2 44.92 133.2 42.04 123.93 42.04 123.93 2.71 133.2 2.71"/><path class="cls-3" d="M229.28,158a18.42,18.42,0,0,1-3.83,11.77,11.28,11.28,0,0,1-1.14,1.31,12.17,12.17,0,0,1,1.14,1.31,18.42,18.42,0,0,1,3.83,11.77v3.57h-7.13v-3.57a12.46,12.46,0,0,0-1.74-6.73q-1.74-2.77-4.21-2.78H203.12v13.08H196V174.65H193.6l-1.18-7.14H196V154.43h33.3Zm-13.08,9.51c1.65,0,3.05-.92,4.21-2.78a11.3,11.3,0,0,0,1.33-3.16H203.12v5.94Z" transform="translate(-67.84 -148.95)"/><path class="cls-1" d="M118,222.44V202.07h7.62c2.21,0,3.94.06,5.18.19a10.89,10.89,0,0,1,3,.64,4.33,4.33,0,0,1,2.11,1.74,5.06,5.06,0,0,1,.75,2.79,4.09,4.09,0,0,1-1,2.8,5.57,5.57,0,0,1-2.91,1.6,5.93,5.93,0,0,1,3.33,1.6,4.49,4.49,0,0,1,1.08,3.18,5,5,0,0,1-2.11,4.36c-1.4,1-3.51,1.47-6.3,1.47Zm7.56-12.2h1a3,3,0,0,0,1.83-.48,1.61,1.61,0,0,0,.64-1.38,1.68,1.68,0,0,0-.64-1.43,3,3,0,0,0-1.86-.49h-1Zm0,3.88v4h1.3a3,3,0,0,0,1.9-.51,1.94,1.94,0,0,0,.62-1.56,1.74,1.74,0,0,0-.62-1.46,3.11,3.11,0,0,0-1.9-.49Z" transform="translate(-67.84 -148.95)"/><path class="cls-1" d="M149.39,222.76q-4.9,0-7.59-2.75c-1.79-1.82-2.69-4.4-2.69-7.72s.91-6,2.74-7.81,4.43-2.74,7.79-2.74,5.93.91,7.75,2.74,2.72,4.42,2.72,7.78-.92,6-2.75,7.8S152.88,222.76,149.39,222.76Zm.23-15.73a1.78,1.78,0,0,0-1.76,1.12,11.28,11.28,0,0,0-.52,4.19,10.59,10.59,0,0,0,.52,4,1.76,1.76,0,0,0,1.73,1.14,1.79,1.79,0,0,0,1.76-1.2,12.45,12.45,0,0,0,.51-4.32,10.05,10.05,0,0,0-.51-3.88A1.75,1.75,0,0,0,149.62,207Z" transform="translate(-67.84 -148.95)"/><path class="cls-1" d="M161,202.07h8.3l2.78,5.63,2.74-5.63h7.95l-6.14,9.68,6.49,10.69h-8.5l-3-6.16-3.42,6.16h-7.9l6.78-10.36Z" transform="translate(-67.84 -148.95)"/><path class="cls-1" d="M192.7,202.07v20.37h-8V202.07Z" transform="translate(-67.84 -148.95)"/><path class="cls-1" d="M203.32,209.91v12.53H196.8V202.07h9.65l4.46,12.19V202.07h6.52v20.37h-9.65Z" transform="translate(-67.84 -148.95)"/><path class="cls-1" d="M241.5,221.36a47.75,47.75,0,0,1-5.44,1.06,37.17,37.17,0,0,1-5,.36,10.61,10.61,0,0,1-7.83-2.86,10.44,10.44,0,0,1-2.88-7.77,9.71,9.71,0,0,1,3.08-7.66q3.06-2.73,8.66-2.73a11,11,0,0,1,6.68,1.74,5.76,5.76,0,0,1,2.34,4.93v.11h-7.32a1.68,1.68,0,0,0-.63-1.22,2.22,2.22,0,0,0-1.43-.43,2.51,2.51,0,0,0-2.4,1.31,10,10,0,0,0-.71,4.47,8.49,8.49,0,0,0,.68,4,2.41,2.41,0,0,0,2.27,1.17,3.91,3.91,0,0,0,1.13-.16,4.07,4.07,0,0,0,1.09-.49v-2.32H231v-4H241.5Z" transform="translate(-67.84 -148.95)"/><path class="cls-1" d="M242.67,192.81V167.08h19.26v6.61h-9.55v2.79h8.87v6.61h-8.87v3h9.88v6.68Z" transform="translate(-67.84 -148.95)"/><path class="cls-1" d="M266.64,192.84V167.08h11.51c4.74,0,8.27,1,10.56,3.14s3.45,5.3,3.45,9.63-1.17,7.54-3.51,9.72-5.81,3.27-10.43,3.27Zm9.94-6,.31,0,.28,0a4,4,0,0,0,3.61-1.63q1.1-1.63,1.09-5.49t-1-5.29a3.69,3.69,0,0,0-3.35-1.57H277l-.37,0Z" transform="translate(-67.84 -148.95)"/><path class="cls-1" d="M299.14,166.5a2.92,2.92,0,1,1-2.91-2.83A2.85,2.85,0,0,1,299.14,166.5Zm-5.1,0a2.2,2.2,0,0,0,2.21,2.27,2.27,2.27,0,0,0,0-4.53A2.2,2.2,0,0,0,294,166.5Zm1.74,1.49h-.65v-2.84a6,6,0,0,1,1.09-.08,1.69,1.69,0,0,1,1,.21.76.76,0,0,1,.28.62.71.71,0,0,1-.59.65v0a.83.83,0,0,1,.52.69,2.21,2.21,0,0,0,.21.71h-.71a2.32,2.32,0,0,1-.23-.69c-.05-.31-.22-.45-.58-.45h-.32Zm0-1.61h.31c.37,0,.66-.12.66-.41s-.19-.44-.61-.44a1.36,1.36,0,0,0-.36,0Z" transform="translate(-67.84 -148.95)"/></svg>