<svg id="Layer_1" data-name="Layer 1" xmlns="http://www.w3.org/2000/svg" viewBox="0 0 312.64 27.22"><defs><style>.cls-1{fill:#fff;}</style></defs><title>LevelRedBoxing_Horiz_WHITE</title><path class="cls-1" d="M39.45,182.92V188H25v-19.2h7.43v14.1Z" transform="translate(-25.03 -164.25)"/><path class="cls-1" d="M41.85,188V168.79H56.24v4.94H49.11v2.09h6.62v4.94H49.11V183h7.38v5Z" transform="translate(-25.03 -164.25)"/><path class="cls-1" d="M73,188.05H63.15l-5.41-19.46H65.5l2.78,15.11,2.92-15.11h7.26Z" transform="translate(-25.03 -164.25)"/><path class="cls-1" d="M81.75,188V168.79H96.14v4.94H89v2.09h6.62v4.94H89V183h7.38v5Z" transform="translate(-25.03 -164.25)"/><path class="cls-1" d="M114.08,182.92V188H99.66v-19.2h7.43v14.1Z" transform="translate(-25.03 -164.25)"/><polygon class="cls-1" points="120.03 25.58 120.03 27.23 129.82 27.23 129.82 0 120.03 0 120.03 1.74 125.65 1.74 125.65 25.58 120.03 25.58"/><polygon class="cls-1" points="107.13 1.64 107.13 0 97.34 0 97.34 27.23 107.13 27.23 107.13 25.48 101.51 25.48 101.51 1.64 107.13 1.64"/><path class="cls-1" d="M149.28,169.74a11.16,11.16,0,0,1-2.32,7.13,7.79,7.79,0,0,1-.69.8,7.65,7.65,0,0,1,.69.79,11.19,11.19,0,0,1,2.32,7.14v2.16H145V185.6a7.55,7.55,0,0,0-1.06-4.08,3,3,0,0,0-2.55-1.69h-7.93v7.93H129.1v-7.93h-1.44l-.73-4.33h2.17v-7.92h20.18Zm-7.93,5.76a3,3,0,0,0,2.55-1.68,6.85,6.85,0,0,0,.81-1.92H133.42v3.6Z" transform="translate(-25.03 -164.25)"/><path class="cls-1" d="M206.53,188V167.65h7.61c2.21,0,3.94.06,5.18.19a10.89,10.89,0,0,1,3,.64,4.4,4.4,0,0,1,2.12,1.74,5.14,5.14,0,0,1,.74,2.79,4.09,4.09,0,0,1-1,2.8,5.57,5.57,0,0,1-2.91,1.6,6,6,0,0,1,3.34,1.6,4.51,4.51,0,0,1,1.08,3.18,5,5,0,0,1-2.12,4.36q-2.1,1.47-6.3,1.47Zm7.56-12.2h1a3,3,0,0,0,1.83-.48,1.61,1.61,0,0,0,.64-1.38,1.68,1.68,0,0,0-.64-1.43,3,3,0,0,0-1.85-.49h-1Zm0,3.88v4h1.29a3,3,0,0,0,1.9-.51,1.94,1.94,0,0,0,.62-1.56,1.74,1.74,0,0,0-.62-1.46,3.11,3.11,0,0,0-1.9-.49Z" transform="translate(-25.03 -164.25)"/><path class="cls-1" d="M237.9,188.34q-4.91,0-7.59-2.75c-1.79-1.82-2.69-4.4-2.69-7.72s.91-6,2.74-7.8,4.43-2.75,7.79-2.75,5.93.91,7.75,2.74,2.72,4.42,2.72,7.78-.92,6-2.74,7.8S241.39,188.34,237.9,188.34Zm.23-15.73a1.78,1.78,0,0,0-1.76,1.12,11.28,11.28,0,0,0-.52,4.19,10.68,10.68,0,0,0,.52,4,1.76,1.76,0,0,0,1.73,1.13,1.79,1.79,0,0,0,1.76-1.2,12.45,12.45,0,0,0,.51-4.32,10.3,10.3,0,0,0-.5-3.88A1.78,1.78,0,0,0,238.13,172.61Z" transform="translate(-25.03 -164.25)"/><path class="cls-1" d="M249.5,167.65h8.3l2.78,5.63,2.74-5.63h7.95l-6.14,9.68L271.62,188h-8.5l-3-6.16L256.71,188h-7.9l6.78-10.36Z" transform="translate(-25.03 -164.25)"/><path class="cls-1" d="M281.21,167.65V188h-8V167.65Z" transform="translate(-25.03 -164.25)"/><path class="cls-1" d="M291.83,175.49V188h-6.52V167.65H295l4.46,12.19V167.65h6.52V188h-9.65Z" transform="translate(-25.03 -164.25)"/><path class="cls-1" d="M330,186.94a47.75,47.75,0,0,1-5.44,1.06,37.17,37.17,0,0,1-5,.36,10.61,10.61,0,0,1-7.83-2.86,10.43,10.43,0,0,1-2.87-7.77,9.7,9.7,0,0,1,3.07-7.66c2.05-1.82,4.93-2.73,8.67-2.73a11,11,0,0,1,6.67,1.74A5.76,5.76,0,0,1,329.6,174v.11h-7.32a1.68,1.68,0,0,0-.63-1.22,2.22,2.22,0,0,0-1.43-.43,2.53,2.53,0,0,0-2.4,1.31,10.18,10.18,0,0,0-.71,4.47,8.49,8.49,0,0,0,.68,4,2.42,2.42,0,0,0,2.28,1.17,3.84,3.84,0,0,0,1.12-.16,4.07,4.07,0,0,0,1.09-.49v-2.32h-2.73v-4H330Z" transform="translate(-25.03 -164.25)"/><path class="cls-1" d="M157.83,188V167.75H173V173h-7.52v2.2h7v5.22h-7v2.39h7.78V188Z" transform="translate(-25.03 -164.25)"/><path class="cls-1" d="M176.72,188.06V167.75h9.08q5.61,0,8.32,2.48t2.72,7.59c0,3.39-.92,6-2.76,7.66s-4.59,2.58-8.23,2.58Zm7.84-4.73.25,0H185a3.13,3.13,0,0,0,2.84-1.29,11.27,11.27,0,0,0,.06-8.49,2.9,2.9,0,0,0-2.64-1.23h-.44l-.29,0Z" transform="translate(-25.03 -164.25)"/><path class="cls-1" d="M337.67,167.25a2.85,2.85,0,0,1-2.9,2.87,2.86,2.86,0,1,1,0-5.71A2.84,2.84,0,0,1,337.67,167.25Zm-5.1,0a2.19,2.19,0,0,0,2.21,2.26,2.27,2.27,0,0,0,0-4.53A2.2,2.2,0,0,0,332.57,167.25Zm1.75,1.48h-.66V165.9a5.84,5.84,0,0,1,1.09-.09,1.75,1.75,0,0,1,1,.21.76.76,0,0,1,.28.62.73.73,0,0,1-.59.66v0a.85.85,0,0,1,.52.69,2.12,2.12,0,0,0,.21.71h-.71a2.32,2.32,0,0,1-.23-.69c0-.31-.22-.45-.58-.45h-.31Zm0-1.61h.31c.37,0,.66-.12.66-.41s-.19-.43-.6-.43a1.52,1.52,0,0,0-.37,0Z" transform="translate(-25.03 -164.25)"/></svg>