<?xml version="1.0" encoding="utf-8"?>
<!-- Generator: Adobe Illustrator 22.1.0, SVG Export Plug-In . SVG Version: 6.00 Build 0)  -->
<svg version="1.1" id="Layer_1" xmlns="http://www.w3.org/2000/svg" xmlns:xlink="http://www.w3.org/1999/xlink" x="0px" y="0px"
	 viewBox="0 0 504 504" style="enable-background:new 0 0 504 504;" xml:space="preserve">
<style type="text/css">
	.st0{fill:white;}
</style>
<g>
	<path class="st0" d="M432.7,108.9c2.8,3.1,5.6,6.2,9.2,10.3c5.9-4.1,11.7-8.3,17.6-12.3c5-3.4,9.9-7.8,15.5-9.4
		c4.5-1.3,11.8-1.1,14.5,1.7c3.2,3.4,5,10.9,3.6,15.3c-2.9,8.9-8.4,17-13,25.6c12,20.5,11.1,31.4-4.4,48.6c9,18,8.1,23.4-7.2,37.2
		c-5.1,4.6-10.7,8.7-16.7,12c-5.6,3.1-11.9,5-18.2,7.6c4.5,17.9-8.5,26.1-19.8,34.9c6.4,13.7,2.4,21.2-13,28.1
		c-4.5,2-9.1,6-11.6,10.3c-8.6,14.7-31.3,23.7-52.6,19.9c-3.7-0.7-7.3-1.5-12.4-2.5c-0.7,7.4-1.4,14.1-1.8,20.8
		c-1.1,16.5-8.6,30.2-24.3,33.9c-18.2,4.3-37.5,4-56.3,6c-8.9,1-18.4,1.1-26.2,4.7c-12.1,5.4-24.1,12.1-34.3,20.5
		c-27.5,22.9-58.3,27.6-91.5,18.3c-22.3-6.2-44.4-14.1-65.8-22.9c-15.2-6.3-20-16.4-17.1-27.4c3.1-11.9,13.8-18.5,29.7-17.9
		c5.3,0.2,11,0,15.9,1.6c17.6,5.6,31-1.4,43.9-12.5c26.2-22.8,52.7-45.2,79.1-67.8c1.7-1.5,3.3-3.2,4.9-4.8
		c15-15.4,15.1-15.7,5.4-35.4c-20.1-41-5.5-83.6,36.9-99.9c24.8-9.5,51.2-15.7,77.3-20.4c34.4-6.1,62.5-23.7,90.1-43.2
		c10.9-7.7,21-16.5,31.9-24.3c6.1-4.4,12.7-10,20.7-3.8c8.2,6.4,6.7,14.9,3,22.9C442,92.6,437.4,100.2,432.7,108.9z M115.6,431.9
		c22.7,0.7,34.9-3.2,52.3-15.4c10.3-7.2,21.3-13.5,31.3-21c3.3-2.5,6.4-7.5,6.5-11.5c0.6-24-18.5-50.8-42.1-58.7
		c-3.5-1.2-9.6,0.9-12.7,3.5c-16.8,14.4-33,29.4-49.6,44.2c-15,13.3-31.8,19-51.8,13c-4.6-1.4-10.2-2-14.7-0.8
		c-5.6,1.5-10.6,5.2-15.8,8c3.3,4.6,5.7,11.1,10.2,13.4C57,420.5,86.2,430.4,115.6,431.9z M481.3,111.1c-0.7-0.8-1.4-1.7-2.2-2.5
		c-3.9,2.6-7.9,5.2-11.8,7.9c-40.4,28-81.6,53.5-132.6,58.6c-24.1,2.4-48,8.9-71.5,15.5c-18.2,5.1-28.1,18.9-33.7,37.3
		c-7.8,26,6.9,46.7,13.5,69.4c0.7,2.4,6.9,3.7,10.7,4.3c0.8,0.1,3.9-5.6,3.4-8.1c-1.2-5.3-3.7-10.3-6.3-15.1
		c-2.6-4.9-7.4-9.2-8.6-14.3c-5-21.2,6.8-44.9,27.2-52.6c16.7-6.2,34.1-11.8,51.6-14.6c42.2-6.7,83.5-15.4,119.8-39.5
		C458.6,145.4,474,131.7,481.3,111.1z M217.4,261.5c-2.4-3.9-4.5-6.9-6.1-10c-2.4-4.7-5.7-9.3-6.4-14.3
		c-3.5-24.7,6.2-43.1,29.5-52.3c18.7-7.4,38.2-13.6,57.8-17.9c44.8-9.7,86.8-24.7,121-56.4c10.8-10.1,19-22,21.5-37.3
		c-5.2,2.2-9.4,5.3-13.4,8.5c-4.2,3.3-8.3,6.8-12.5,10c-38.7,29.8-80.7,52-130.2,58.2c-16.1,2-31.9,7.6-47.5,12.7
		c-23.5,7.6-37.3,23.1-40.9,48.6c-2.3,16.5,3.7,29.8,9.7,43.9C203,262.7,207.7,264.9,217.4,261.5z M259.8,385.4c0-0.1,0-0.1,0-0.2
		c4.2,0,8.4,0.2,12.6,0c27.4-1.6,37.2-12,38.5-39.3c0.4-8.7-0.5-16.5-8.7-20.4c-9.1-4.4-18.7-8.6-28.6-10.7
		c-22-4.5-43.1-2.5-59.7,15.1c-2,2.1-2.6,7.3-1.5,10.1c3,7.8,7.6,14.9,10.8,22.6c2.8,6.6,2.6,16.7,7.4,19.8
		c5.9,3.9,15.5,2.2,23.5,2.9C256,385.6,257.9,385.4,259.8,385.4z M353.4,210.1c0.9,1.3,1.9,2.5,2.8,3.8c28.3-1.5,55.9-7.1,82.1-17.7
		c10.7-4.4,20.7-11.3,29.8-18.7c4.1-3.3,5.8-10.1,7.1-15.7c0.6-2.6-1.5-6.7-3.7-8.6c-1-0.9-5.6,1-7.8,2.7
		c-29.5,23.7-63.4,37.5-99.9,46.1C360,202.8,356.9,207.3,353.4,210.1z M364.8,243.7c24.9-4.5,49.5-7.8,73.3-13.9
		c9.6-2.5,18.1-10.7,26.4-17.2c6.4-5,6.3-10.8-2-14.9c-31,19.1-66.3,23.6-101.3,29.1C362.4,232.2,363.3,236.3,364.8,243.7z
		 M346.4,229.6c-9,1.8-16.6,4-24.4,4.7c-18.6,1.6-37.3,2.8-56,3.4c-9.4,0.3-12.1,4.1-9.9,13.7c8.5,0,16.9,0.4,25.2-0.1
		c19-1.1,38.2-1.8,57-4.4C351.1,245,352.6,239.4,346.4,229.6z M256.9,264.1c-0.4,1.1-0.9,2.2-1.3,3.2c6.1,3.7,12,10,18.3,10.5
		c17.8,1.4,35.9,0.7,53.8,0.1c5.1-0.2,10.5-2.1,15.1-4.6c2.2-1.2,4.5-6.6,3.5-8.2c-1.4-2.5-5.7-4.7-8.7-4.6
		c-23.3,0.6-46.5,1.8-69.8,2.8C264.1,263.3,260.5,263.8,256.9,264.1z M361.2,272.1c12.9,0,26,1.6,38.5-0.6c7.4-1.3,14.4-8,20.2-13.6
		c3.2-3.1,3.3-10-4-9.3c-19.5,1.7-39,4.5-58.7,6.9C358.6,261.3,359.7,266,361.2,272.1z M193.5,319.5c9.6-6.7,18.7-12.9,27.4-19.6
		c2.8-2.2,7-6.3,6.5-8.4c-1.4-5.5-4-12.5-8.3-15c-3.4-2-11.7,0.1-15.1,3.3c-9.2,8.8-17,19.2-25.8,29.4
		C183.1,312.5,188.4,316.1,193.5,319.5z M298.8,290.9c0-0.1,0-0.2,0-0.4c-7.6,0-15.3-0.4-22.9,0.2c-2.2,0.2-5.7,3-5.8,4.6
		c0,2.1,2.5,5.8,4.5,6.3c12.2,2.9,24.5,5.8,37,7.2c4.2,0.5,9.2-2.7,13.1-5.4c1.9-1.3,3.4-5.6,2.7-7.7c-0.8-2.2-4.3-4.5-6.8-4.7
		C313.4,290.5,306.1,290.9,298.8,290.9z M272,223.9c0.2,1,0.3,1.9,0.5,2.9c19.5-1.9,39-3,58.3-6.1c4.9-0.8,8.8-7.6,13.2-11.7
		c-0.7-1-1.5-2.1-2.2-3.1C317.5,208.1,294,213,272,223.9z M340.3,291.3c13.5,10.9,56.9,9.2,64.1-2.6
		C391.5,281.5,348.2,283.2,340.3,291.3z M324.5,321.3c18.9,10.5,42.5,6.9,53.4-9.9C358.7,312.3,338.7,298.5,324.5,321.3z
		 M379.2,154.2c16.9-9.2,33.8-18.4,52.1-28.3C422.7,120.6,397.9,134.2,379.2,154.2z"/>
</g>
</svg>
