<?xml version="1.0" encoding="utf-8"?>
<!-- Generator: Adobe Illustrator 22.1.0, SVG Export Plug-In . SVG Version: 6.00 Build 0)  -->
<svg version="1.1" id="Layer_1" xmlns="http://www.w3.org/2000/svg" xmlns:xlink="http://www.w3.org/1999/xlink" x="0px" y="0px"
	 viewBox="0 0 504 504" style="enable-background:new 0 0 504 504;" xml:space="preserve">
<style type="text/css">
	.st0{fill:white;}
</style>
<g>
	<path class="st0" d="M252,175.3c38.6-57.9,75.6-113.3,113.4-170c29.8,8.4,58.5,16.4,89,25C412.1,93.8,370.7,156,328.3,219.7
		c-50.9-15.4-101.2-16.2-152.7,0.2C133.4,156.3,92,94.1,49.7,30.4C79.4,22,107.6,14,138.5,5.2C175.9,61.4,213.1,117.1,252,175.3z"/>
	<path class="st0" d="M389.1,361.7c-0.4,75.8-62.9,137.8-138.3,137.1c-77.1-0.7-137.2-62.4-136.5-140.4c0.6-76.2,62.3-136.6,139-136
		C328.8,223,389.6,285.3,389.1,361.7z"/>
</g>
</svg>
