<?xml version="1.0" standalone="no"?>
<!DOCTYPE svg PUBLIC "-//W3C//DTD SVG 20010904//EN"
 "http://www.w3.org/TR/2001/REC-SVG-20010904/DTD/svg10.dtd">
<svg version="1.0" xmlns="http://www.w3.org/2000/svg"
 width="2100.000000pt" height="2100.000000pt" viewBox="0 0 2100.000000 2100.000000"
 preserveAspectRatio="xMidYMid meet">
<metadata>
Created by potrace 1.11, written by Peter Selinger 2001-2013
</metadata>
<g transform="translate(0.000000,2100.000000) scale(0.100000,-0.100000)"
fill="#000000" stroke="none">
<path d="M700 10500 l0 -9250 3330 0 3330 0 0 590 0 590 -1910 0 -1910 0 0
3365 0 3365 245 0 245 0 0 -2695 0 -2695 1470 0 1470 0 0 2695 0 2695 2813 -3
2812 -2 98 -23 c487 -112 859 -372 1217 -847 433 -577 717 -1289 835 -2095 57
-394 58 -411 62 -1452 l4 -968 1325 0 1324 0 0 -705 0 -705 -1910 0 -1910 0 0
-555 0 -555 3330 0 3330 0 0 9250 0 9250 -3330 0 -3330 0 0 -590 0 -590 1910
0 1910 0 0 -540 0 -540 -6715 0 -6715 0 0 -2695 0 -2695 -245 0 -245 0 0 3270
0 3270 1910 0 1910 0 0 555 0 555 -3330 0 -3330 0 0 -9250z m13940 4039 c0 -7
-20 -80 -45 -163 -225 -761 -639 -1456 -1094 -1837 -306 -257 -622 -394 -987
-429 -72 -6 -1025 -10 -2826 -10 l-2718 0 0 1225 0 1225 3835 0 c2878 0 3835
-3 3835 -11z m2819 -3911 l0 -3083 -39 131 c-177 598 -424 1161 -738 1684
-249 414 -597 876 -891 1182 l-84 88 79 86 c655 712 1138 1495 1467 2374 68
183 140 402 178 539 12 45 24 81 26 81 1 0 3 -1387 2 -3082z"/>
</g>
</svg>
