<?xml version="1.0" encoding="utf-8"?>
<!-- Generator: Adobe Illustrator 20.1.0, SVG Export Plug-In . SVG Version: 6.00 Build 0)  -->
<svg version="1.1" id="Layer_1" xmlns="http://www.w3.org/2000/svg" xmlns:xlink="http://www.w3.org/1999/xlink" x="0px" y="0px"
	 viewBox="0 0 792 1224" style="enable-background:new 0 0 792 1224;" xml:space="preserve">
<style type="text/css">
	.st0{fill:#c42126;}
	.st1{fill:#FFFFFF;}
	.st2{fill:#FFFFFF;stroke:#FFFFFF;stroke-miterlimit:10;}
	.st3{fill:#FFFFFF;stroke:#FFFFFF;stroke-width:14;stroke-miterlimit:10;}
</style>
<path class="st0" d="M157.4,463.1l44.9,337.8C211.8,872.1,269.7,925,338,925h99.6c68.3,0,126.2-52.9,135.7-124l44.9-338
	c11.5-86.7-52.5-164-135.8-164H293.3C210,299,145.9,376.4,157.4,463.1z"/>
<g>
	<line class="st0" x1="387.8" y1="299" x2="387.8" y2="925"/>
	<path class="st1" d="M389.3,299c0,0,0.4,9.8,1.2,26.9c0.4,8.6,0.8,19,1.3,30.9c0.5,11.9,1,25.4,1.5,40c0.5,14.7,1.1,30.6,1.7,47.4
		c0.6,16.8,1.1,34.5,1.7,52.9c0.6,18.3,1.2,37.3,1.7,56.5c0.5,19.3,1,38.8,1.5,58.4c0.5,19.6,1.2,39.1,2.1,58.4
		c0.4,9.6,0.8,19.2,1.1,28.6c0.3,9.4,0.4,18.8,0.5,27.9c0.1,18.3-0.3,36.1-1.1,52.9c-0.3,8.4-0.8,16.6-1.1,24.5
		c-0.5,7.9-0.9,15.6-1.4,22.9c-2,29.3-4.5,53.8-6.6,70.9c-1.1,8.6-2,15.3-2.8,19.9c-0.7,4.6-1.1,7-1.1,7h-3c0,0-0.4-2.4-1.1-7
		c-0.7-4.6-1.7-11.3-2.8-19.9c-2.2-17.1-4.7-41.6-6.6-70.9c-0.5-7.3-0.9-15-1.4-22.9c-0.4-7.9-0.8-16.1-1.1-24.5
		c-0.7-16.8-1.1-34.5-1.1-52.9c0.1-9.2,0.2-18.5,0.5-27.9c0.3-9.4,0.7-19,1.1-28.6c0.8-19.3,1.6-38.8,2.1-58.4
		c0.5-19.6,1-39.1,1.5-58.4c0.5-19.3,1.1-38.2,1.7-56.5c0.6-18.3,1.1-36.1,1.7-52.9c0.6-16.8,1.2-32.7,1.7-47.4
		c0.6-14.7,1.1-28.1,1.5-40c0.5-11.9,0.9-22.3,1.3-30.9c0.7-17.1,1.2-26.9,1.2-26.9H389.3z"/>
</g>
<g>
	<path class="st1" d="M150.4,495.7c4.4,1.7,8.7,3.7,12.8,5.7c2,1,4.1,2,6.2,3.1c2,1.1,4.1,2.1,6,3.2c4,2.2,7.9,4.5,11.8,6.8
		c3.8,2.2,8,5.2,10.7,6.2c3.1,1.5,6.5,2.7,9.8,3.6c3.3,0.9,6.7,1.5,10,1.9l2.5,0.2l2.5,0.1c1.7,0,3.3,0,5-0.1l6.1-0.4l6.6-0.3
		c4.4-0.2,8.9-0.3,13.3-0.4c2.2-0.1,4.4-0.1,6.6-0.1c2.2,0,4.4,0,6.6,0c4.4,0,8.9,0.1,13.3,0.2l6.6,0.2l6.6,0.3
		c4.4,0.3,8.9,0.5,13.3,0.9l1.7,0.1l0.8,0.1l0.4,0c-0.1,0,0.3,0-0.2,0l0.1,0l0.1,0l0.2,0l2.8,0.2c0.6,0.1,1.6,0.1,2.4,0.2
		c0.8,0,1.7,0,2.6,0c3.4,0,6.9-0.3,10.4-0.9c1.7-0.3,3.5-0.7,5.2-1.1c1.7-0.5,3.5-1,5.2-1.6l-2.1,1.6c3.8-2.7,7.6-5.4,11.4-8
		c1.9-1.3,3.9-2.6,5.8-3.9c2-1.3,3.9-2.6,5.9-3.8c2-1.2,4-2.5,6-3.7c2-1.2,4-2.4,6.1-3.6c2.1-1.2,4.1-2.4,6.2-3.5
		c2.1-1.1,4.2-2.2,6.4-3.3c-1.1,2.2-2.2,4.3-3.4,6.3c-1.2,2.1-2.4,4.1-3.6,6.2c-1.2,2-2.5,4-3.7,6c-1.2,2-2.6,3.9-3.8,5.9
		c-1.3,2-2.6,3.9-3.9,5.8c-1.3,1.9-2.7,3.8-4,5.7c-2.7,3.8-5.5,7.5-8.2,11.3l-2.1,1.6c-4.1,3.5-8.6,6.5-13.5,8.9
		c-4.9,2.4-10,4.3-15.4,5.7c-1.3,0.3-2.7,0.6-4,0.9c-1.4,0.2-2.6,0.5-4.2,0.7l-3.8,0.4l-0.2,0l-0.1,0l-0.1,0c-0.6,0-0.2,0-0.3,0
		l-0.4,0l-0.8,0.1l-1.7,0.1c-4.4,0.4-8.9,0.7-13.3,0.9l-6.6,0.3l-6.6,0.2c-4.4,0.1-8.9,0.2-13.3,0.2c-2.2,0-4.4,0-6.6,0
		c-2.2,0-4.4,0-6.6-0.1c-4.4-0.1-8.9-0.2-13.3-0.4l-6.6-0.3c-2.3-0.1-4.2-0.2-7.2-0.5c-5.6-0.5-11.1-1.6-16.3-3.3
		c-5.3-1.7-10.4-3.9-15.1-6.7c-2.4-1.4-4.7-2.9-6.8-4.6c-1.1-0.8-2.1-1.7-3.2-2.6c-1-0.9-2-1.8-3-2.8l-1.6-1.6l-0.8-0.8
		c-0.3-0.3-0.4-0.4-0.6-0.7l-1.1-1.3l-0.3-0.3l-0.1-0.1l0,0c-0.5-0.4-0.1-0.1-0.3-0.2l-0.1-0.2l-0.5-0.7c-1.4-1.8-2.7-3.6-4.1-5.4
		c-2.7-3.6-5.3-7.3-7.9-11.1c-1.3-1.9-2.5-3.8-3.8-5.7c-1.3-1.9-2.5-3.9-3.7-5.8C154.8,503.9,152.5,499.9,150.4,495.7z"/>
</g>
<g>
	<path class="st1" d="M384.3,496.7c4.5,1.7,8.7,3.7,12.8,5.7c2,1,4.1,2,6.2,3.1c2,1.1,4.1,2.1,6,3.2c4,2.2,7.9,4.5,11.8,6.8
		c3.8,2.2,8,5.2,10.7,6.2c3.1,1.5,6.5,2.7,9.8,3.6c3.3,0.9,6.7,1.5,10,1.9l2.5,0.2l2.5,0.1c1.7,0,3.3,0,5-0.1l6.1-0.4l6.6-0.3
		c4.4-0.2,8.9-0.3,13.3-0.4c2.2-0.1,4.4-0.1,6.6-0.1c2.2,0,4.4,0,6.6,0c4.4,0,8.9,0.1,13.3,0.2l6.6,0.2l6.6,0.3
		c4.4,0.3,8.9,0.5,13.3,0.9l1.7,0.1l0.8,0.1l0.4,0c-0.1,0,0.3,0-0.2,0l0.1,0l0.1,0l0.2,0l2.8,0.2c0.6,0.1,1.6,0.1,2.4,0.2
		c0.8,0,1.7,0,2.6,0c3.4,0,6.9-0.3,10.4-0.9c1.7-0.3,3.5-0.7,5.2-1.1c1.7-0.5,3.5-1,5.2-1.6l-2.1,1.6c3.8-2.7,7.6-5.4,11.4-8
		c1.9-1.3,3.9-2.6,5.8-3.9c2-1.3,3.9-2.6,5.9-3.8c2-1.2,4-2.5,6-3.7c2-1.2,4-2.4,6.1-3.6c2.1-1.2,4.1-2.4,6.2-3.5
		c2.1-1.1,4.2-2.2,6.4-3.3c-1.1,2.2-2.2,4.3-3.4,6.3c-1.2,2.1-2.4,4.1-3.6,6.2c-1.2,2-2.5,4-3.7,6c-1.2,2-2.6,3.9-3.8,5.9
		c-1.3,2-2.6,3.9-3.9,5.8c-1.3,1.9-2.7,3.8-4,5.7c-2.7,3.8-5.5,7.5-8.2,11.3l-2.1,1.6c-4.1,3.5-8.6,6.5-13.5,8.9
		c-4.9,2.4-10,4.3-15.4,5.7c-1.3,0.3-2.7,0.6-4,0.9c-1.4,0.2-2.6,0.5-4.2,0.7l-3.8,0.4l-0.2,0l-0.1,0l-0.1,0c-0.6,0-0.2,0-0.3,0
		l-0.4,0l-0.8,0.1l-1.7,0.1c-4.4,0.4-8.9,0.7-13.3,0.9l-6.6,0.3l-6.6,0.2c-4.4,0.1-8.9,0.2-13.3,0.2c-2.2,0-4.4,0-6.6,0
		c-2.2,0-4.4,0-6.6-0.1c-4.4-0.1-8.9-0.2-13.3-0.4l-6.6-0.3c-2.3-0.1-4.2-0.2-7.2-0.5c-5.6-0.5-11.1-1.6-16.3-3.3
		c-5.3-1.7-10.4-3.9-15.1-6.7c-2.4-1.4-4.7-2.9-6.8-4.6c-1.1-0.8-2.1-1.7-3.2-2.6c-1-0.9-2-1.8-3-2.8l-1.6-1.6l-0.8-0.8
		c-0.3-0.3-0.4-0.4-0.6-0.7l-1.1-1.3l-0.3-0.3l-0.1-0.1l0,0c-0.5-0.4-0.1-0.1-0.3-0.2l-0.1-0.2l-0.5-0.7c-1.4-1.8-2.7-3.6-4.1-5.4
		c-2.7-3.6-5.3-7.3-7.9-11.1c-1.3-1.9-2.5-3.8-3.8-5.7c-1.3-1.9-2.5-3.9-3.7-5.8C388.7,504.9,386.4,500.9,384.3,496.7z"/>
</g>
<g>
	<path class="st1" d="M166.8,647.7c4.3,1.7,8.2,3.6,12.2,5.6c1.9,1,3.9,2,5.8,3.1c1.9,1.1,3.8,2.1,5.7,3.2c3.8,2.2,7.5,4.4,11.1,6.7
		c1.8,1.1,3.6,2.3,5.4,3.5l1.3,0.9l0.2,0.1c-0.1-0.1,0.3,0.2-0.2-0.2l0,0l0.1,0.1l0.3,0.2l0.7,0.4c0.4,0.3,0.9,0.6,1.3,0.8
		c0.3,0.1,0.7,0.3,1,0.5l2.1,1c0.7,0.4,1.5,0.6,2.3,1c0.7,0.3,1.5,0.6,2.3,0.9l2.3,0.7c3.1,0.9,6.2,1.5,9.2,1.9
		c1.5,0.2,3.1,0.3,4.6,0.3c0.8,0,1.5,0,2.3,0c0.8,0,1.5-0.1,2.3-0.1l5.5-0.4l6.3-0.3c4.2-0.2,8.5-0.3,12.7-0.4
		c2.1-0.1,4.2-0.1,6.3-0.1c2.1,0,4.2,0,6.3,0c4.2,0,8.5,0.1,12.7,0.2l6.3,0.2l6.3,0.3c4.2,0.3,8.5,0.5,12.7,0.9l1.6,0.1l0.8,0.1
		l0.4,0l0.1,0l0,0c0.1,0-0.6,0-0.3,0l0.2,0l1.6,0.1l1.1,0.1c0.6,0.1,1.4,0.1,2.2,0.2c0.8,0,1.6,0.1,2.4,0c3.2,0,6.4-0.3,9.6-0.9
		c1.6-0.3,3.2-0.7,4.8-1.1c1.6-0.5,3.2-1,4.8-1.5l-2.1,1.7c3.6-2.7,7.2-5.4,10.9-8.1c1.8-1.3,3.7-2.6,5.6-3.9
		c1.9-1.3,3.8-2.6,5.7-3.8c1.9-1.2,3.8-2.5,5.8-3.8c2-1.2,3.9-2.5,5.9-3.6c2-1.2,4-2.4,6-3.5c2-1.2,4.1-2.3,6.2-3.3
		c-1,2.1-2,4.2-3.1,6.3c-1.1,2.1-2.2,4.1-3.3,6.1c-1.1,2-2.3,4-3.4,6c-1.1,2-2.4,3.9-3.5,5.9c-1.2,2-2.4,3.9-3.6,5.8
		c-1.2,1.9-2.5,3.8-3.7,5.7c-2.5,3.8-5.1,7.5-7.7,11.2l-2.1,1.7c-3.8,3.5-8.2,6.5-12.8,9c-4.7,2.5-9.7,4.4-14.8,5.8
		c-1.3,0.3-2.6,0.6-3.9,0.9c-1.3,0.2-2.6,0.5-4.1,0.7l-3.6,0.4l-0.2,0c0.3,0-0.4,0-0.4,0l0,0l-0.1,0l-0.4,0l-0.8,0.1l-1.6,0.1
		c-4.2,0.4-8.5,0.7-12.7,0.9l-6.3,0.3l-6.3,0.2c-4.2,0.1-8.5,0.2-12.7,0.2c-2.1,0-4.2,0-6.3,0c-2.1,0-4.2,0-6.3-0.1
		c-4.2-0.1-8.5-0.2-12.7-0.4l-6.3-0.3l-3.2-0.2c-1.3-0.1-2.7-0.2-4-0.3c-1.4-0.2-2.7-0.3-4.1-0.6c-1.3-0.3-2.7-0.4-4-0.8
		c-2.6-0.6-5.3-1.3-7.8-2.2c-5.1-1.8-10-4.2-14.4-7.1c-1.1-0.7-2.2-1.5-3.3-2.3c-1.1-0.8-2.1-1.6-3.1-2.5c-1-0.9-2-1.7-3-2.6
		c-0.9-0.9-1.9-1.8-2.9-2.9l-1.5-1.6c-0.4-0.5-0.7-0.9-1-1.3l-0.5-0.6l-0.2-0.3l-0.1-0.1l0,0c-0.5-0.4-0.1-0.1-0.3-0.3l-0.1-0.2
		l-0.9-1.3c-1.2-1.8-2.5-3.5-3.7-5.3c-2.4-3.6-4.8-7.2-7.1-10.9c-1.2-1.8-2.3-3.7-3.4-5.6c-1.1-1.9-2.2-3.8-3.3-5.7
		C170.8,655.8,168.7,651.8,166.8,647.7z"/>
</g>
<g>
	<path class="st1" d="M387.8,647.7c4.3,1.7,8.2,3.6,12.2,5.6c1.9,1,3.9,2,5.8,3.1c1.9,1.1,3.8,2.1,5.7,3.2c3.8,2.2,7.5,4.4,11.1,6.7
		c1.8,1.1,3.6,2.3,5.4,3.5l1.3,0.9l0.2,0.1c-0.1-0.1,0.3,0.2-0.2-0.2l0,0l0.1,0.1l0.3,0.2l0.7,0.4c0.4,0.3,0.9,0.6,1.3,0.8
		c0.3,0.1,0.7,0.3,1,0.5l2.1,1c0.7,0.4,1.5,0.6,2.3,1c0.7,0.3,1.5,0.6,2.3,0.9l2.3,0.7c3.1,0.9,6.2,1.5,9.2,1.9
		c1.5,0.2,3.1,0.3,4.6,0.3c0.8,0,1.5,0,2.3,0c0.8,0,1.5-0.1,2.3-0.1l5.5-0.4l6.3-0.3c4.2-0.2,8.5-0.3,12.7-0.4
		c2.1-0.1,4.2-0.1,6.3-0.1c2.1,0,4.2,0,6.3,0c4.2,0,8.5,0.1,12.7,0.2l6.3,0.2l6.3,0.3c4.2,0.3,8.5,0.5,12.7,0.9l1.6,0.1l0.8,0.1
		l0.4,0l0.1,0l0,0c0.1,0-0.6,0-0.3,0l0.2,0l1.6,0.1l1.1,0.1c0.6,0.1,1.4,0.1,2.2,0.2c0.8,0,1.6,0.1,2.4,0c3.2,0,6.4-0.3,9.6-0.9
		c1.6-0.3,3.2-0.7,4.8-1.1c1.6-0.5,3.2-1,4.8-1.5l-2.1,1.7c3.6-2.7,7.2-5.4,10.9-8.1c1.8-1.3,3.7-2.6,5.6-3.9
		c1.9-1.3,3.8-2.6,5.7-3.8c1.9-1.2,3.8-2.5,5.8-3.8c2-1.2,3.9-2.5,5.9-3.6c2-1.2,4-2.4,6-3.5c2-1.2,4.1-2.3,6.2-3.3
		c-1,2.1-2,4.2-3.1,6.3c-1.1,2.1-2.2,4.1-3.3,6.1c-1.1,2-2.3,4-3.4,6c-1.1,2-2.4,3.9-3.5,5.9c-1.2,2-2.4,3.9-3.6,5.8
		c-1.2,1.9-2.5,3.8-3.7,5.7c-2.5,3.8-5.1,7.5-7.7,11.2l-2.1,1.7c-3.8,3.5-8.2,6.5-12.8,9c-4.7,2.5-9.7,4.4-14.8,5.8
		c-1.3,0.3-2.6,0.6-3.9,0.9c-1.3,0.2-2.6,0.5-4.1,0.7l-3.6,0.4l-0.2,0c0.3,0-0.4,0-0.4,0l0,0l-0.1,0l-0.4,0l-0.8,0.1l-1.6,0.1
		c-4.2,0.4-8.5,0.7-12.7,0.9l-6.3,0.3l-6.3,0.2c-4.2,0.1-8.5,0.2-12.7,0.2c-2.1,0-4.2,0-6.3,0c-2.1,0-4.2,0-6.3-0.1
		c-4.2-0.1-8.5-0.2-12.7-0.4l-6.3-0.3l-3.2-0.2c-1.3-0.1-2.7-0.2-4-0.3c-1.4-0.2-2.7-0.3-4.1-0.6c-1.3-0.3-2.7-0.4-4-0.8
		c-2.6-0.6-5.3-1.3-7.8-2.2c-5.1-1.8-10-4.2-14.4-7.1c-1.1-0.7-2.2-1.5-3.3-2.3c-1.1-0.8-2.1-1.6-3.1-2.5c-1-0.9-2-1.7-3-2.6
		c-0.9-0.9-1.9-1.8-2.9-2.9l-1.5-1.6c-0.4-0.5-0.7-0.9-1-1.3l-0.5-0.6l-0.2-0.3l-0.1-0.1l0,0c-0.5-0.4-0.1-0.1-0.3-0.3l-0.1-0.2
		l-0.9-1.3c-1.2-1.8-2.5-3.5-3.7-5.3c-2.4-3.6-4.8-7.2-7.1-10.9c-1.2-1.8-2.3-3.7-3.4-5.6c-1.1-1.9-2.2-3.8-3.3-5.7
		C391.7,655.8,389.6,651.8,387.8,647.7z"/>
</g>
<g>
	<path class="st1" d="M166.8,778.2c4.3,1.7,8.2,3.6,12.2,5.6c1.9,1,3.9,2,5.8,3.1c1.9,1.1,3.8,2.1,5.7,3.2c3.8,2.2,7.5,4.4,11.1,6.7
		c1.8,1.1,3.6,2.3,5.4,3.5l1.3,0.9l0.2,0.1c-0.1-0.1,0.3,0.2-0.2-0.2l0,0l0.1,0.1l0.3,0.2l0.7,0.4c0.4,0.3,0.9,0.6,1.3,0.8
		c0.3,0.1,0.7,0.3,1,0.5l2.1,1c0.7,0.4,1.5,0.6,2.3,1c0.7,0.3,1.5,0.6,2.3,0.9l2.3,0.7c3.1,0.9,6.2,1.5,9.2,1.9
		c1.5,0.2,3.1,0.3,4.6,0.3c0.8,0,1.5,0,2.3,0c0.8,0,1.5-0.1,2.3-0.1l5.5-0.4l6.3-0.3c4.2-0.2,8.5-0.3,12.7-0.4
		c2.1-0.1,4.2-0.1,6.3-0.1c2.1,0,4.2,0,6.3,0c4.2,0,8.5,0.1,12.7,0.2l6.3,0.2l6.3,0.3c4.2,0.3,8.5,0.5,12.7,0.9l1.6,0.1l0.8,0.1
		l0.4,0l0.1,0l0,0c0.1,0-0.6,0-0.3,0l0.2,0l1.6,0.1l1.1,0.1c0.6,0.1,1.4,0.1,2.2,0.2c0.8,0,1.6,0.1,2.4,0c3.2,0,6.4-0.3,9.6-0.9
		c1.6-0.3,3.2-0.7,4.8-1.1c1.6-0.5,3.2-1,4.8-1.5l-2.1,1.7c3.6-2.7,7.2-5.4,10.9-8.1c1.8-1.3,3.7-2.6,5.6-3.9
		c1.9-1.3,3.8-2.6,5.7-3.8c1.9-1.2,3.8-2.5,5.8-3.8c2-1.2,3.9-2.5,5.9-3.6c2-1.2,4-2.4,6-3.5c2-1.2,4.1-2.3,6.2-3.3
		c-1,2.1-2,4.2-3.1,6.3c-1.1,2.1-2.2,4.1-3.3,6.1c-1.1,2-2.3,4-3.4,6c-1.1,2-2.4,3.9-3.5,5.9c-1.2,2-2.4,3.9-3.6,5.8
		c-1.2,1.9-2.5,3.8-3.7,5.7c-2.5,3.8-5.1,7.5-7.7,11.2l-2.1,1.7c-3.8,3.5-8.2,6.5-12.8,9c-4.7,2.5-9.7,4.4-14.8,5.8
		c-1.3,0.3-2.6,0.6-3.9,0.9c-1.3,0.2-2.6,0.5-4.1,0.7l-3.6,0.4l-0.2,0c0.3,0-0.4,0-0.4,0l0,0l-0.1,0l-0.4,0l-0.8,0.1l-1.6,0.1
		c-4.2,0.4-8.5,0.7-12.7,0.9l-6.3,0.3l-6.3,0.2c-4.2,0.1-8.5,0.2-12.7,0.2c-2.1,0-4.2,0-6.3,0c-2.1,0-4.2,0-6.3-0.1
		c-4.2-0.1-8.5-0.2-12.7-0.4l-6.3-0.3l-3.2-0.2c-1.3-0.1-2.7-0.2-4-0.3c-1.4-0.2-2.7-0.3-4.1-0.6c-1.3-0.3-2.7-0.4-4-0.8
		c-2.6-0.6-5.3-1.3-7.8-2.2c-5.1-1.8-10-4.2-14.4-7.1c-1.1-0.7-2.2-1.5-3.3-2.3c-1.1-0.8-2.1-1.6-3.1-2.5c-1-0.9-2-1.7-3-2.6
		c-0.9-0.9-1.9-1.8-2.9-2.9l-1.5-1.6c-0.4-0.5-0.7-0.9-1-1.3l-0.5-0.6l-0.2-0.3l-0.1-0.1l0,0c-0.5-0.4-0.1-0.1-0.3-0.3l-0.1-0.2
		l-0.9-1.3c-1.2-1.8-2.5-3.5-3.7-5.3c-2.4-3.6-4.8-7.2-7.1-10.9c-1.2-1.8-2.3-3.7-3.4-5.6c-1.1-1.9-2.2-3.8-3.3-5.7
		C170.8,786.3,168.7,782.3,166.8,778.2z"/>
</g>
<g>
	<path class="st1" d="M387.8,778.2c4.3,1.7,8.2,3.6,12.2,5.6c1.9,1,3.9,2,5.8,3.1c1.9,1.1,3.8,2.1,5.7,3.2c3.8,2.2,7.5,4.4,11.1,6.7
		c1.8,1.1,3.6,2.3,5.4,3.5l1.3,0.9l0.2,0.1c-0.1-0.1,0.3,0.2-0.2-0.2l0,0l0.1,0.1l0.3,0.2l0.7,0.4c0.4,0.3,0.9,0.6,1.3,0.8
		c0.3,0.1,0.7,0.3,1,0.5l2.1,1c0.7,0.4,1.5,0.6,2.3,1c0.7,0.3,1.5,0.6,2.3,0.9l2.3,0.7c3.1,0.9,6.2,1.5,9.2,1.9
		c1.5,0.2,3.1,0.3,4.6,0.3c0.8,0,1.5,0,2.3,0c0.8,0,1.5-0.1,2.3-0.1l5.5-0.4l6.3-0.3c4.2-0.2,8.5-0.3,12.7-0.4
		c2.1-0.1,4.2-0.1,6.3-0.1c2.1,0,4.2,0,6.3,0c4.2,0,8.5,0.1,12.7,0.2l6.3,0.2l6.3,0.3c4.2,0.3,8.5,0.5,12.7,0.9l1.6,0.1l0.8,0.1
		l0.4,0l0.1,0l0,0c0.1,0-0.6,0-0.3,0l0.2,0l1.6,0.1l1.1,0.1c0.6,0.1,1.4,0.1,2.2,0.2c0.8,0,1.6,0.1,2.4,0c3.2,0,6.4-0.3,9.6-0.9
		c1.6-0.3,3.2-0.7,4.8-1.1c1.6-0.5,3.2-1,4.8-1.5l-2.1,1.7c3.6-2.7,7.2-5.4,10.9-8.1c1.8-1.3,3.7-2.6,5.6-3.9
		c1.9-1.3,3.8-2.6,5.7-3.8c1.9-1.2,3.8-2.5,5.8-3.8c2-1.2,3.9-2.5,5.9-3.6c2-1.2,4-2.4,6-3.5c2-1.2,4.1-2.3,6.2-3.3
		c-1,2.1-2,4.2-3.1,6.3c-1.1,2.1-2.2,4.1-3.3,6.1c-1.1,2-2.3,4-3.4,6c-1.1,2-2.4,3.9-3.5,5.9c-1.2,2-2.4,3.9-3.6,5.8
		c-1.2,1.9-2.5,3.8-3.7,5.7c-2.5,3.8-5.1,7.5-7.7,11.2l-2.1,1.7c-3.8,3.5-8.2,6.5-12.8,9c-4.7,2.5-9.7,4.4-14.8,5.8
		c-1.3,0.3-2.6,0.6-3.9,0.9c-1.3,0.2-2.6,0.5-4.1,0.7l-3.6,0.4l-0.2,0c0.3,0-0.4,0-0.4,0l0,0l-0.1,0l-0.4,0l-0.8,0.1l-1.6,0.1
		c-4.2,0.4-8.5,0.7-12.7,0.9l-6.3,0.3l-6.3,0.2c-4.2,0.1-8.5,0.2-12.7,0.2c-2.1,0-4.2,0-6.3,0c-2.1,0-4.2,0-6.3-0.1
		c-4.2-0.1-8.5-0.2-12.7-0.4l-6.3-0.3l-3.2-0.2c-1.3-0.1-2.7-0.2-4-0.3c-1.4-0.2-2.7-0.3-4.1-0.6c-1.3-0.3-2.7-0.4-4-0.8
		c-2.6-0.6-5.3-1.3-7.8-2.2c-5.1-1.8-10-4.2-14.4-7.1c-1.1-0.7-2.2-1.5-3.3-2.3c-1.1-0.8-2.1-1.6-3.1-2.5c-1-0.9-2-1.7-3-2.6
		c-0.9-0.9-1.9-1.8-2.9-2.9l-1.5-1.6c-0.4-0.5-0.7-0.9-1-1.3l-0.5-0.6l-0.2-0.3l-0.1-0.1l0,0c-0.5-0.4-0.1-0.1-0.3-0.3l-0.1-0.2
		l-0.9-1.3c-1.2-1.8-2.5-3.5-3.7-5.3c-2.4-3.6-4.8-7.2-7.1-10.9c-1.2-1.8-2.3-3.7-3.4-5.6c-1.1-1.9-2.2-3.8-3.3-5.7
		C391.7,786.3,389.6,782.3,387.8,778.2z"/>
</g>
<path class="st2" d="M387.8,580.4c0-34.3,46.7-40.3,46.7-40.3l-46.7-46.4l-46.1,48.4C341.7,542.1,387.8,546.1,387.8,580.4"/>
<path class="st3" d="M387.8,734.4c0-34.3,44.5-38.3,44.5-38.3l-44.5-48.4l-46.1,48.4C341.7,696.1,387.8,700.1,387.8,734.4"/>
<path class="st3" d="M388.6,864.9c0-34.3,44.5-38.3,44.5-38.3l-44.5-48.4l-46.1,48.4C342.5,826.6,388.6,830.6,388.6,864.9"/>
</svg>
