<?xml version="1.0" encoding="utf-8"?>
<!-- Generator: Adobe Illustrator 20.1.0, SVG Export Plug-In . SVG Version: 6.00 Build 0)  -->
<svg version="1.1" id="Layer_1" xmlns="http://www.w3.org/2000/svg" xmlns:xlink="http://www.w3.org/1999/xlink" x="0px" y="0px"
	 viewBox="0 0 792 1224" style="enable-background:new 0 0 792 1224;" xml:space="preserve">
<style type="text/css">
	.st0{fill:#c42126;stroke:#FFFFFF;stroke-miterlimit:10;}
	.st1{fill:#FFFFFF;}
</style>
<path class="st0" d="M424.3,292.2c-14.6-18.1-42.1-18.1-56.7,0l-78.2,97c0,0,0,0,0,0.1v654.2c0,60.8,50.4,110.3,111.2,107.7
	c56.7-2.4,101.9-49.1,101.9-106.4V389.3c0,0,0,0,0-0.1L424.3,292.2z"/>
<g>
	<g>
		<g>
			<path class="st1" d="M455.4,631.5c0,14.8-4.1,27.5-12.3,38c-1.2,1.5-2.4,2.9-3.7,4.2c1.3,1.3,2.5,2.7,3.7,4.2
				c8.2,10.5,12.3,23.1,12.3,38v11.5h-23v-11.5c0-8.5-1.9-15.7-5.6-21.7s-8.3-9-13.6-9h-42.2v42.2h-23v-42.2h-7.7l-3.8-23h11.5V620
				h107.3V631.5z M413.3,662.1c5.3,0,9.8-3,13.6-9c1.9-3.1,3.3-6.5,4.3-10.2h-60v19.2H413.3z"/>
		</g>
	</g>
</g>
</svg>
