<svg id="Layer_1" data-name="Layer 1" xmlns="http://www.w3.org/2000/svg" viewBox="0 0 5.13 18.7"><defs><style>.cls-1{fill:rgb(254,0,0);}.cls-2{font-size:4px;fill:#fff;font-family:HelveticaNeue-Bold, Helvetica Neue;font-weight:700;}</style></defs><title>bagemoji</title><path class="cls-1" d="M6.72,3.64a2.82,2.82,0,0,0-2.57,3V16.71A2,2,0,0,0,6,18.84h1.5a2,2,0,0,0,1.82-2.13V6.64A2.82,2.82,0,0,0,6.72,3.64Z" transform="translate(-4.16 -0.13)"/><text class="cls-2" transform="translate(1.24 11.29)">R</text><path class="cls-1" d="M8.74,4.77,8,3.75a1.7,1.7,0,0,0-2.6,0l-.72,1c-.21.29.06.66.48.66H8.26C8.68,5.42,8.95,5.06,8.74,4.77Z" transform="translate(-4.16 -0.13)"/><circle class="cls-1" cx="6.23" cy="1.33" r="0.14" transform="translate(-1.45 6.5) rotate(-68.45)"/><circle class="cls-1" cx="6.37" cy="0.97" r="0.14" transform="translate(-1.03 6.4) rotate(-68.45)"/><circle class="cls-1" cx="6.51" cy="0.62" r="0.14" transform="translate(-0.61 6.31) rotate(-68.45)"/><circle class="cls-1" cx="5.8" cy="2.41" r="0.14" transform="translate(-2.73 6.79) rotate(-68.45)"/><circle class="cls-1" cx="5.94" cy="2.06" r="0.14" transform="translate(-2.31 6.69) rotate(-68.45)"/><circle class="cls-1" cx="6.08" cy="1.71" r="0.14" transform="translate(-1.9 6.6) rotate(-68.45)"/><circle class="cls-1" cx="5.37" cy="3.5" r="0.14" transform="translate(-4.02 7.07) rotate(-68.45)"/><circle class="cls-1" cx="5.51" cy="3.14" r="0.14" transform="translate(-3.59 6.98) rotate(-68.45)"/><circle class="cls-1" cx="5.65" cy="2.79" r="0.14" transform="translate(-3.18 6.89) rotate(-68.45)"/><circle class="cls-1" cx="7.22" cy="1.32" r="0.14" transform="translate(-4.14 2.61) rotate(-21.55)"/><circle class="cls-1" cx="7.08" cy="0.96" r="0.14" transform="translate(-4.02 2.53) rotate(-21.55)"/><circle class="cls-1" cx="6.94" cy="0.61" r="0.14" transform="translate(-3.9 2.46) rotate(-21.55)"/><circle class="cls-1" cx="7.65" cy="2.41" r="0.14" transform="translate(-4.51 2.84) rotate(-21.55)"/><circle class="cls-1" cx="7.51" cy="2.05" r="0.14" transform="translate(-4.39 2.77) rotate(-21.55)"/><circle class="cls-1" cx="7.37" cy="1.7" r="0.14" transform="translate(-4.27 2.69) rotate(-21.55)"/><circle class="cls-1" cx="8.08" cy="3.5" r="0.14" transform="translate(-4.88 3.08) rotate(-21.55)"/><circle class="cls-1" cx="7.94" cy="3.14" r="0.14" transform="translate(-4.75 3) rotate(-21.55)"/><circle class="cls-1" cx="7.8" cy="2.79" r="0.14" transform="translate(-4.64 2.93) rotate(-21.55)"/><circle class="cls-1" cx="6.72" cy="0.27" r="0.14" transform="translate(-0.15 6.29) rotate(-68.45)"/></svg>