<?xml version="1.0" encoding="utf-8"?>
<!-- Generator: Adobe Illustrator 20.1.0, SVG Export Plug-In . SVG Version: 6.00 Build 0)  -->
<svg version="1.1" id="Layer_1" xmlns="http://www.w3.org/2000/svg" xmlns:xlink="http://www.w3.org/1999/xlink" x="0px" y="0px"
	 viewBox="0 0 792 114" style="enable-background:new 0 0 792 114;" xml:space="preserve">
<style type="text/css">
	.st0{fill:#595A5C;}
	.st1{fill:#BDBEC0;}
	.st2{fill:#fe0000;}
	.st3{fill:#BDBEC0;stroke:#A7A9AC;stroke-width:2;stroke-miterlimit:10;}
</style>
<g>
	<path class="st0" d="M56.5,58.4v6.5H38.2V40.6h9.4v17.9H56.5z"/>
	<path class="st0" d="M59.6,64.9V40.5h18.3v6.3h-9v2.6h8.4v6.3h-8.4v2.9h9.4v6.3H59.6z"/>
	<path class="st0" d="M99.1,64.9H86.6l-6.9-24.7h9.8l3.5,19.2l3.7-19.2h9.2L99.1,64.9z"/>
	<path class="st0" d="M110.2,64.9V40.5h18.3v6.3h-9v2.6h8.4v6.3h-8.4v2.9h9.4v6.3H110.2z"/>
	<path class="st0" d="M151.2,58.4v6.5h-18.3V40.6h9.4v17.9H151.2z"/>
</g>
<g>
	<polygon class="st1" points="192.7,63.3 192.7,66 208.8,66 208.8,21.1 192.7,21.1 192.7,23.9 202,23.9 202,63.3 	"/>
</g>
<g>
	<polygon class="st1" points="171.4,23.8 171.4,21.1 155.3,21.1 155.3,66 171.4,66 171.4,63.1 162.1,63.1 162.1,23.8 	"/>
</g>
<g>
	<path class="st2" d="M199.7,30.1c0,4.6-1.3,8.5-3.8,11.8c-0.4,0.5-0.7,0.9-1.1,1.3c0.4,0.4,0.8,0.8,1.1,1.3
		c2.6,3.3,3.8,7.2,3.8,11.8v3.6h-7.1v-3.6c0-2.6-0.6-4.9-1.7-6.7c-1.2-1.9-2.6-2.8-4.2-2.8h-13.1v13.1h-7.1V46.8H164l-1.2-7.1h3.6
		V26.6h33.3V30.1z M186.6,39.6c1.6,0,3.1-0.9,4.2-2.8c0.6-1,1-2,1.3-3.2h-18.6v5.9H186.6z"/>
</g>
<g>
	<path class="st0" d="M88.4,94.6V74.2H96c2.2,0,3.9,0.1,5.2,0.2c1.2,0.1,2.2,0.3,3,0.6c0.9,0.4,1.6,1,2.1,1.7
		c0.5,0.8,0.7,1.7,0.7,2.8c0,1.1-0.3,2.1-1,2.8s-1.6,1.3-2.9,1.6c1.5,0.3,2.6,0.8,3.3,1.6c0.7,0.8,1.1,1.8,1.1,3.2
		c0,1.9-0.7,3.4-2.1,4.4c-1.4,1-3.5,1.5-6.3,1.5H88.4z M96,82.4h1c0.8,0,1.4-0.2,1.8-0.5c0.4-0.3,0.6-0.8,0.6-1.4
		c0-0.6-0.2-1.1-0.6-1.4c-0.4-0.3-1-0.5-1.9-0.5h-1V82.4z M96,86.2v4h1.3c0.9,0,1.5-0.2,1.9-0.5c0.4-0.3,0.6-0.9,0.6-1.6
		c0-0.7-0.2-1.1-0.6-1.5s-1-0.5-1.9-0.5H96z"/>
	<path class="st0" d="M119.8,94.9c-3.3,0-5.8-0.9-7.6-2.7c-1.8-1.8-2.7-4.4-2.7-7.7c0-3.4,0.9-6,2.7-7.8c1.8-1.8,4.4-2.7,7.8-2.7
		c3.3,0,5.9,0.9,7.7,2.7c1.8,1.8,2.7,4.4,2.7,7.8c0,3.4-0.9,6-2.7,7.8C125.9,94,123.3,94.9,119.8,94.9z M120,79.2
		c-0.8,0-1.4,0.4-1.8,1.1c-0.3,0.8-0.5,2.1-0.5,4.2c0,1.9,0.2,3.3,0.5,4s0.9,1.1,1.7,1.1c0.8,0,1.4-0.4,1.8-1.2
		c0.3-0.8,0.5-2.2,0.5-4.3c0-1.9-0.2-3.2-0.5-3.9S120.8,79.2,120,79.2z"/>
	<path class="st0" d="M131.4,74.2h8.3l2.8,5.6l2.7-5.6h8l-6.1,9.7l6.5,10.7H145l-3-6.2l-3.4,6.2h-7.9l6.8-10.4L131.4,74.2z"/>
	<path class="st0" d="M163.1,74.2v20.4h-8V74.2H163.1z"/>
	<path class="st0" d="M173.7,82v12.5h-6.5V74.2h9.6l4.5,12.2V74.2h6.5v20.4h-9.6L173.7,82z"/>
	<path class="st0" d="M211.9,93.5c-1.9,0.5-3.7,0.8-5.4,1.1c-1.8,0.2-3.4,0.4-5,0.4c-3.3,0-5.9-1-7.8-2.9c-1.9-1.9-2.9-4.5-2.9-7.8
		c0-3.3,1-5.8,3.1-7.7s4.9-2.7,8.7-2.7c2.9,0,5.1,0.6,6.7,1.7c1.6,1.2,2.3,2.8,2.3,4.9v0.1h-7.3c-0.1-0.5-0.3-0.9-0.6-1.2
		c-0.4-0.3-0.8-0.4-1.4-0.4c-1.1,0-1.9,0.4-2.4,1.3c-0.5,0.9-0.7,2.4-0.7,4.5c0,1.9,0.2,3.3,0.7,4c0.5,0.8,1.2,1.2,2.3,1.2
		c0.4,0,0.8-0.1,1.1-0.2c0.4-0.1,0.7-0.3,1.1-0.5V87h-2.7v-4h10.5V93.5z"/>
</g>
<g>
	<path class="st0" d="M213,64.9V39.2h19.3v6.6h-9.5v2.8h8.9v6.6h-8.9v3h9.9v6.7H213z"/>
	<path class="st0" d="M237,65V39.2h11.5c4.7,0,8.3,1,10.6,3.1c2.3,2.1,3.4,5.3,3.4,9.6c0,4.3-1.2,7.5-3.5,9.7s-5.8,3.3-10.4,3.3H237
		z M247,59c0.1,0,0.2,0,0.3,0s0.2,0,0.3,0c1.7,0,2.9-0.5,3.6-1.6c0.7-1.1,1.1-2.9,1.1-5.5c0-2.5-0.3-4.2-1-5.3s-1.8-1.6-3.3-1.6
		c-0.2,0-0.4,0-0.6,0s-0.2,0-0.4,0V59z"/>
</g>
<g>
	<path class="st2" d="M317.8,49.2c-0.1,0.2-0.3,0.4-0.5,0.5s-0.4,0.2-0.6,0.2c-0.2,0-0.5-0.1-0.7-0.2c-0.3-0.1-0.6-0.3-0.9-0.5
		c-0.3-0.2-0.7-0.3-1.1-0.5c-0.4-0.1-0.9-0.2-1.5-0.2c-1,0-1.7,0.2-2.1,0.6c-0.5,0.4-0.7,1-0.7,1.6c0,0.4,0.1,0.8,0.4,1.1
		c0.3,0.3,0.6,0.5,1.1,0.8c0.5,0.2,1,0.4,1.6,0.6c0.6,0.2,1.2,0.4,1.8,0.6c0.6,0.2,1.2,0.5,1.8,0.8s1.1,0.7,1.6,1.1s0.8,1,1.1,1.6
		c0.3,0.6,0.4,1.4,0.4,2.3c0,1-0.2,2-0.5,2.8c-0.4,0.9-0.9,1.6-1.5,2.3c-0.7,0.7-1.5,1.2-2.5,1.5c-1,0.4-2.1,0.6-3.3,0.6
		c-0.7,0-1.4-0.1-2.1-0.2c-0.7-0.1-1.4-0.3-2-0.6s-1.3-0.6-1.9-0.9c-0.6-0.3-1.1-0.7-1.5-1.2l1.5-2.4c0.1-0.2,0.3-0.3,0.5-0.4
		s0.4-0.2,0.6-0.2c0.3,0,0.6,0.1,0.9,0.3c0.3,0.2,0.6,0.4,1,0.6c0.4,0.2,0.8,0.4,1.3,0.6s1.1,0.3,1.8,0.3c0.9,0,1.6-0.2,2.1-0.6
		c0.5-0.4,0.8-1,0.8-1.9c0-0.5-0.1-0.9-0.4-1.2c-0.3-0.3-0.6-0.6-1.1-0.8s-1-0.4-1.6-0.6c-0.6-0.2-1.2-0.3-1.8-0.5
		c-0.6-0.2-1.2-0.4-1.8-0.7c-0.6-0.3-1.1-0.7-1.6-1.1c-0.5-0.5-0.8-1-1.1-1.7c-0.3-0.7-0.4-1.6-0.4-2.6c0-0.8,0.2-1.6,0.5-2.4
		s0.8-1.5,1.5-2.1c0.6-0.6,1.4-1.1,2.4-1.5s2-0.5,3.2-0.5c0.7,0,1.3,0.1,2,0.2c0.6,0.1,1.2,0.3,1.8,0.5c0.6,0.2,1.1,0.5,1.6,0.7
		c0.5,0.3,0.9,0.6,1.3,1L317.8,49.2z"/>
	<path class="st2" d="M340.7,44.8v4h-6.1v17.8h-5.1V48.8h-6.2v-4H340.7z"/>
	<path class="st2" d="M350.9,58.5v8.1h-5.1V44.8h7.1c1.6,0,2.9,0.2,4,0.5c1.1,0.3,2,0.8,2.7,1.4s1.2,1.3,1.5,2.1
		c0.3,0.8,0.5,1.6,0.5,2.6c0,0.7-0.1,1.4-0.3,2c-0.2,0.6-0.5,1.2-0.8,1.7c-0.4,0.5-0.8,1-1.4,1.4s-1.2,0.8-1.9,1
		c0.3,0.2,0.7,0.4,1,0.6s0.6,0.6,0.8,0.9l4.7,7.6h-4.6c-0.9,0-1.5-0.3-1.8-1l-3.6-6.3c-0.2-0.3-0.3-0.5-0.6-0.6
		c-0.2-0.1-0.5-0.2-0.9-0.2H350.9z M350.9,55h2c0.7,0,1.3-0.1,1.8-0.3c0.5-0.2,0.9-0.4,1.2-0.7c0.3-0.3,0.5-0.7,0.7-1.1
		c0.1-0.4,0.2-0.9,0.2-1.3c0-1-0.3-1.7-0.9-2.2s-1.6-0.8-2.9-0.8h-2V55z"/>
	<path class="st2" d="M389.6,55.7c0,1.6-0.3,3.1-0.8,4.4s-1.3,2.5-2.3,3.5s-2.2,1.8-3.6,2.4c-1.4,0.6-2.9,0.9-4.6,0.9
		c-1.7,0-3.2-0.3-4.6-0.9c-1.4-0.6-2.6-1.4-3.6-2.4c-1-1-1.8-2.2-2.3-3.5c-0.5-1.4-0.8-2.8-0.8-4.4s0.3-3,0.8-4.4
		c0.5-1.4,1.3-2.5,2.3-3.5c1-1,2.2-1.8,3.6-2.4c1.4-0.6,3-0.9,4.6-0.9c1.7,0,3.2,0.3,4.6,0.9c1.4,0.6,2.6,1.4,3.6,2.4
		c1,1,1.8,2.2,2.3,3.5C389.3,52.7,389.6,54.1,389.6,55.7z M384.4,55.7c0-1.1-0.1-2.1-0.4-2.9c-0.3-0.9-0.7-1.6-1.2-2.2
		c-0.5-0.6-1.2-1.1-1.9-1.4c-0.8-0.3-1.6-0.5-2.6-0.5c-1,0-1.9,0.2-2.6,0.5c-0.8,0.3-1.4,0.8-1.9,1.4c-0.5,0.6-0.9,1.3-1.2,2.2
		c-0.3,0.9-0.4,1.8-0.4,2.9c0,1.1,0.1,2.1,0.4,2.9c0.3,0.9,0.7,1.6,1.2,2.2c0.5,0.6,1.2,1.1,1.9,1.4s1.6,0.5,2.6,0.5
		c1,0,1.8-0.2,2.6-0.5c0.8-0.3,1.4-0.8,1.9-1.4c0.5-0.6,0.9-1.3,1.2-2.2C384.2,57.8,384.4,56.8,384.4,55.7z"/>
	<path class="st2" d="M398.2,44.8c0.1,0,0.3,0.1,0.4,0.1s0.2,0.1,0.3,0.2c0.1,0.1,0.2,0.2,0.4,0.4l10.4,13.1c0-0.4-0.1-0.8-0.1-1.2
		c0-0.4,0-0.8,0-1.1V44.8h4.5v21.9h-2.6c-0.4,0-0.7-0.1-1-0.2s-0.5-0.3-0.8-0.7l-10.3-13c0,0.4,0.1,0.8,0.1,1.1c0,0.4,0,0.7,0,1
		v11.7H395V44.8h2.7C397.9,44.8,398.1,44.8,398.2,44.8z"/>
	<path class="st2" d="M431,63c0.7,0,1.3-0.1,1.9-0.2c0.5-0.1,1-0.3,1.5-0.5V59h-2.2c-0.3,0-0.6-0.1-0.8-0.3
		c-0.2-0.2-0.3-0.4-0.3-0.6v-2.8h7.8v9.2c-0.6,0.4-1.1,0.8-1.7,1.1c-0.6,0.3-1.2,0.5-1.9,0.7c-0.7,0.2-1.4,0.3-2.2,0.4
		c-0.8,0.1-1.6,0.1-2.5,0.1c-1.6,0-3.1-0.3-4.4-0.8c-1.4-0.6-2.5-1.3-3.5-2.3s-1.8-2.2-2.3-3.5c-0.6-1.4-0.8-2.8-0.8-4.4
		c0-1.6,0.3-3.1,0.8-4.5c0.5-1.4,1.3-2.5,2.3-3.5c1-1,2.2-1.8,3.6-2.3c1.4-0.5,3-0.8,4.8-0.8c0.9,0,1.8,0.1,2.6,0.2
		c0.8,0.1,1.5,0.4,2.2,0.6c0.7,0.3,1.3,0.6,1.9,0.9c0.6,0.4,1.1,0.8,1.5,1.2l-1.5,2.2c-0.1,0.2-0.3,0.4-0.5,0.5
		c-0.2,0.1-0.4,0.2-0.6,0.2c-0.3,0-0.6-0.1-0.9-0.3c-0.4-0.2-0.8-0.4-1.1-0.6c-0.4-0.2-0.7-0.3-1.1-0.4c-0.4-0.1-0.8-0.2-1.2-0.2
		c-0.4,0-0.9-0.1-1.4-0.1c-1,0-1.8,0.2-2.6,0.5c-0.8,0.3-1.4,0.8-1.9,1.4c-0.5,0.6-0.9,1.3-1.2,2.2s-0.4,1.8-0.4,2.9
		c0,1.2,0.2,2.2,0.5,3.1c0.3,0.9,0.8,1.7,1.3,2.3c0.6,0.6,1.2,1.1,2,1.4C429.2,62.8,430.1,63,431,63z"/>
	<path class="st2" d="M474.2,66.6h-3.9c-0.4,0-0.8-0.1-1.1-0.3c-0.3-0.2-0.5-0.5-0.6-0.8l-1.3-3.8H459l-1.3,3.8
		c-0.1,0.3-0.3,0.5-0.6,0.8c-0.3,0.2-0.6,0.3-1.1,0.3h-4l8.5-21.9h5.2L474.2,66.6z M460.1,58.3h6l-2-6c-0.1-0.4-0.3-0.8-0.5-1.3
		c-0.2-0.5-0.3-1.1-0.5-1.7c-0.2,0.6-0.3,1.2-0.5,1.7c-0.2,0.5-0.3,1-0.5,1.4L460.1,58.3z"/>
	<path class="st2" d="M492.4,44.8v4h-6.2v17.8h-5.1V48.8H475v-4H492.4z"/>
	<path class="st2" d="M520.4,44.8v3.9h-9v5.1h6.9v3.8h-6.9v5.2h9v3.9h-14.1V44.8H520.4z"/>
	<path class="st2" d="M524.5,44.8h4.1c0.4,0,0.8,0.1,1.1,0.3c0.3,0.2,0.5,0.5,0.6,0.8l4.2,11.7c0.2,0.5,0.4,1.1,0.6,1.7
		s0.4,1.2,0.5,1.9c0.1-0.7,0.3-1.3,0.5-1.9c0.2-0.6,0.4-1.2,0.5-1.7l4.2-11.7c0.1-0.3,0.3-0.5,0.6-0.8s0.6-0.3,1.1-0.3h4.1
		l-8.8,21.9h-4.6L524.5,44.8z"/>
	<path class="st2" d="M565.4,44.8v3.9h-9v5.1h6.9v3.8h-6.9v5.2h9v3.9h-14.1V44.8H565.4z"/>
	<path class="st2" d="M576.4,58.5v8.1h-5.1V44.8h7.1c1.6,0,2.9,0.2,4,0.5c1.1,0.3,2,0.8,2.7,1.4s1.2,1.3,1.5,2.1
		c0.3,0.8,0.5,1.6,0.5,2.6c0,0.7-0.1,1.4-0.3,2c-0.2,0.6-0.5,1.2-0.8,1.7c-0.4,0.5-0.8,1-1.4,1.4s-1.2,0.8-1.9,1
		c0.3,0.2,0.7,0.4,1,0.6s0.6,0.6,0.8,0.9l4.6,7.6h-4.6c-0.8,0-1.5-0.3-1.8-1l-3.6-6.3c-0.2-0.3-0.3-0.5-0.6-0.6
		c-0.2-0.1-0.5-0.2-0.9-0.2H576.4z M576.4,55h2c0.7,0,1.3-0.1,1.8-0.3c0.5-0.2,0.9-0.4,1.2-0.7c0.3-0.3,0.5-0.7,0.7-1.1
		c0.1-0.4,0.2-0.9,0.2-1.3c0-1-0.3-1.7-0.9-2.2s-1.6-0.8-2.9-0.8h-2V55z"/>
	<path class="st2" d="M605.2,58.3v8.3h-5.1v-8.3l-7.9-13.5h4.5c0.4,0,0.8,0.1,1,0.3s0.5,0.5,0.6,0.8l3.1,6.4c0.2,0.5,0.5,1,0.7,1.4
		c0.2,0.4,0.4,0.9,0.6,1.3c0.2-0.4,0.3-0.9,0.5-1.3s0.4-0.9,0.7-1.4l3.1-6.4c0.1-0.1,0.1-0.3,0.2-0.4c0.1-0.1,0.2-0.2,0.4-0.4
		s0.3-0.2,0.5-0.3s0.4-0.1,0.6-0.1h4.5L605.2,58.3z"/>
	<path class="st2" d="M631.4,62.6h8.1v4h-13.2V44.8h5.1V62.6z"/>
	<path class="st2" d="M659,44.8v3.9h-9v5.1h6.9v3.8H650v5.2h9v3.9h-14.1V44.8H659z"/>
	<path class="st2" d="M663.1,44.8h4.1c0.4,0,0.8,0.1,1.1,0.3c0.3,0.2,0.5,0.5,0.6,0.8l4.2,11.7c0.2,0.5,0.4,1.1,0.6,1.7
		s0.4,1.2,0.5,1.9c0.1-0.7,0.3-1.3,0.5-1.9c0.2-0.6,0.4-1.2,0.5-1.7l4.2-11.7c0.1-0.3,0.3-0.5,0.6-0.8s0.6-0.3,1.1-0.3h4.1
		l-8.8,21.9h-4.6L663.1,44.8z"/>
	<path class="st2" d="M704.1,44.8v3.9h-9v5.1h6.9v3.8h-6.9v5.2h9v3.9H690V44.8H704.1z"/>
	<path class="st2" d="M715,62.6h8.1v4h-13.2V44.8h5.1V62.6z"/>
	<path class="st2" d="M728.5,64.3c0-0.4,0.1-0.7,0.2-1s0.3-0.6,0.6-0.8c0.2-0.2,0.5-0.4,0.8-0.5c0.3-0.1,0.7-0.2,1-0.2
		c0.4,0,0.7,0.1,1,0.2c0.3,0.1,0.6,0.3,0.8,0.5s0.4,0.5,0.6,0.8s0.2,0.6,0.2,1s-0.1,0.7-0.2,1c-0.1,0.3-0.3,0.6-0.6,0.8
		c-0.2,0.2-0.5,0.4-0.8,0.5c-0.3,0.1-0.7,0.2-1,0.2c-0.4,0-0.7-0.1-1-0.2c-0.3-0.1-0.6-0.3-0.8-0.5c-0.2-0.2-0.4-0.5-0.6-0.8
		C728.6,65,728.5,64.6,728.5,64.3z"/>
</g>
<line class="st3" x1="284.9" y1="17" x2="284.9" y2="97"/>
</svg>
