<svg id="Layer_1" data-name="Layer 1" xmlns="http://www.w3.org/2000/svg" viewBox="0 0 227.14 73.84"><defs><style>.cls-1{fill:#fff;}.cls-2{fill:#bcbec0;}.cls-3{fill:#be1e2d;}</style></defs><title>Level red white text-red r</title><path class="cls-1" d="M86.13,186.32v6.47H67.84V168.43h9.43v17.9Z" transform="translate(-67.84 -148.95)"/><path class="cls-1" d="M89.18,192.79V168.4h18.26v6.27h-9v2.65h8.4v6.27h-8.4v2.88h9.36v6.33Z" transform="translate(-67.84 -148.95)"/><path class="cls-1" d="M128.74,192.82H116.2l-6.87-24.69h9.85l3.53,19.17,3.71-19.17h9.21Z" transform="translate(-67.84 -148.95)"/><path class="cls-1" d="M139.8,192.79V168.4h18.26v6.27h-9v2.65h8.4v6.27H149v2.88h9.36v6.33Z" transform="translate(-67.84 -148.95)"/><path class="cls-1" d="M180.81,186.32v6.47H162.52V168.43h9.43v17.9Z" transform="translate(-67.84 -148.95)"/><polygon class="cls-2" points="154.48 42.21 154.48 44.92 170.63 44.92 170.63 0 154.48 0 154.48 2.87 163.75 2.87 163.75 42.21 154.48 42.21"/><polygon class="cls-2" points="133.2 2.71 133.2 0 117.05 0 117.05 44.92 133.2 44.92 133.2 42.04 123.93 42.04 123.93 2.71 133.2 2.71"/><path class="cls-3" d="M229.28,158a18.48,18.48,0,0,1-3.83,11.77,13.31,13.31,0,0,1-1.14,1.31,13.31,13.31,0,0,1,1.14,1.31,18.48,18.48,0,0,1,3.83,11.77v3.57h-7.13v-3.57a12.47,12.47,0,0,0-1.74-6.73q-1.74-2.78-4.21-2.78H203.12v13.08H196V174.65H193.6l-1.19-7.14H196V154.43h33.3Zm-13.08,9.51q2.47,0,4.21-2.78a11.55,11.55,0,0,0,1.33-3.16H203.12v5.95Z" transform="translate(-67.84 -148.95)"/><path class="cls-1" d="M118,222.44V202.07h7.62q3.31,0,5.18.19a11.05,11.05,0,0,1,3,.63,4.43,4.43,0,0,1,2.12,1.74,5.11,5.11,0,0,1,.74,2.79,4.11,4.11,0,0,1-1,2.8,5.65,5.65,0,0,1-2.92,1.6,5.92,5.92,0,0,1,3.34,1.6,4.5,4.5,0,0,1,1.08,3.18,5,5,0,0,1-2.11,4.36q-2.11,1.46-6.3,1.46Zm7.56-12.19h1a3,3,0,0,0,1.83-.48,1.63,1.63,0,0,0,.64-1.38,1.69,1.69,0,0,0-.64-1.43,3,3,0,0,0-1.86-.49h-1Zm0,3.88v4h1.29a2.94,2.94,0,0,0,1.9-.52,1.9,1.9,0,0,0,.62-1.55,1.74,1.74,0,0,0-.62-1.46,3.08,3.08,0,0,0-1.9-.48Z" transform="translate(-67.84 -148.95)"/><path class="cls-1" d="M149.39,222.76q-4.91,0-7.59-2.74t-2.69-7.73q0-5.06,2.74-7.8t7.79-2.75q5,0,7.74,2.74t2.72,7.78q0,5.11-2.74,7.8T149.39,222.76Zm.22-15.73a1.79,1.79,0,0,0-1.76,1.13,11.51,11.51,0,0,0-.51,4.19,10.88,10.88,0,0,0,.51,4,1.77,1.77,0,0,0,1.73,1.14,1.79,1.79,0,0,0,1.76-1.2,12.44,12.44,0,0,0,.51-4.32,10.15,10.15,0,0,0-.5-3.88A1.77,1.77,0,0,0,149.62,207Z" transform="translate(-67.84 -148.95)"/><path class="cls-1" d="M161,202.07h8.3l2.78,5.63,2.74-5.63h8l-6.14,9.68,6.49,10.69h-8.5l-3-6.16-3.42,6.16h-7.9l6.77-10.36Z" transform="translate(-67.84 -148.95)"/><path class="cls-1" d="M192.7,202.07v20.37h-8V202.07Z" transform="translate(-67.84 -148.95)"/><path class="cls-1" d="M203.32,209.91v12.53H196.8V202.07h9.65l4.46,12.19V202.07h6.52v20.37h-9.65Z" transform="translate(-67.84 -148.95)"/><path class="cls-1" d="M241.5,221.36a50.09,50.09,0,0,1-5.44,1.06,37.3,37.3,0,0,1-5,.36,10.61,10.61,0,0,1-7.83-2.86,10.47,10.47,0,0,1-2.88-7.78,9.71,9.71,0,0,1,3.07-7.66q3.07-2.73,8.67-2.73a11.07,11.07,0,0,1,6.68,1.73,5.78,5.78,0,0,1,2.34,4.94v.11h-7.32a1.72,1.72,0,0,0-.63-1.22,2.23,2.23,0,0,0-1.43-.44,2.51,2.51,0,0,0-2.4,1.31,10.06,10.06,0,0,0-.71,4.47,8.6,8.6,0,0,0,.68,4,2.43,2.43,0,0,0,2.28,1.17,4.09,4.09,0,0,0,1.13-.16,4.33,4.33,0,0,0,1.09-.49v-2.32H231v-4H241.5Z" transform="translate(-67.84 -148.95)"/><path class="cls-1" d="M242.67,192.81V167.08h19.26v6.61h-9.54v2.79h8.86v6.61h-8.86v3h9.87v6.68Z" transform="translate(-67.84 -148.95)"/><path class="cls-1" d="M266.64,192.84V167.08h11.51q7.12,0,10.56,3.14t3.45,9.63q0,6.45-3.51,9.73t-10.43,3.27Zm9.94-6,.31,0,.28,0a4,4,0,0,0,3.61-1.63q1.08-1.63,1.08-5.49t-1-5.29a3.68,3.68,0,0,0-3.35-1.57h-.56l-.37,0Z" transform="translate(-67.84 -148.95)"/><path class="cls-1" d="M295,167.84a2,2,0,1,1-2-2A2,2,0,0,1,295,167.84Zm-3.69,0a1.68,1.68,0,1,0,1.69-1.8A1.71,1.71,0,0,0,291.29,167.86Zm2.5-.78a1.44,1.44,0,0,0-.65-.15.86.86,0,0,0-.93.93.88.88,0,0,0,.94.94,1.3,1.3,0,0,0,.67-.17l.08.25a1.52,1.52,0,0,1-.82.21,1.15,1.15,0,0,1-1.22-1.2,1.23,1.23,0,0,1,1.27-1.24,1.31,1.31,0,0,1,.73.18Z" transform="translate(-67.84 -148.95)"/></svg>