<svg id="Layer_1" data-name="Layer 1" xmlns="http://www.w3.org/2000/svg" viewBox="0 0 625.67 536.17"><defs><style>.cls-1{fill:#fff;}</style></defs><title>Level Red White R</title><polygon class="cls-1" points="432.86 503.82 432.86 536.17 625.67 536.17 625.67 0 432.86 0 432.86 34.28 543.57 34.28 543.57 503.82 432.86 503.82"/><polygon class="cls-1" points="192.81 32.35 192.81 0 0 0 0 536.17 192.81 536.17 192.81 501.89 82.1 501.89 82.1 32.35 192.81 32.35"/><path class="cls-1" d="M537,200q0,82.34-42.27,140.54a156.4,156.4,0,0,1-12.6,15.61,157.43,157.43,0,0,1,12.6,15.61Q537,430,537,512.31V554.9H458.23V512.31q0-47.12-19.17-80.34t-46.48-33.22H248.17V554.9H169.4V398.75H143.14L130,313.57H169.4V157.42H537ZM392.59,313.57q27.31,0,46.48-33.22a144,144,0,0,0,14.7-37.76H248.17v71Z" transform="translate(-39.16 -91.91)"/></svg>