<?xml version="1.0" encoding="utf-8"?>
<!-- Generator: Adobe Illustrator 19.2.1, SVG Export Plug-In . SVG Version: 6.00 Build 0)  -->
<svg version="1.1" id="_xAE_" xmlns="http://www.w3.org/2000/svg" xmlns:xlink="http://www.w3.org/1999/xlink" x="0px" y="0px"
	 viewBox="0 0 309.3 134.7" style="enable-background:new 0 0 309.3 134.7;" xml:space="preserve">
<style type="text/css">
	.st0{fill:#D31245;}
	.st1{fill:#FFFFFF;}
</style>
<path class="st0" d="M55.3,50.5C67,52.9,70.8,60.7,70,69.2c-10.7-1.1-15.2-9.3-23-15c-0.6-0.5-1.3-0.5,0.2-2c1.5-1.5,3.3-2,5.6-1.9
	L55.3,50.5L55.3,50.5z"/>
<path class="st0" d="M77.4,73.5c0.7-0.4,2-1.4,0.9-3.4c-1.3-2.5-5.5,0.4-6.2-0.6c-1-1.5,1-3.2,2.2-3.7c4.6-1.8,10.6-1.7,14.2-0.4
	c4.2,1.5,7.2,4.3,9.2,8.5c3.1,6.6,1.5,15.7,0,22.2c-3.5,14.6-10.2,28.4-17.1,30.2c-2.6,0.7-4.8-0.1-8.3-1.8
	c-6.1-2.9-9.4,5.1-15.9,5.7c-10.8,0.9-19-13-23.2-21.1c-4.5-8.8-7.1-17.1-7.5-24.2c-1-15.8,6.7-21,16-21.2c4.3-0.1,9.4,2,14.2,4
	c3.9,1.7,8.7,3.9,12.7,5.2C73.1,74.5,75.6,74.5,77.4,73.5L77.4,73.5z"/>
<path class="st1" d="M35.5,81.1c-0.2,0-0.4,0.2-0.4,0.2c-5.4,3.3,2.2,20.2,5.9,26.7c0.4,0.6,0.8,1.4,1.2,0.9
	c0.4-0.5,0.5-0.8,0.6-1.8c0.6-4.6-1.8-11.7-2.9-15.3c-0.8-2.6-1.6-10-3.9-10.6C35.9,81.1,35.7,81,35.5,81.1L35.5,81.1z"/>
<path class="st1" d="M33.9,77.7c0.4,0.2,0.8,0.1,0.8,0.1c12-2.1-5.4-8.5-1.3-0.6C33.4,77.2,33.6,77.5,33.9,77.7L33.9,77.7z"/>
<polygon points="4.1,44.7 4.1,5.8 9.3,5.8 9.3,44.7 4.1,44.7 "/>
<path d="M32.6,44.7V29.1c0-3.7-0.8-7.2-5.2-7.2c-3.2,0-5.3,1.8-7.3,4.1v18.7h-4.8V29.1c0-2.7,0.4-7.4-1.8-9.5l4.1-1.7
	c1.5,1.2,1.9,3.2,2,5.1l0.2,0.1c2.1-3.2,5-5.1,8.9-5.1c5.4,0,8.8,4,8.8,9.3v17.6H32.6L32.6,44.7z"/>
<path d="M60.4,38.8c-2,1.7-3.5,2.6-6.2,2.6c-5.4,0-8.1-4.6-8.1-9.5c0-4.7,2.6-9.8,7.9-9.8c2.7,0,4.5,1.1,6.4,2.9
	c-0.2,0.9-0.2,1.9-0.2,2.8v8.1C60.2,36.9,60.3,37.8,60.4,38.8L60.4,38.8z M69,41.6c-0.5,0.2-1.1,0.2-1.6,0.2c-2.8,0-2.4-3.7-2.4-5.5
	V3.4h-4.8v12.1c0,1.6,0.1,3.2,0.2,4.8c-2.2-1.3-3.9-2.1-6.5-2.1c-7.8,0-12.8,6.6-12.8,14c0,7,4.3,13.1,11.7,13.1
	c3.4,0,5.7-1.1,8.2-3.5c0.8,2.7,2.5,3.4,5.1,3.4c0.8,0,1.5-0.1,2.3-0.3L69,41.6L69,41.6z"/>
<path d="M87.9,28.4c-0.8-0.2-1.2-0.2-1.9-0.2h-9.4c-0.9,0-1.7,0.1-2.6,0.2c0.7-3.8,3.1-6.8,7.2-6.8C85.2,21.6,87.5,24.5,87.9,28.4
	L87.9,28.4z M92.2,40.8l-2.5-2.5c-1.9,1.9-4.4,2.9-7.1,2.9c-6,0-8.7-4.5-8.7-10c0.4,0.2,0.6,0.2,1.1,0.2h15l2.2-2.7
	c0-6.2-4.1-10.7-10.4-10.7c-7.8,0-12.7,6.4-12.7,13.9c0,7.6,4.7,13.5,12.6,13.5C85.9,45.4,89.3,43.9,92.2,40.8L92.2,40.8z"/>
<path d="M114.6,31.8c0,5.4-2.8,9.7-8.5,9.7c-2.4,0-3.7-0.6-5.6-2c0.2-0.9,0.2-1.9,0.2-2.8v-9.5c0-1.2-0.1-2.3-0.2-3.4
	c1.9-1.3,3.6-2,5.9-2C111.9,21.7,114.6,26.8,114.6,31.8L114.6,31.8z M119.8,31.4c0-7.1-4.5-13.4-12-13.4c-3.2,0-5.2,0.9-7.8,2.8
	c-0.2-1.2-0.9-2.1-1.8-2.8l-4.1,1.7c2.1,2.1,1.8,6.8,1.8,9.5v30.8h4.8V47.3c0-1.2-0.1-2.5-0.1-3.7c2.2,1.1,3.8,1.4,6.2,1.4
	C114.7,45,119.8,39.1,119.8,31.4L119.8,31.4z"/>
<path d="M140.4,28.4c-0.8-0.2-1.2-0.2-1.9-0.2H129c-0.9,0-1.7,0.1-2.6,0.2c0.7-3.8,3.1-6.8,7.2-6.8C137.7,21.6,140,24.5,140.4,28.4
	L140.4,28.4z M144.7,40.8l-2.5-2.5c-1.9,1.9-4.4,2.9-7.1,2.9c-6,0-8.7-4.5-8.7-10c0.3,0.2,0.6,0.2,1.1,0.2h15l2.2-2.7
	c0-6.2-4.1-10.7-10.4-10.7c-7.8,0-12.7,6.4-12.7,13.9c0,7.6,4.7,13.5,12.6,13.5C138.4,45.4,141.8,43.9,144.7,40.8L144.7,40.8z"/>
<path d="M165.6,44.7V29.1c0-3.7-0.8-7.2-5.2-7.2c-3.2,0-5.3,1.8-7.3,4.1v18.7h-4.8V29.1c0-2.7,0.4-7.4-1.8-9.5l4.1-1.7
	c1.5,1.2,1.9,3.2,2,5.1l0.2,0.1c2.1-3.2,5-5.1,8.9-5.1c5.4,0,8.8,4,8.8,9.3v17.6H165.6L165.6,44.7z"/>
<path d="M193.4,38.8c-2,1.7-3.5,2.6-6.2,2.6c-5.4,0-8.1-4.6-8.1-9.5c0-4.7,2.6-9.8,7.9-9.8c2.7,0,4.5,1.1,6.4,2.9
	c-0.2,0.9-0.2,1.9-0.2,2.8v8.1C193.2,36.9,193.2,37.8,193.4,38.8L193.4,38.8z M202,41.6c-0.5,0.2-1.1,0.2-1.6,0.2
	c-2.8,0-2.4-3.7-2.4-5.5V3.4h-4.8v12.1c0,1.6,0.1,3.2,0.2,4.8c-2.2-1.3-3.9-2.1-6.5-2.1c-7.8,0-12.8,6.6-12.8,14
	c0,7,4.3,13.1,11.7,13.1c3.4,0,5.7-1.1,8.2-3.5c0.8,2.7,2.5,3.4,5.1,3.4c0.8,0,1.5-0.1,2.3-0.3L202,41.6L202,41.6z"/>
<path d="M220.8,28.4c-0.8-0.2-1.2-0.2-1.9-0.2h-9.4c-0.9,0-1.7,0.1-2.6,0.2c0.7-3.8,3.1-6.8,7.2-6.8
	C218.2,21.6,220.5,24.5,220.8,28.4L220.8,28.4z M225.1,40.8l-2.5-2.5c-1.9,1.9-4.4,2.9-7.1,2.9c-6,0-8.7-4.5-8.7-10
	c0.4,0.2,0.6,0.2,1.1,0.2h15l2.2-2.7c0-6.2-4.1-10.7-10.4-10.7c-7.8,0-12.7,6.4-12.7,13.9c0,7.6,4.7,13.5,12.6,13.5
	C218.9,45.4,222.3,43.9,225.1,40.8L225.1,40.8z"/>
<path d="M246.1,44.7V29.1c0-3.7-0.8-7.2-5.2-7.2c-3.2,0-5.3,1.8-7.3,4.1v18.7h-4.8V29.1c0-2.7,0.4-7.4-1.8-9.5l4.1-1.7
	c1.5,1.2,1.9,3.2,2,5.1l0.2,0.1c2.1-3.2,5-5.1,8.9-5.1c5.4,0,8.8,4,8.8,9.3v17.6H246.1L246.1,44.7z"/>
<path d="M265,45c-2.1,0-4.9-0.8-6-2.7c-1.1-1.8-1-4.5-1-6.6V23.4c0-0.5,0-0.8,0.2-1.4c-0.5,0.2-0.8,0.2-1.4,0.2h-4.4v-2.9
	c7.1-0.4,6.8-1.1,7.8-8h3l-0.4,6.2c0,0.5-0.1,0.9-0.2,1.4c0.5-0.2,0.8-0.2,1.4-0.2h5.9v3.5H264c-0.5,0-0.8,0-1.4-0.2
	c0.2,0.5,0.2,0.8,0.2,1.4V36c0,3,0.2,5.1,3.7,5.1c1.7,0,3.1-0.4,4.7-1.1l0.7,3.2C269.7,44.5,267.5,45,265,45L265,45z"/>
<path d="M145.5,107.7v-24c0-0.6,0.1-1,0.2-1.5c-0.5,0.2-0.9,0.2-1.4,0.2h-25.8c-0.5,0-0.9-0.1-1.4-0.2c0.2,0.5,0.2,0.9,0.2,1.4v24.1
	h-7.1V53.9h7.1v21.3c0,0.6-0.1,1-0.2,1.5c0.5-0.2,0.9-0.2,1.4-0.2h25.8c0.5,0,0.9,0.1,1.4,0.2c-0.2-0.5-0.2-0.9-0.2-1.4V53.9h7.1
	v53.7H145.5L145.5,107.7z"/>
<path d="M182.6,85.1c-1.1-0.3-1.6-0.3-2.7-0.3h-13c-1.2,0-2.4,0.1-3.6,0.3c1-5.3,4.3-9.3,10-9.3C178.9,75.8,182.1,79.8,182.6,85.1
	L182.6,85.1z M188.5,102.2l-3.4-3.5c-2.6,2.6-6.1,4-9.8,4c-8.3,0-12-6.2-12-13.8c0.5,0.3,0.9,0.3,1.5,0.3h20.7l3.1-3.7
	c0-8.6-5.6-14.8-14.4-14.8c-10.8,0-17.5,8.9-17.5,19.2c0,10.5,6.5,18.7,17.4,18.7C179.9,108.6,184.5,106.5,188.5,102.2L188.5,102.2z
	"/>
<path d="M210.8,89c-0.2,1.1-0.3,2.2-0.3,3.4v8.2c-2.6,1.5-4.5,2.8-7.6,2.8c-3.3,0-6-1.9-6-5.4C196.8,91,205.4,89.8,210.8,89
	L210.8,89z M222.7,103.4c-0.6,0.2-1.5,0.3-2.1,0.3c-4.1,0-3.5-5-3.5-7.6V84.3c0-3.2-0.2-7.4-2.5-9.8c-2.3-2.5-5.9-3.5-9.3-3.5
	c-4.9,0-8.8,1.5-13,3.8v5.8c3.7-2,7.5-4.1,11.9-4.1c4.4,0,6.3,2.3,6.3,6.6c0,0.7-0.1,1.3,0.3,2c-8.4,0.7-20.6,2.4-20.6,13.2
	c0,6.2,4.1,10.2,10.3,10.2c4.6,0,7.5-1.9,10.9-4.8c1.1,3.6,3.4,4.7,7.1,4.7c1.1,0,2.2-0.2,3.3-0.4L222.7,103.4L222.7,103.4z"/>
<polygon points="225.4,107.7 225.4,50.7 232.1,50.7 232.1,107.7 225.4,107.7 "/>
<path d="M251.9,108.1c-2.8,0-6.7-1.1-8.3-3.7c-1.5-2.5-1.4-6.3-1.4-9.1v-17c0-0.7,0-1.1,0.2-1.9c-0.7,0.2-1.1,0.2-1.9,0.2h-6v-4
	c9.8-0.5,9.3-1.5,10.7-11.1h4.1l-0.5,8.5c0,0.7-0.2,1.2-0.3,1.9c0.7-0.2,1.1-0.2,1.9-0.2h8.2v4.9h-8.2c-0.7,0-1.1,0-1.9-0.2
	c0.2,0.7,0.2,1.1,0.2,1.9v17.4c0,4.1,0.2,7.1,5.1,7.1c2.4,0,4.2-0.6,6.4-1.5l1,4.5C258.4,107.3,255.3,108.1,251.9,108.1L251.9,108.1
	z"/>
<path d="M287.8,107.7V86.1c0-2.4-0.1-5.2-1.5-7.2c-1.4-1.8-3.6-2.8-5.9-2.8c-4.4,0-7.3,2.4-10,5.7v25.8h-6.7v-57h6.7v14.1
	c0,4.1-0.2,8.2-0.4,12.4l0.2,0.1c3.3-4.1,6.7-6.6,12.1-6.6c7.4,0,12.1,5.6,12.1,12.8v24.2H287.8L287.8,107.7z"/>
<g>
	<path d="M301.9,108.2c-2.4,0-4.4-2-4.4-4.4c0-2.5,2-4.4,4.5-4.4c2.4,0,4.5,1.9,4.5,4.4C306.4,106.3,304.4,108.2,301.9,108.2z
		 M302,100.1c-2,0-3.6,1.6-3.6,3.6c0,1.9,1.6,3.6,3.5,3.6c2,0,3.6-1.6,3.6-3.6C305.5,101.8,303.9,100.1,302,100.1z M303.1,106.2
		l-1.2-1.8c-0.2,0-0.5,0-0.7,0c0,0.1,0,0.2,0,0.3v1.6h-1v-4.8c0.5-0.1,0.9-0.1,1.4-0.1c0.9,0,2.1,0.3,2.1,1.4c0,0.6-0.4,1.1-0.9,1.3
		c0.1,0.1,0.2,0.3,0.4,0.4l1.2,1.7H303.1z M301.7,102.1h-0.4c0,0-0.1,0-0.1,0c0,0.1,0,0.2,0,0.3v1.1c0,0.1,0,0.2,0,0.2
		c0.3-0.1,0.6,0,0.8,0c0.4,0,0.7-0.4,0.7-0.8C302.7,102.3,302.2,102.1,301.7,102.1z"/>
</g>
</svg>
