<?xml version="1.0" encoding="utf-8"?>
<!-- Generator: Adobe Illustrator 22.0.1, SVG Export Plug-In . SVG Version: 6.00 Build 0)  -->
<svg version="1.1" id="Layer_1" xmlns="http://www.w3.org/2000/svg" xmlns:xlink="http://www.w3.org/1999/xlink" x="0px" y="0px"
	 viewBox="0 0 72 72" style="enable-background:new 0 0 72 72;" xml:space="preserve">
<style type="text/css">
	.st0{fill:#fe0000;}
</style>
<path class="st0" d="M38.2,30.8c2.5,1.4,4.2,3.5,5.1,6.1c0.9,2.6,0.5,5.3-0.7,7.9c3-2,4.5-7.2,3.4-11.4c-0.4-1.7-0.9-3.3-1.4-5
	c-0.8-3.1,0.2-5.7,2-8.1c0.1-0.1,0.3-0.2,0.5-0.3c0.1,0,0.3,0,0.6,0.1c-1.7,3.7,0,6.6,1.9,9.5c0.8,1.2,1.6,2.4,2.5,3.5
	c4.7,6.2,5.4,12.9,2.1,19.8c-3.3,7.1-9.1,10.9-16.8,11.4c-6.6,0.4-12.5-1.1-17-6.3c-4.6-5.3-5.6-11.6-3.6-18.3
	c0.2-0.6,0.4-1.3,1.2-1.8c-0.1,2.4,0.3,4.5,1.6,6.4c1.3,1.9,2.9,3.3,5,4c-0.8-1.4-2.1-2.5-2.8-3.9c-1.9-3.9-1.4-7.6,0.4-11.3
	c2.1-4.4,5.6-7.7,8.7-11.4c1.6-2,2.8-4.2,3.7-6.6c0.9-2.6,0.9-5.1-0.9-7.6c4.1,1.3,6.9,6.4,6.5,11c-0.3,3.7-1.7,6.9-3.8,9.8
	c-1.3,1.8-2.5,3.6-2.8,5.9c-0.2,1.8,0.2,3.5,1.8,4.6c1.1,0.8,2.3,0.4,3.2-0.4c1.6-1.4,1.4-3.1,0.8-4.9
	C38.9,32.5,38.1,31.8,38.2,30.8L38.2,30.8z"/>
</svg>
