<?xml version="1.0" encoding="utf-8"?>
<!-- Generator: Adobe Illustrator 22.0.1, SVG Export Plug-In . SVG Version: 6.00 Build 0)  -->
<svg version="1.1" id="Layer_1" xmlns="http://www.w3.org/2000/svg" xmlns:xlink="http://www.w3.org/1999/xlink" x="0px" y="0px"
	 viewBox="0 0 72 72" style="enable-background:new 0 0 72 72;" xml:space="preserve">
<style type="text/css">
	.st0{fill:#fe0000;}
</style>
<g>
	<path class="st0" d="M23,12.3c0.5,0,1,0,1.5,0c0.1,0,0.1,0,0.2,0c0.3,0,0.7,0.1,1,0.1c4.4,0.7,7.8,3,10.2,6.8
		c0,0.1,0.1,0.1,0.1,0.2c0.1-0.1,0.1-0.2,0.1-0.2c0.7-1.2,1.6-2.4,2.7-3.3c2.2-2,4.7-3.2,7.6-3.5c0.4,0,0.7-0.1,1.1-0.1
		c0.5,0,1,0,1.5,0c0.1,0,0.1,0,0.2,0c0.8,0.1,1.6,0.2,2.4,0.4c5.9,1.5,10.1,6.5,10.7,12.7c0,0.3,0.1,0.5,0.1,0.8c0,0.3,0,0.7,0,1
		c0,0.1,0,0.2,0,0.3c0,0.4-0.1,0.8-0.1,1.1c-0.5,3.3-1.8,6-4.1,8.4c-7.3,7.5-14.6,15-22,22.4c-0.1,0.1-0.1,0.1-0.2,0.2
		c-0.1-0.1-0.1-0.2-0.2-0.2c-4.1-4.2-8.2-8.4-12.3-12.5c-3.3-3.4-6.7-6.8-10-10.3c-2.1-2.2-3.4-5-3.8-8.1c0-0.4-0.1-0.7-0.1-1.1
		c0-0.5,0-1,0-1.5c0-0.4,0.1-0.7,0.1-1.1c0.4-3.4,1.9-6.4,4.4-8.7c2.2-2.1,4.8-3.4,7.9-3.8C22.3,12.4,22.7,12.3,23,12.3z"/>
</g>
</svg>
