<?xml version="1.0" encoding="utf-8"?>
<!-- Generator: Adobe Illustrator 22.0.1, SVG Export Plug-In . SVG Version: 6.00 Build 0)  -->
<svg version="1.1" id="Layer_1" xmlns="http://www.w3.org/2000/svg" xmlns:xlink="http://www.w3.org/1999/xlink" x="0px" y="0px"
	 viewBox="0 0 72 72" style="enable-background:new 0 0 72 72;" xml:space="preserve">
<style type="text/css">
	.st0{fill:#fe0000;}
</style>
<g>
	<ellipse class="st0" cx="36" cy="14.1" rx="6.3" ry="6.4"/>
	<path class="st0" d="M52.1,29.9l-0.6-0.5c-0.2-0.2-0.4-0.4-0.6-0.6l-0.6-0.6l-0.6-0.6c-0.2-0.2-0.4-0.4-0.6-0.6
		c-0.2-0.2-0.4-0.4-0.6-0.5l-0.3-0.3L48,26c-0.2-0.2-0.4-0.3-0.7-0.5c-0.2-0.2-0.5-0.3-0.7-0.5c-0.2-0.1-0.5-0.3-0.7-0.4
		c-0.5-0.3-1-0.6-1.5-0.8c-0.3-0.1-0.5-0.3-0.8-0.4l-0.4-0.2c-0.1-0.1-0.3-0.1-0.4-0.2c-0.1-0.1-0.3-0.1-0.4-0.2
		c-0.1-0.1-0.3-0.1-0.4-0.2c-0.3-0.1-0.6-0.2-0.9-0.3c-0.3-0.1-0.7-0.2-1-0.2h-8.2c-0.4,0-0.8,0.1-1.1,0.2c-0.3,0.1-0.5,0.2-0.8,0.2
		c-0.1,0.1-0.3,0.1-0.4,0.2c-0.1,0.1-0.3,0.1-0.4,0.2c-0.1,0.1-0.3,0.1-0.4,0.2l-0.4,0.2c-0.3,0.1-0.5,0.2-0.8,0.4
		c-0.5,0.3-1,0.5-1.5,0.8c-0.2,0.1-0.5,0.3-0.7,0.4c-0.2,0.2-0.5,0.3-0.7,0.5c-0.2,0.2-0.4,0.3-0.7,0.5l-0.3,0.3l-0.3,0.3
		c-0.2,0.2-0.4,0.4-0.6,0.5c-0.2,0.2-0.4,0.4-0.6,0.6l-0.6,0.6l-0.6,0.6c-0.2,0.2-0.4,0.4-0.6,0.6l-0.6,0.5l-1.1,1l1.1,0.7
		c0.5,0.3,1,0.6,1.5,1c0.5,0.3,1,0.6,1.5,1c0.5,0.3,1,0.6,1.5,1c0.5,0.3,1,0.6,1.5,0.9l1.5,0.9c0.5,0.3,1,0.6,1.5,0.9l1.5,0.9
		c0.4,0.2,0.8,0.5,1.2,0.7l-0.2,1.2c-0.1,0.3-0.1,0.7,0,1c-0.1,0.2-0.1,0.3-0.1,0.5v18.9c0,0.7,0.6,1.3,1.3,1.3h1.2
		c0.7,0,1.3-0.6,1.3-1.3V44.4h1.7v16.2c0,0.7,0.6,1.3,1.3,1.3h1.2c0.7,0,1.3-0.6,1.3-1.3V41.6c0-0.2,0-0.3-0.1-0.5c0-0.3,0-0.7,0-1
		L40.4,39c0.5-0.3,0.9-0.6,1.3-0.8l1.5-0.9c0.5-0.3,1-0.6,1.5-0.9l1.5-0.9c0.5-0.3,1-0.6,1.5-1c0.5-0.3,1-0.6,1.5-1
		c0.5-0.3,1-0.6,1.5-1c0.5-0.3,1-0.6,1.4-1l1.1-0.7L52.1,29.9z M31,37.8l-1.3-1.2c-0.4-0.4-0.8-0.8-1.3-1.1l-1.3-1.1
		c-0.4-0.4-0.9-0.8-1.3-1.1c-0.4-0.4-0.9-0.8-1.3-1.1c-0.4-0.4-0.9-0.7-1.3-1.1c-0.1-0.1-0.1-0.1-0.2-0.2c0.1-0.1,0.2-0.1,0.3-0.2
		l0.7-0.5l0.7-0.4c0.2-0.2,0.5-0.3,0.7-0.5c0.2-0.2,0.5-0.3,0.7-0.5l0.3-0.2l0.3-0.3c0.2-0.2,0.4-0.4,0.6-0.5
		c0.2-0.2,0.4-0.4,0.6-0.6c0.2-0.2,0.4-0.4,0.5-0.6c0.3-0.3,0.5-0.6,0.8-0.9L32,36.5l-0.3,1.9C31.4,38.2,31.2,38,31,37.8z
		 M47.5,32.1c-0.4,0.4-0.8,0.8-1.3,1.1c-0.4,0.4-0.8,0.8-1.3,1.1l-1.3,1.1c-0.4,0.4-0.8,0.8-1.3,1.1l-1.2,1.1
		c-0.3,0.3-0.6,0.6-0.9,0.8L40,36.5l2.8-10.9c0.3,0.3,0.5,0.6,0.8,1c0.2,0.2,0.4,0.4,0.5,0.6c0.2,0.2,0.4,0.4,0.6,0.6
		c0.2,0.2,0.4,0.4,0.6,0.5l0.3,0.3l0.3,0.2c0.2,0.2,0.4,0.3,0.7,0.5c0.2,0.2,0.5,0.3,0.7,0.5l0.7,0.4l0.7,0.5
		c0.1,0.1,0.2,0.1,0.3,0.2c-0.1,0.1-0.1,0.1-0.2,0.2C48.4,31.3,47.9,31.7,47.5,32.1z"/>
</g>
</svg>
